<?xml version="1.0" encoding="utf-8"?>
<!-- Generator: Adobe Illustrator 16.0.0, SVG Export Plug-In . SVG Version: 6.00 Build 0)  -->
<!DOCTYPE svg PUBLIC "-//W3C//DTD SVG 1.1//EN" "http://www.w3.org/Graphics/SVG/1.1/DTD/svg11.dtd">
<svg version="1.1" class="envelope-open-svg" xmlns="http://www.w3.org/2000/svg" xmlns:xlink="http://www.w3.org/1999/xlink" x="0px" y="0px"
	 width="50px" height="65px" viewBox="0 0 88.002 107.054" enable-background="new 0 0 88.002 107.054"
	 xml:space="preserve">
<g id="Layer_1" display="none">
	<rect x="1660.833" y="224.407" display="inline" fill="#878686" width="526" height="676"/>
	<g display="inline">
		<path fill="#E6E6E6" d="M-89.167,140.407c0,0,16.241,63,85.918,107s122.457,40,122.457,40s845.782,13,925.282,13
			s191.343,40,231.343,140.4v463.6h-1365V140.407z"/>
	</g>
	<g display="inline">
		<path fill="#FDC000" d="M1277.833,1677.407c0,0-16.21,63-85.888,107s-122.442,40-122.442,40s-845.805,13-925.305,13
			s-191.365,40-231.365,140.4v463.6h1365V1677.407z"/>
	</g>
	<g display="inline">
		<rect x="-439.667" y="138.907" fill="none" stroke="#000000" width="217" height="217"/>
		<line fill="none" stroke="#000000" x1="-438.441" y1="354.738" x2="-223.137" y2="139.434"/>
		<line fill="none" stroke="#000000" x1="-438.441" y1="139.434" x2="-223.137" y2="354.738"/>
	</g>
	<rect x="-392.667" y="540.907" display="inline" fill="none" stroke="#000000" width="140" height="140"/>
	<rect x="-392.167" y="373.407" display="inline" fill="#E0E0E0" width="140" height="140"/>
	<rect x="609.333" y="484.465" display="inline" fill="none" width="556.996" height="77.884"/>
	<text transform="matrix(1 0 0 1 609.333 539.9639)" display="inline" font-family="'Quicksand-Regular'" font-size="75">NICOLAS HOOG</text>
	<g display="inline">
		<path fill="#FDC000" d="M48.862,1368.119l-14.988-27.614c-1.671,1.952-3.354,3.893-5.033,5.837l0.018-0.021
			c-1.107,1.324-2.214,2.65-3.32,3.977l0.017-0.021c-0.896,1.023-1.792,2.048-2.687,3.073l-1.316,1.525
			c-3.269,4.183-6.951,8.003-10.518,11.926c0,0.001,0.016-0.021,0.016-0.021c-1.767,2.058-3.532,4.116-5.297,6.175l0.017-0.021
			c-1.106,1.326-2.213,2.651-3.319,3.978l0.017-0.021c-0.373,0.445-0.746,0.894-1.121,1.34l0.018-0.021l-2.212,2.663l0.017-0.021
			c-0.37,0.448-0.743,0.897-1.114,1.343l0.016-0.021c-1.397,1.62-2.796,3.24-4.194,4.859l0.017-0.021
			c-0.238,0.273-0.475,0.544-0.712,0.816c-0.314,0.399-0.654,0.781-0.938,1.201c-4.639,6.854-9.051,13.846-13.127,21.051
			c-0.224,0.493-0.429,0.996-0.674,1.478c-2.643,5.215-6.312,10.029-7.934,15.614c-3.906,13.436-6.927,27.106-7.697,41.167
			l-0.005,1.312c0,1.694,0,3.388-0.001,5.081c0.001,0.587,0.004,1.169,0.007,1.753c0.206,5.417,0.478,10.822,1.367,16.188
			c3.714,22.449,11.219,43.196,27.341,59.927c4.258,4.418,8.206,9.234,13.754,12.327c9.637,5.37,20.069,8.778,30.521,11.866
			c6.332,1.87,9.855,5.376,12.358,11.157c4.044,9.33,4.643,19.103,4.34,28.953c-0.276,8.951-1.284,17.877-2.005,26.812
			c-0.057,0.716,0.229,1.021,0.751,1.396c3.464,2.485,7.158,2.084,10.943,0.995c0.783-0.226,1.087-0.61,1.241-1.408
			c1.601-8.271,1.556-16.672,2.049-25.033c0.729-12.38-1.271-24.211-6.806-35.373c-0.095-0.191-0.145-0.406-0.215-0.61
			c0.245,0.013,0.497-0.01,0.734,0.041c2.144,0.464,4.27,1.037,6.432,1.398c10.45,1.741,21.047,1.919,31.575,2.829
			c9.806,0.848,19.632,1.818,29.462,0.392c15.549-2.26,30.669-6.286,45.553-11.254c0.396-0.132,0.822-0.167,1.237-0.246
			c-0.041,0.389-0.044,0.784-0.127,1.164c-0.716,3.284-1.429,6.568-2.176,9.845c-1.742,7.616-3.104,15.274-2.857,23.134
			c0.192,6.202-0.26,12.427-1.337,18.465c-2.421,13.562-3.699,27.317-6.969,40.731c-0.151,0.621-0.067,1.097,0.497,1.534
			c3.406,2.634,7.7,3.481,11.208,1.883c0.314-0.144,0.513-0.478,0.608-0.812c3.495-12.193,6.976-24.329,8.044-37.123
			c0.821-9.812,2.91-19.515,3.076-29.428c0.193-11.357,2.623-22.425,4.645-33.539c0.132-0.722,0.459-1.025,1.135-1.25
			c2.777-0.93,5.628-1.722,8.276-2.939c19.488-8.971,39.393-16.982,59.296-24.922c16.817-6.709,31.818-16.046,46.496-26.396
			c10.21-7.195,18.419-15.955,25.926-25.776c9.258-12.116,10.48-26.564,12.92-40.68c1.021-5.919,2.204-11.55,5.991-16.456
			c2.515-3.26,5.245-6.297,7.941-9.385c4.954-5.67,10.213-11.113,13.026-18.342c4.356-11.195,5.695-22.853,5.67-34.749
			c-0.074-0.54-0.169-1.081-0.218-1.623c-0.362-4.069-1.558-7.786-4.413-10.854c-4.174-4.483-21.523-13.823-23.006-17.812
			c-1.369-3.686-2.527-7.51-4.911-10.727c-4.791-6.466-10.302-12.258-16.398-17.523c-7.176-6.201-13.226-13.72-21.791-18.3
			c-2.644-1.413-5.195-3.067-8.074-3.849c-1.132-0.309-2.272-0.579-3.417-0.837c-0.02,0.017-0.031,0.036-0.052,0.054
			c-4.321,3.683-6.64,8.888-9.122,13.876c-2.446,4.911-4.094,10.594-4.687,16.1c-0.082,0.764,0.653,1.113,1.087,1.365
			c9.779,5.714,13.146,15.033,14.491,25.531c1.792,13.957-1.485,27.166-6.072,40.13c-3.928,11.104-9.516,21.359-16.739,30.694
			c-0.002,0.005-0.006,0.01-0.006,0.01l0.001-0.001c-6.062,7.94-12.374,15.657-19.817,22.377c-3.557,3.211-6.968,6.581-10.766,9.518
			c0,0.001,0.023-0.018,0.023-0.018c-4.549,4.296-9.057,8.64-14.312,12.102c-1.544,1.246-3.086,2.492-4.631,3.738l0.021-0.016
			c-0.666,0.52-1.331,1.042-1.998,1.562c0,0.001,0.023-0.018,0.023-0.018c-0.301,0.226-0.601,0.452-0.9,0.68l0.021-0.019
			c-8.558,6.05-16.375,13.041-24.712,19.377c-14.275,10.851-27.926,22.466-40.338,35.412c-6.763,7.052-12.578,14.963-18.073,23.07
			c-0.112,0.166-0.307,0.277-0.464,0.414c-1.702,3.522-3.851,6.755-6.077,9.976c-1.53,2.213-2.397,4.904-3.416,7.438
			c-0.34,0.845-0.696,1.165-1.592,1.245c-13.432,1.192-26.802,0.874-40.145-1.217c-9.436-1.479-18.773-3.421-28.094-5.462
			c-0.882-0.193-1.776-0.497-2.564-0.936c-6.81-3.794-13.85-7.245-20.337-11.533c-15.072-9.966-26.935-22.798-33.756-39.858
			c-4.614-11.546-6.581-23.538-6.796-35.917c-0.232-13.52,1.37-26.738,5.76-39.567c0.117-0.341,0.378-0.982,0.378-0.982
			c0.375-1.12,0.749-2.241,1.126-3.362c0.057-0.2,0.113-0.401,0.169-0.603c0.163-0.371,0.325-0.742,0.489-1.113
			c0-0.001-0.016,0.022-0.016,0.022c0.153-0.373,0.307-0.745,0.46-1.119l-0.014,0.02c0.226-0.528,0.451-1.055,0.676-1.585
			c0.046-0.134,0.091-0.271,0.135-0.406c0.906-1.775,1.812-3.551,2.717-5.326c1.349-1.661,2.696-3.324,4.044-4.985
			c0.193-0.239,0.386-0.477,0.58-0.713l3.237-3.928c0.242-0.299,0.484-0.599,0.727-0.898c0.113-0.14,0.228-0.282,0.341-0.424
			c0.251-0.303,0.501-0.606,0.752-0.908c0.045-0.062,0.09-0.128,0.134-0.188c0.248-0.303,0.498-0.604,0.746-0.907
			c0.274-0.355,0.548-0.713,0.821-1.069c0.237-0.312,0.475-0.624,0.71-0.936c0.208-0.273,0.415-0.548,0.623-0.82
			c0.234-0.306,0.469-0.611,0.703-0.917c0.783-1.089,1.569-2.178,2.353-3.266c0.32-0.438,0.637-0.879,0.957-1.317
			c1.217-1.687,2.434-3.376,3.65-5.061l0.716-0.903l-0.018,0.021c3.026-3.646,6.809-6.499,10.251-9.705
			c2.375-2.214,4.913-4.253,7.378-6.369l-0.021,0.017C45.111,1371.183,48.862,1368.119,48.862,1368.119z M46.283,1563.111
			c-0.474,1.207-1.754,1.127-2.637,1.355c-0.587-0.064-0.981,0.027-1.317-0.445c-2.258-3.197-6.132-4.057-9.593-2.175
			c-0.909,0.494-0.776,1.351-0.631,2.134c0.089,0.483,0.451,0.911,0.604,1.392c0.283,0.897,1.977,1.328,1.093,2.521
			c-0.886,1.197-2.152,0.28-3.136-0.019c-2.179-0.66-3.956-2.016-4.156-4.438c-0.181-2.223,0.769-4.112,2.69-5.425
			c3.5-2.388,12.396-2.753,16.118,1.814C46.114,1560.804,46.775,1561.859,46.283,1563.111z M212.499,1526.414
			c-1.572,0.907-3.357,1.09-5.021,0.13c-1.346-0.777-1.518-2.144-1.46-3.553c0.031-0.771,0.416-1.334,1.101-1.642
			c4.852-2.184,4.349-8.837,1.628-11.869c-2.083-2.319-3.812-0.505-5.447,0.755c-1.036,0.799-2.031,1.512-3.2,0.494
			c-1.229-1.069-1.521-2.588-0.911-4.021c1.48-3.468,4.46-4.777,7.987-5.31c2.833-0.428,4.319,1.367,5.783,3.222
			c2.157,2.735,4.302,9.029,4.349,13.248C217.077,1520.928,216.047,1524.368,212.499,1526.414z"/>
		<path fill="none" d="M217.306,1517.869c-0.229,3.059-1.259,6.499-4.807,8.545c-1.572,0.907-3.357,1.09-5.021,0.13
			c-1.346-0.777-1.518-2.144-1.46-3.553c0.031-0.771,0.416-1.334,1.101-1.642c4.852-2.184,4.349-8.837,1.628-11.869
			c-2.083-2.319-3.812-0.505-5.447,0.755c-1.036,0.799-2.031,1.512-3.2,0.494c-1.229-1.069-1.521-2.588-0.911-4.021
			c1.48-3.468,4.46-4.777,7.987-5.31c2.833-0.428,4.319,1.367,5.783,3.222C215.114,1507.356,217.259,1513.647,217.306,1517.869z"/>
		<path fill="none" d="M43.646,1564.466c-0.587-0.064-0.981,0.026-1.317-0.446c-2.258-3.197-6.132-4.057-9.593-2.175
			c-0.909,0.495-0.776,1.351-0.631,2.134c0.089,0.482,0.451,0.911,0.603,1.392c0.283,0.897,1.977,1.328,1.093,2.521
			c-0.886,1.197-2.152,0.28-3.136-0.019c-2.179-0.66-3.956-2.016-4.157-4.438c-0.181-2.223,0.769-4.111,2.69-5.425
			c3.5-2.388,12.396-2.753,16.118,1.814c0.797,0.978,1.458,2.034,0.967,3.286C45.81,1564.318,44.53,1564.236,43.646,1564.466z"/>
		<path fill="#FFCD50" d="M347.096,1341.338c4.277,2.469,27.723,20.354,30.025,22.235c4.387,4.508,6.739,12.652,6.874,19.289
			c0.285,14.211-37.71,56.394-39.818,58.771c0.773-2.233-0.767-2.265,0.369-4.656
			C363.193,1397.737,355.013,1352.949,347.096,1341.338z"/>
		<path fill="#FFCD50" d="M275.738,1331.561l3.273-9.522c9.8,0,8.467,7.548,13.692,11.002c2.973,12.665,4.213,30.217,1.052,42.14
			c-1.851,6.977-7.005,32.718-13.744,39.625c-5.58,5.717-57.918,55.55-62.708,59.916c54.118-75.484,72.19-93.064,54.118-133.068
			L275.738,1331.561z"/>
		<g id="Layer_3_xA0_Image_2_">
			<path fill="#FDC000" d="M23.075,1314.726c-3.713-11.642-6.709-23.436-7.97-35.634c-0.505-4.876-1.588-9.695-2.012-14.575
				c-1.174-13.485-3.171-26.896-3.256-40.482c-0.058-9.396-0.407-18.814-2.402-28.06c-1.592-7.376-3.101-14.769-4.29-22.22
				c-0.463-2.912-0.58-5.841,0.783-8.617c1.053-2.148,2.363-2.812,4.634-2.099c1.178,0.371,2.276,0.992,3.414,1.498
				c0.258,0.115,0.582,0.376,0.771,0.302c0.375-0.146,0.189-0.581,0.16-0.879c-0.512-5.134-1.041-10.271-1.567-15.404
				c-0.862-8.415-1.716-16.83-2.59-25.242c-0.719-6.904-0.439-13.926-2.038-20.717c-1.2-5.091-3.179-10.005-4.252-15.115
				c-1.91-9.094-3.623-18.235-4.326-27.537c-0.705-9.312-0.331-18.495,3.161-27.265c1.614-4.055,7.8-13.189,11.205-16.594
				c0.973-0.973-3.254,1.47-3.254,1.47c1.529-2.016,3.27-3.895,5.294-5.586c1.682-1.403,3.428-2.831,5.365-3.808
				c3.356-1.69,5.808-4.627,9.155-6.284c0.759-0.375,0.279-0.846,0.034-1.265c-2.544-4.357-4.59-8.847-4.114-14.1
				c0.31-3.413,0.979-6.742,2.046-9.989c2.411-7.335,5.134-14.575,10.022-20.654c0,0-1.896,10.826-0.286,6.683
				c4.328-11.127,9.621-17.181,18.334-20.714c3.588-1.454,7.216-2.946,11.091-3.96c7.005-1.833,13.84-4.35,21.096-5.209
				c6.913-0.817,13.816-1.732,20.796-0.982c2.38,0.256,10.745,2.592,13.132,2.336c5.698-0.609,11.992-3.341,17.204-6.253
				c4.035-2.254,8.816-2.626,13.219-4.001c12.922-4.038,24.798-1.262,36.017,5.655c0.285,0.175,1.641,1.27,1.898,0.72
				c0.366-0.776,0.859-1.182,0.859-1.182s-0.275,2.058,1.572,2.418c3.417,0.667,4.152,0.715,7.81-0.012
				c0.38-0.076,3.76-1.183,4.127-1.174c-1.366,3.265-5.26,2.577-1.673,3.907c9.752,3.613,19.064,8.132,28.343,12.769
				c12.37,6.183,24.384,12.983,36.012,20.464c6.679,4.297,11.387,10.537,16.413,16.531c7.02,8.374,10.538,18.46,14.669,28.247
				c1.432,3.395,2.59,6.87,3.524,10.404c0.465,1.764-3.126-4.027-2.768-2.237c0.764,3.806,6.809,18.937,6.077,33.607
				c-0.372,7.426,0.555,14.867,0.093,22.304c-0.498,7.974-1.507,15.853-3.329,23.663c-0.764,3.283-0.231,6.855-0.434,10.288
				c-0.364,6.234-1.705,12.311-2.999,18.407c-2.291,10.788-4.335,21.624-4.906,32.681c-0.083,1.601,0.241,2.115,1.746,1.219
				c0.342-0.203,0.718-0.347,1.079-0.519c0.899-0.396,1.787-0.827,2.703-1.18c3.003-1.147,5.53,0.181,6.28,3.312
				c0.409,1.719,0.638,3.497,0.411,5.235c-1.001,7.612-2.068,15.214-3.174,22.812c-0.725,4.97-2.167,9.789-3.245,14.686
				c-1.534,6.972-2.196,13.965-1.922,21.133c0.412,10.833-0.541,21.658-0.834,32.488c-0.346,12.67-0.852,25.32-3.357,37.785
				c-1.224,6.092-1.622,12.309-4.211,18.188c-2.321,5.269-4.219,10.763-6.303,16.157c-0.218,0.438-0.993,2.271-1.211,2.711
				c-0.266,0.424-0.766,2.506-1.568,4.006c-0.433,0.812-1.888,4.058-2.187,5.066c0.148-0.134-4.172,8.179-5.132,11.109
				c-1.83,3.59-3.661,7.18-5.491,10.771c-2.311,3.146-4.028,6.624-5.727,10.117c-5.262,11.759-12.656,22.182-20.293,32.458
				c-3.919,5.278-8.341,10.074-13.057,14.667c-4.746,4.625-9.669,9.058-15.294,12.462c-7.393,4.473-15.686,6.178-24.321,6.7
				c-15.596,0.944-31.231,1.501-46.706,3.969c-3.761,0.599-7.573,0.514-11.386-0.043c-4.742-0.693-9.409-1.283-13.861-3.438
				c-5.056-2.445-9.739-5.316-14.076-8.865c-13.906-11.379-37.286-41.325-37.769-41.885c-5.846-6.793-13.042-17.385-17.68-25.534
				c-7.53-13.237-14.222-26.851-19.124-41.296C26.138,1321.807,24.623,1318.26,23.075,1314.726z M196.414,1310.677
				c-8.307-3.354-16.908-4.914-25.881-4.317c-8.646,0.574-17.237,1.915-25.972,0.918c-6.967-0.795-13.734,0.322-20.315,3.024
				c-7.718,3.171-14.591,7.783-21.722,11.966c-5.588,3.275-9.35,7.882-10.404,14.467c-0.403,2.522-0.316,5.035-0.297,7.561
				c0.044,5.865,0.938,11.493,4.005,16.665c4.4,7.423,10.121,13.535,17.068,18.657c5.314,3.917,10.969,5.346,17.375,3.928
				c1.041-0.229,2.236-0.438,2.538-1.634c0.315-1.257-0.074-2.474-1.016-3.423c-0.435-0.438-0.913-0.861-1.441-1.173
				c-1.324-0.781-2.666-1.539-4.043-2.219c-2.553-1.262-4.702-2.953-6.208-5.408c-1.208-1.968-1.165-6.423,0.109-7.888
				c2.32-2.672,4.879-2.841,7.78-0.457c0.707,0.583,1.394,0.934,2.356,0.94c7.768,0.078,15.534,0.014,23.299-0.216
				c8.853-0.262,17.612,1.011,26.416,1.547c4.906,0.3,9.882,0.761,14.518-1.716c3.072-1.642,5.883-0.171,6.326,3.246
				c0.209,1.614-0.022,3.187-0.714,4.714c-1.288,2.85-3.688,4.379-6.383,5.567c-1.942,0.858-3.532,2.075-4.514,3.992
				c-1.421,2.778-0.725,4.786,2.098,6.096c1.926,0.897,4.017,1.049,6.071,1.415c4.13,0.741,7.234-0.693,9.78-3.963
				c2.441-3.137,4.396-6.563,6.577-9.855c4.753-7.168,8.643-14.719,11.204-22.918c1.383-4.424,2.432-8.96,0.513-13.524
				c-0.835-1.989-1.714-3.993-2.848-5.819c-3.954-6.366-9.471-11.205-15.563-15.439
				C204.386,1313.645,196.686,1310.786,196.414,1310.677z M31.442,1277.121c0.16,0.328,0.326,0.652,0.478,0.984
				c1.71,3.801,3.093,7.771,5.304,11.32c5.981,9.598,13.21,18.255,20.468,26.889c4.408,5.242,8.777,10.524,11.562,16.884
				c0.543,1.944,1.499,3.711,2.431,5.48c0.249,0.476,0.447,1.32,1.084,1.191c0.515-0.105,0.228-0.902,0.27-1.382
				c0.103-1.201,0.18-2.406,0.163-3.609c-0.057-3.896,0.473-7.72,1.414-11.487c0.744-2.97,1.543-5.926,2.316-8.887
				c2.481-7.39,6.632-13.5,13.041-18.153c3.623-2.63,7.262-5.206,11.131-7.438c7.336-4.23,14.962-7.527,23.718-7.122
				c4.811,0.222,9.532,0.58,14.026,2.657c9.022,4.175,18.357,6.508,28.427,4.576c3.681-0.705,7.282-1.567,10.84-2.723
				c12.087-3.925,24.225-5.771,36.479-0.632c0.814,0.342,1.645,0.635,2.326,1.211c6.958,5.891,13.837,11.809,19.244,19.311
				c5.521,7.664,9.028,16.128,11.358,25.173c0.737,2.863,0.623,5.812,0.78,8.734c0.02,0.377,0.208,0.743,0.317,1.116
				c0.471-0.155,0.454-0.628,0.578-0.972c1.011-2.789,2.072-5.562,2.964-8.391c3.43-10.862,7.717-21.323,13.517-31.173
				c3.577-6.073,8.067-11.521,11.576-17.621c0.17-0.179,0.396-0.33,0.5-0.541c1.755-3.544,3.577-7.058,5.213-10.655
				c1.368-3.005,2.354-6.194,2.618-9.479c0.604-7.464,2.361-14.761,3.026-22.21c0.293-3.307,0.859-6.609,0.861-9.915
				c0-3.858-0.616-7.714-0.721-11.577c-0.184-6.67-1.782-13.184-2.043-19.84c-0.045-1.154-0.43-2.293-0.62-3.444
				c-1.457-8.89-2.902-17.781-4.356-26.672c-1.475-9.034-3.108-18.046-4.395-27.106c-1.144-8.056-2.39-16.091-3.751-24.11
				c-0.922-5.434-2.058-10.834-2.844-16.286c-1.561-10.842-3.154-21.675-6.273-32.206c-0.317-1.072-3.318-6.776-4.628-8.584
				c-6.125-8.453-13.535-15.233-23.612-18.761c-14.001-4.899-28.429-6.805-43.194-6.366c-7.372,0.219-14.704,0.854-21.721,3.422
				c-3.957,1.448-8.019,2.552-12.084,3.663c-7.921,2.168-15.749,2.502-23.685-0.088c-4.322-1.411-13.202-5.146-13.746-5.322
				c-6.056-2.434-12.179-4.735-18.558-6.123c-7.253-1.577-14.412-1.321-21.154,2.36c-2.925,1.598-5.925,3.062-8.907,4.554
				c-12.18,6.091-22.772,14.192-32.048,24.212c-4.776,5.161-7.249,11.037-7.923,17.77c-0.441,4.398-0.262,8.857-0.418,13.286
				c-0.359,10.246-1.102,20.425-2.802,30.585c-1.973,11.798-5.134,23.303-7.568,34.98c-0.067,0.083-0.18,0.159-0.197,0.252
				c-0.928,5.477-1.528,10.989-1.81,16.539c-0.21,4.122-0.207,8.275-0.752,12.353c-1.082,8.082-1.608,16.19-1.906,24.326
				c-0.124,3.361-0.14,6.735-0.481,10.074c-1,9.772,0.765,19.134,3.87,28.333c1.404,4.159,2.779,8.328,4.124,12.505
				C26.859,1267.908,28.934,1272.607,31.442,1277.121z"/>
			<path fill="#FEE697" d="M22.001,1312.637c1.547,3.534,3.062,7.082,4.155,10.791C24.578,1319.906,23.123,1316.336,22.001,1312.637
				z"/>
			<path fill="none" d="M111.315,1085.696c-0.203-0.088-0.333-0.197-0.418-0.168c-0.102,0.034-0.166,0.186-0.246,0.286
				c0.096,0.076,0.205,0.223,0.286,0.209C111.047,1086.008,111.134,1085.864,111.315,1085.696z"/>
			<path fill="#FEEEBA" d="M111.315,1085.696c-0.182,0.168-0.269,0.312-0.377,0.328c-0.082,0.014-0.189-0.133-0.286-0.208
				c0.08-0.102,0.143-0.254,0.246-0.287C110.982,1085.499,111.113,1085.608,111.315,1085.696z"/>
			<path fill="#FEC203" d="M184.933,1267.886c-0.934,0.52-1.979,0.802-3.023,0.991c-0.249,0.045-0.577,0.019-0.632-0.284
				c-0.073-0.375,1.616-0.708,2.2-0.936c0.875-0.341,3.648-1.594,2.977-3.643c-0.478-1.452-1.89-1.986-3.2-2.271
				c-2.612-0.569-4.988,0.537-7.352,1.443c-3.757,1.43-6.895,3.87-10.274,6.029c-5.12,3.272-11.334,3.362-17.327,0.294
				c-4.305-2.209-7.32-5.059-11.609-7.268c-1.988-1.035-4.142-1.703-6.46-1.099c-2.483,0.66-3.225,2.062-2.042,4.353
				c0.431,0.834,0.852,1.43,1.466,2.135c1.035,1.183,2.803,1.585,2.721,2.107c-0.063,0.431-0.688,0.247-1.045,0.165
				c-0.559-0.128-0.943-0.357-1.512-0.77c-1.851-1.228-2.904-3.006-3.27-5.122c-0.432-2.465,1.42-4.188,4.59-4.344
				c3.748-0.192,6.827,1.567,9.859,3.482c4.444,2.812,7.889,5.8,13.094,7.119c3.647,0.926,7.75-0.257,10.821-2.18
				c4.832-3.025,9.383-6.388,15.138-7.413c1.355-0.239,2.686-0.165,4.023,0.201c1.813,0.495,3.22,1.456,3.362,3.445
				C187.581,1266.325,186.362,1267.089,184.933,1267.886z"/>
			<path fill="#FFCD50" d="M104.85,974.199c-0.604,59.905,39.993,68.902,40.18,69.869c-10.152,0-18.454-6.597-26.475-7.725
				c-13.305-1.871-24.301,1.25-31.208,3.244c-12.199-0.838-24.297-8.232-33.079-15.901c-11.416-9.968-24.077-20.46-20.825-37.575
				c-2.61,13.078,15.161,37.163,42.214,37.447c-19.201-8.532-34.288-40.288-31.282-55.416c-2.119,10.876,27.931,46.842,38.24,52.843
				c-8.299-9.303-15.929-31.237-14.976-43.937c0.082,6.212,3.894,15.925,8.741,24.099l0.787,1.117
				c-1.869-3.619-2.804-7.312-2.639-11.555c0.901,3.781,3.036,8.157,4.343,11.775c2.555,7.077,11.359,19.568,13.009,21.444
				c-9.671-18.736-10.836-35.821-6.969-48.998c-0.552,23.405,15.604,53.796,24.919,55.322
				C104.944,1024.756,96.791,983.371,104.85,974.199z"/>
		</g>
		<g id="From_selection_xA0_Image_1_">
			<path fill="#FEC202" d="M235.844,1146.39c-16.384,0.54-32.106,3.726-46.968,10.67c-3.208,1.499-6.076,3.801-9.364,5.026
				c-1.932,0.719-4.897,0.803-6.442-0.24c-1.278-0.862-1.966-4.007-1.513-5.781c1.901-7.438,4.317-14.748,6.596-22.087
				c0.141-0.457,0.744-0.771,1.131-1.152c-2.706,6.175-4.326,14.441-4.292,14.591c0.057,0.25,4.515-13.644,4.603-13.405
				c0.032,0.085-2.936,13.095-2.885,13.033c0.359-0.434,3.676-12.141,3.676-12.141s-0.771,6.799-0.654,7.702
				c1.761-5.183,1.793-6.968,1.723-8.085c0.408,0.896,0.706,3.646,0.802,4.162c0.213-0.715,0.038-5.212,0.038-5.212
				s0.83,2.283,1.031,1.89c1.066-2.104,0.782-1.508,2.657-2.899c2.969-2.201,10.848-3.016,14.402-3.512
				c14.712-2.057,29.719-1.955,44.558-2.088c13.351-0.118,22.958,6.875,29.405,18.598c3.606,6.557,4.658,11.09,4.843,18.561
				c0.032,1.289,0.437,4.824-0.095,6.127c-1.125-0.809-2.681-1.371-3.306-2.464c-6.209-10.851-15.541-17.326-27.647-19.812
				C244.112,1147.044,239.947,1146.865,235.844,1146.39z"/>
			<path fill="#FEECB2" d="M26.626,1166.82c-0.009,0-0.009,0.011-0.009,0.02c0-0.01,0-0.01,0-0.01L26.626,1166.82z"/>
			<path fill="#FEC202" d="M26.869,1165.312c-3.572,8.924,10.285-2.578,11.822-4.301c4.066-4.555,7.691-9.805,13.378-12.49
				c10.493-4.959,22.983-2.802,33.932-0.832c8.368,1.505,16.306,4.554,24.267,7.439c4.991,1.81,17.165,7.891,22.286,3.979
				c1.546-1.181,1.21-2.596,1.25-4.408c0.041-1.896,0-3.777,0-5.671c-0.047-0.742-0.093-1.484-0.137-2.227
				c-0.019-0.357-0.046-0.715-0.064-1.071c-0.055-0.376-0.11-0.752-0.156-1.128c-0.019-0.137-0.037-0.274-0.046-0.411
				c-0.064-0.303-0.119-0.605-0.173-0.907c-0.02-0.139-0.047-0.276-0.064-0.413c-0.056-0.229-0.101-0.458-0.156-0.688
				c-0.019-0.138-0.045-0.274-0.064-0.412c-0.853-3.5-1.21-5.342-2.071-8.843c-0.037-0.137-0.614-0.778-0.78-0.889
				c0.678,2.842,0.78,3.611,1.127,5.489c0.138,0.715,1.329,7.468,1.219,7.963c0,0-1.127-4.399-1.238-4.802
				c-0.136-0.485-1.135-6.185-1.868-6.973c-0.339-0.366,1.989,9.877,1.649,10.638c-0.249-0.559-2.73-11.17-3.647-11.756
				c0.156,0.742,1.889,6.358,1.852,9.181c-0.174-0.128-1.017-2.639-1.109-2.978c-0.276-0.962-0.432-2.941-0.395-3.655
				c0,0-0.586,2.254-0.834,2.767c-0.375-0.513-0.255-5.003-0.255-5.003l-0.522,3.225c-0.605-1.468-0.604-3.091-2.219-3.771
				c-1.35-0.57-2.893-0.449-4.317-0.639c-2.336-0.312-4.688-0.498-7.034-0.717c-13.738-1.274-27.156-4.714-41.055-4.59
				c-8.766,0.078-19.872-1.581-26.308,5.963c-4.698,5.506-9.565,12.146-12.428,18.844L26.869,1165.312z"/>
		</g>
		<g id="Lunettes_xA0_Image_1_">
			<g>
				<path fill="#424242" d="M80.963,1144.533c12.274,0.096,22.141,1.232,31.917,3.149c8.211,1.609,16.426,3.229,24.585,5.089
					c11.899,2.711,23.674,2.241,35.498-0.528c8.635-2.021,17.333-3.796,26.049-5.428c8.902-1.664,17.913-2.477,26.962-2.884
					c10.435-0.471,20.794,0.426,31.137,1.584c11.94,1.337,23.867,2.806,35.796,4.225c2.035,0.242,2.459,0.678,2.5,2.752
					c0.097,4.74,0.157,9.482,0.199,14.224c0.016,1.657-0.44,2.172-2.025,2.321c-1.871,0.178-3.303,1.07-4.42,2.558
					c-1.348,1.796-2.147,3.848-2.6,6.025c-1.317,6.334-2.534,12.688-3.898,19.012c-0.862,3.994-1.683,8.027-2.961,11.892
					c-1.646,4.968-3.634,9.852-6.809,14.074c-4.322,5.744-9.828,9.914-16.551,12.423c-6.378,2.38-13.004,3.368-19.747,3.699
					c-7.806,0.385-15.589,0.203-23.296-1.265c-6.809-1.295-13.319-3.443-18.989-7.607c-2.444-1.795-4.672-3.896-6.958-5.904
					c-2.676-2.35-4.485-5.408-6.543-8.271c-2.714-3.774-4.544-8.013-6.615-12.136c-2.749-5.474-4.685-11.254-6.685-17.022
					c-0.768-2.211-1.663-4.383-2.629-6.513c-1.906-4.207-5.369-6.001-9.777-6.242c-4.458-0.245-7.892,1.625-10.452,5.232
					c-0.748,1.053-1.465,2.165-1.979,3.348c-1.6,3.665-3.097,7.376-4.63,11.071c-1.136,2.736-2.116,5.554-3.433,8.197
					c-2.025,4.063-4.106,8.118-6.495,11.968c-1.813,2.922-3.954,5.692-6.274,8.228c-7.481,8.181-16.75,13.247-27.464,15.717
					c-7.585,1.75-15.263,2.394-23.009,2.025c-7.783-0.369-15.284-2.058-22.392-5.402c-4.984-2.346-9.381-5.421-13.137-9.538
					c-3.326-3.647-5.23-7.939-6.717-12.562c-3.245-10.088-4.965-20.507-6.832-30.9c-0.292-1.629-0.663-3.258-1.166-4.831
					c-0.992-3.096-3.032-5.185-6.154-6.134c-1.62-0.492-2.159-1.105-2.143-2.674c0.049-4.343,0.161-8.685,0.247-13.027
					c0.001-0.073,0.01-0.146,0.016-0.217c0.286-3.398,1.027-4.064,4.347-4.386c7.579-0.731,15.147-1.587,22.729-2.307
					c9.361-0.888,18.724-1.771,28.099-2.493C73.249,1144.689,78.26,1144.641,80.963,1144.533z M133.75,1170.671
					c-0.675-3.968-3.437-6.882-6.583-9.392c-5.652-4.508-12.214-6.878-19.043-8.597c-9.458-2.379-19.095-3.218-28.827-2.775
					c-3.037,0-6.076-0.083-9.11,0.018c-5.579,0.184-11.132,0.692-16.592,1.935c-4.402,1.003-8.543,2.651-12.184,5.4
					c-3.084,2.328-5.146,5.53-6.76,8.966c-0.973,2.069-1.575,4.353-2.092,6.598c-1.392,6.034-1.658,12.195-1.454,18.354
					c0.259,7.919,1.323,15.663,4.771,22.966c2.668,5.656,6.32,10.37,11.266,14.093c0.286,0.215,0.578,0.426,0.879,0.62
					c5.605,3.6,11.768,5.535,18.332,6.215c6.287,0.652,12.568,0.406,18.834-0.312c8.25-0.948,16.002-3.445,23.008-8.015
					c5.304-3.459,9.873-7.824,13.519-12.999c2.469-3.508,4.523-7.373,6.331-11.281c1.567-3.39,2.688-7.021,3.709-10.633
					c0.922-3.261,1.72-6.593,2.138-9.965C134.234,1179.088,134.218,1173.431,133.75,1170.671z M229.696,1149.225
					c-7.233-0.039-14.444,0.261-21.615,1.275c-6.538,0.925-12.939,2.345-19.022,5.058c-3.782,1.688-7.191,3.931-9.951,7.015
					c-3.898,4.356-4.996,9.675-4.452,15.383c0.818,8.609,2.446,17.024,5.915,25.008c1.86,4.286,3.95,8.385,6.808,12.119
					c3.011,3.933,6.451,7.344,10.434,10.218c0.867,0.626,1.819,1.134,2.734,1.693c6.141,3.756,12.873,5.742,19.932,6.6
					c10.811,1.313,21.555,1.231,32.08-2.083c6.25-1.968,11.454-5.504,15.405-10.826c2.213-2.979,3.654-6.394,4.921-9.842
					c1.702-4.637,2.432-9.527,2.915-14.438c0.756-7.719,1.183-15.456,0.545-23.205c-0.593-7.163-3.478-13.11-9.535-17.142
					c-3.719-2.473-7.921-3.825-12.252-4.742C246.355,1149.577,238.034,1149.29,229.696,1149.225z"/>
			</g>
		</g>
	</g>
	<text transform="matrix(1 0 0 1 815.2109 598.6953)" display="inline" font-family="'Quicksand-Light'" font-size="45">Web Developper</text>
	<g display="inline">
		<g>
			<g>
				<path fill="#FEBC12" d="M350.817,406.708v23.218H39.547c-6.751,0-12.213-5.152-12.213-11.521v-0.177
					c0-6.368,5.462-11.521,12.213-11.521H350.817z"/>
				<path fill="#C1BAAA" d="M463.333,418.229v0.177c0,6.368-5.462,11.521-12.212,11.521H350.817v-23.218h100.303
					C457.871,406.708,463.333,411.861,463.333,418.229z"/>
			</g>
			<g>
				<path fill="#C1BAAA" d="M463.333,456.926v0.177c0,6.368-5.462,11.521-12.212,11.521H350.817v-23.218h100.303
					C457.871,445.405,463.333,450.558,463.333,456.926z"/>
				<path fill="#FEBC12" d="M350.817,445.405H50.56H39.549c-6.751,0-12.213,5.152-12.213,11.521v0.177
					c0,6.368,5.462,11.521,12.213,11.521H50.56h300.257h62.118v-23.218H350.817L350.817,445.405z"/>
			</g>
			<g>
				<path fill="#FEBC12" d="M463.333,495.803c0,6.36-5.466,11.517-12.21,11.517H39.542c-6.743,0-12.209-5.157-12.209-11.517v-0.185
					c0-6.361,5.466-11.518,12.209-11.518h411.58c6.744,0,12.21,5.157,12.21,11.518V495.803z"/>
				<line fill="none" x1="310.968" y1="507.32" x2="310.968" y2="484.103"/>
				<path fill="#C1BAAA" d="M310.968,484.103h140.154c6.744,0,12.21,5.156,12.21,11.517v0.185c0,6.361-5.466,11.517-12.21,11.517
					H310.968"/>
			</g>
			<g>
				<path fill="#FEBC12" d="M463.333,534.5c0,6.36-5.466,11.518-12.21,11.518H39.542c-6.743,0-12.209-5.157-12.209-11.518v-0.185
					c0-6.36,5.466-11.518,12.209-11.518h411.58c6.744,0,12.21,5.157,12.21,11.518V534.5z"/>
				<path fill="#C1BAAA" d="M343.785,522.799h109.967c5.291,0,9.581,5.157,9.581,11.517v0.185c0,6.36-4.29,11.518-9.581,11.518
					H343.785"/>
			</g>
			<g>
				<path fill="#FEBC12" d="M463.333,573.197c0,6.36-5.466,11.517-12.21,11.517H39.542c-6.743,0-12.209-5.156-12.209-11.517v-0.186
					c0-6.36,5.466-11.517,12.209-11.517h411.58c6.744,0,12.21,5.156,12.21,11.517V573.197z"/>
				<path fill="#C1BAAA" d="M320.345,561.496h131.561c6.311,0,11.428,5.156,11.428,11.518v0.185c0,6.36-5.117,11.517-11.428,11.517
					H320.345"/>
			</g>
			<g>
				<path fill="#C1BAAA" d="M320.345,600.193h131.561c6.311,0,11.428,5.156,11.428,11.517v0.185c0,6.36-5.117,11.518-11.428,11.518
					H320.345"/>
				<path fill="#FEBC12" d="M43.611,600.193c-8.997,0-16.276,5.152-16.276,11.521v0.177c0,6.368,7.279,11.521,16.276,11.521h336.507
					v-23.218H43.611L43.611,600.193z"/>
			</g>
			<g>
				<line fill="none" x1="310.968" y1="662.107" x2="310.968" y2="638.89"/>
				<path fill="#C1BAAA" d="M463.333,650.409v0.177c0,6.368-5.462,11.521-12.212,11.521H310.968v-23.218h140.152
					C457.871,638.89,463.333,644.042,463.333,650.409z"/>
				<path fill="#FEBC12" d="M368.398,638.89v23.218H42.004c-8.108,0-14.669-5.152-14.669-11.521v-0.177
					c0-6.368,6.56-11.521,14.669-11.521H368.398L368.398,638.89z"/>
			</g>
		</g>
	</g>
	
		<image display="inline" overflow="visible" width="771" height="714" xlink:href="../../Screenshots/Screen Shot 2019-02-22 at 7.58.44 PM.png"  transform="matrix(0.7238 0 0 0.7238 2231.2812 218.0259)">
	</image>
	<rect x="1706.333" y="347.907" display="inline" fill="none" stroke="#F1C40F" stroke-miterlimit="10" width="210" height="38"/>
	<rect x="1706.333" y="398.907" display="inline" fill="none" stroke="#F1C40F" stroke-miterlimit="10" width="435" height="38"/>
	<rect x="1706.333" y="448.907" display="inline" fill="none" stroke="#F1C40F" stroke-miterlimit="10" width="435" height="123"/>
	<rect x="1930.333" y="347.907" display="inline" fill="none" stroke="#F1C40F" stroke-miterlimit="10" width="211" height="38"/>
	<rect x="2074.333" y="587.907" display="inline" fill="none" stroke="#F1C40F" stroke-miterlimit="10" width="67" height="20"/>
	<text transform="matrix(0.9983 0 0 1 1705.833 298.4072)" display="inline"><tspan x="0" y="0" font-family="'Quicksand-Regular'" font-size="22">Contactez</tspan><tspan x="102.408" y="0" font-family="'Quicksand-Light'" font-size="22">-moi !</tspan></text>
	<g display="inline">
		<path fill="#F1C40F" d="M2155.476,280.689c0,0.414-0.154,0.785-0.465,1.112c-0.31,0.327-0.672,0.491-1.086,0.491
			c-0.482,0-0.914-0.241-1.291-0.724l-7.911-10.236l-7.909,10.288c-0.31,0.414-0.724,0.62-1.241,0.62
			c-0.38,0-0.724-0.129-1.033-0.388c-0.312-0.259-0.466-0.595-0.466-1.008c0-0.378,0.12-0.706,0.361-0.982l8.479-10.856
			l-8.635-11.116c-0.206-0.276-0.31-0.586-0.31-0.931c0-0.414,0.162-0.775,0.49-1.085c0.328-0.311,0.699-0.466,1.112-0.466
			c0.518,0,0.932,0.225,1.241,0.673l8.065,10.391l7.755-10.391c0.343-0.448,0.774-0.673,1.291-0.673c0.447,0,0.802,0.13,1.061,0.388
			c0.258,0.258,0.388,0.577,0.388,0.957s-0.12,0.707-0.362,0.982l-8.375,11.012l8.479,11.012
			C2155.355,280.035,2155.476,280.345,2155.476,280.689z"/>
	</g>
	
		<line display="inline" fill="none" stroke="#F1C40F" stroke-miterlimit="10" x1="1705.833" y1="316.907" x2="1780.833" y2="316.907"/>
	<g display="inline">
		<g>
			<path fill="#E67E22" d="M1720.833,641.139c-3.865,0-7,3.1-7,7c0,1.3,0.402,2.6,1.094,3.7c0.033,0.1,0.059,0.1,0.094,0.2l4.344,8
				c0.203,0.6,0.781,1.1,1.438,1.1s1.202-0.5,1.406-1.1l4.844-8.7c0.499-1,0.781-2.101,0.781-3.2
				C1727.833,644.238,1724.698,641.139,1720.833,641.139z M1720.802,645.039c1.934,0,3.5,1.6,3.5,3.5c0,2-1.566,3.5-3.5,3.5
				s-3.5-1.5-3.5-3.5C1717.302,646.639,1718.868,645.039,1720.802,645.039z"/>
			<path fill="#F1C40F" d="M1720.833,640.17c-3.865,0-7,3.134-7,7c0,1.383,0.402,2.665,1.094,3.75
				c0.033,0.053,0.059,0.104,0.094,0.157l4.344,8.062c0.203,0.586,0.781,1.031,1.438,1.031s1.202-0.445,1.406-1.031l4.844-8.75
				c0.499-0.963,0.781-2.06,0.781-3.219C1727.833,643.304,1724.698,640.17,1720.833,640.17z M1720.802,644.139
				c1.934,0,3.5,1.567,3.5,3.5s-1.566,3.5-3.5,3.5s-3.5-1.567-3.5-3.5S1718.868,644.139,1720.802,644.139z"/>
		</g>
	</g>
	<g display="inline">
	</g>
	<g display="inline">
		<g>
			<g id="_x31_-Call">
			</g>
			<g id="_x32_-24_Hours_Call">
			</g>
			<g id="_x33_-Sending_Call">
			</g>
			<g id="_x34_-Incoming_Call">
			</g>
			<g id="_x35_-Talk_On_Phone">
			</g>
			<g id="_x36_-Block_Call">
			</g>
			<g id="_x37_-Hold_Call">
			</g>
			<g id="_x38_-Mute_Call">
			</g>
			<g id="_x39_-Phone_Book">
			</g>
			<g id="_x31_0-Add_Contact">
			</g>
			<g id="_x31_1-Delete_Contact">
			</g>
			<g id="_x31_2-Mail">
			</g>
			<g id="_x31_3-Message_Read">
			</g>
			<g id="_x31_4-Email">
			</g>
			<g id="_x31_5-Send_Mail">
			</g>
			<g id="_x31_6-Important_Mail">
			</g>
			<g id="_x31_7-Mail_Chain">
			</g>
			<g id="_x31_8-Messaging">
			</g>
			<g id="_x31_9-Sending">
			</g>
			<g id="_x32_0-Chat">
			</g>
			<g id="_x32_1-Mail_Attachment">
			</g>
			<g id="_x32_2-Mobile_Link">
			</g>
			<g id="_x32_3-Smartphone">
			</g>
			<g id="_x32_4-Social_Media">
			</g>
			<g id="_x32_5-Support">
			</g>
			<g id="_x32_6-Links">
			</g>
			<g id="_x32_7-Phone">
				<path fill="#E67E22" d="M1731.413,693.998l-3.158-2.207c-0.413-0.288-0.896-0.44-1.396-0.44c-0.797,0-1.543,0.391-1.999,1.045
					l-0.733,1.05c-1.229-0.824-2.601-1.975-3.908-3.281c-1.306-1.308-2.457-2.68-3.281-3.908l1.05-0.732
					c0.536-0.374,0.895-0.932,1.007-1.572c0.114-0.641-0.029-1.288-0.402-1.824l-2.207-3.158c-0.46-0.66-1.205-1.054-1.991-1.054
					c-0.272,0-0.54,0.048-0.794,0.141c-0.288,0.107-0.558,0.238-0.82,0.403l-0.437,0.308c-0.109,0.085-0.211,0.178-0.308,0.274
					c-0.533,0.532-0.911,1.206-1.124,2.002c-0.908,3.408,1.344,8.562,5.604,12.824c3.58,3.578,7.879,5.801,11.222,5.802l0,0
					c0.572,0,1.112-0.066,1.603-0.197c0.797-0.214,1.47-0.591,2.002-1.124c0.098-0.097,0.189-0.197,0.289-0.326l0.308-0.438
					c0.148-0.24,0.281-0.51,0.388-0.801C1732.697,695.778,1732.322,694.633,1731.413,693.998z"/>
			</g>
			<g id="_x32_8-Phone-2">
			</g>
			<g id="_x32_9-Map">
			</g>
			<g id="_x33_0-Location">
			</g>
			<g id="_x33_1-Write">
			</g>
			<g id="_x33_2-World">
			</g>
			<g id="_x33_3-Home">
			</g>
			<g id="_x33_4-Calendar">
			</g>
			<g id="_x33_5-Website">
			</g>
			<g id="_x33_6-Info">
			</g>
			<g id="_x33_7-Bull_Horn">
			</g>
			<g id="_x33_8-Profile">
			</g>
			<g id="_x33_9-Quote__x26__Answer">
			</g>
			<g id="_x34_0-Notification">
			</g>
			<g id="_x34_1-Share">
			</g>
			<g id="_x34_2-Time">
			</g>
		</g>
		<g>
			<g id="_x31_-Call_1_">
			</g>
			<g id="_x32_-24_Hours_Call_1_">
			</g>
			<g id="_x33_-Sending_Call_1_">
			</g>
			<g id="_x34_-Incoming_Call_1_">
			</g>
			<g id="_x35_-Talk_On_Phone_1_">
			</g>
			<g id="_x36_-Block_Call_1_">
			</g>
			<g id="_x37_-Hold_Call_1_">
			</g>
			<g id="_x38_-Mute_Call_1_">
			</g>
			<g id="_x39_-Phone_Book_1_">
			</g>
			<g id="_x31_0-Add_Contact_1_">
			</g>
			<g id="_x31_1-Delete_Contact_1_">
			</g>
			<g id="_x31_2-Mail_1_">
			</g>
			<g id="_x31_3-Message_Read_1_">
			</g>
			<g id="_x31_4-Email_1_">
			</g>
			<g id="_x31_5-Send_Mail_1_">
			</g>
			<g id="_x31_6-Important_Mail_1_">
			</g>
			<g id="_x31_7-Mail_Chain_1_">
			</g>
			<g id="_x31_8-Messaging_1_">
			</g>
			<g id="_x31_9-Sending_1_">
			</g>
			<g id="_x32_0-Chat_1_">
			</g>
			<g id="_x32_1-Mail_Attachment_1_">
			</g>
			<g id="_x32_2-Mobile_Link_1_">
			</g>
			<g id="_x32_3-Smartphone_1_">
			</g>
			<g id="_x32_4-Social_Media_1_">
			</g>
			<g id="_x32_5-Support_1_">
			</g>
			<g id="_x32_6-Links_1_">
			</g>
			<g id="_x32_7-Phone_1_">
				<path fill="#F1C40F" d="M1731.901,693.51l-3.159-2.206c-0.413-0.289-0.896-0.44-1.397-0.44c-0.795,0-1.542,0.391-1.997,1.044
					l-0.734,1.051c-1.229-0.824-2.6-1.976-3.908-3.282c-1.306-1.308-2.457-2.678-3.281-3.907l1.05-0.733
					c0.536-0.372,0.895-0.932,1.008-1.572s-0.029-1.288-0.403-1.823l-2.206-3.158c-0.461-0.66-1.207-1.055-1.992-1.055
					c-0.271,0-0.54,0.048-0.794,0.143c-0.288,0.105-0.557,0.237-0.821,0.402l-0.436,0.308c-0.109,0.085-0.21,0.177-0.308,0.274
					c-0.532,0.532-0.91,1.205-1.123,2.001c-0.909,3.408,1.343,8.562,5.604,12.824c3.578,3.579,7.879,5.802,11.221,5.802l0,0
					c0.572,0,1.111-0.066,1.604-0.197c0.796-0.213,1.47-0.591,2.001-1.123c0.098-0.097,0.189-0.198,0.29-0.325l0.307-0.439
					c0.149-0.239,0.281-0.509,0.388-0.8C1733.185,695.291,1732.81,694.146,1731.901,693.51z"/>
			</g>
			<g id="_x32_8-Phone-2_1_">
			</g>
			<g id="_x32_9-Map_1_">
			</g>
			<g id="_x33_0-Location_1_">
			</g>
			<g id="_x33_1-Write_1_">
			</g>
			<g id="_x33_2-World_1_">
			</g>
			<g id="_x33_3-Home_1_">
			</g>
			<g id="_x33_4-Calendar_1_">
			</g>
			<g id="_x33_5-Website_1_">
			</g>
			<g id="_x33_6-Info_1_">
			</g>
			<g id="_x33_7-Bull_Horn_1_">
			</g>
			<g id="_x33_8-Profile_1_">
			</g>
			<g id="_x33_9-Quote__x26__Answer_1_">
			</g>
			<g id="_x34_0-Notification_1_">
			</g>
			<g id="_x34_1-Share_1_">
			</g>
			<g id="_x34_2-Time_1_">
			</g>
		</g>
	</g>
	<g display="inline">
		<g>
			<path fill="#E67E22" d="M1721.833,718.37c-5.366,0-9.732,4.366-9.732,9.732s4.366,9.732,9.732,9.732
				c1.967,0,3.859-0.582,5.474-1.684c0.555-0.38,0.698-1.137,0.319-1.691c-0.378-0.557-1.133-0.695-1.69-0.32
				c-1.21,0.826-2.628,1.262-4.103,1.262c-4.025,0-7.299-3.273-7.299-7.299s3.273-7.299,7.299-7.299s7.299,3.273,7.299,7.299v0.608
				c0,0.671-0.545,1.217-1.216,1.217s-1.217-0.546-1.217-1.217v-3.649c0-0.673-0.544-1.217-1.217-1.217
				c-0.536,0-0.979,0.353-1.14,0.838c-0.706-0.521-1.568-0.838-2.51-0.838c-2.348,0-4.258,1.91-4.258,4.258s1.91,4.258,4.258,4.258
				c1.271,0,2.402-0.571,3.183-1.459c0.667,0.881,1.714,1.459,2.9,1.459c2.013,0,3.649-1.637,3.649-3.649v-0.608
				C1731.565,722.736,1727.199,718.37,1721.833,718.37z M1721.833,729.928c-1.006,0-1.824-0.819-1.824-1.825
				s0.818-1.825,1.824-1.825s1.825,0.819,1.825,1.825S1722.839,729.928,1721.833,729.928z"/>
		</g>
		<g>
			<path fill="#F1C40F" d="M1722.321,717.882c-5.366,0-9.732,4.366-9.732,9.732s4.366,9.732,9.732,9.732
				c1.967,0,3.859-0.582,5.474-1.684c0.555-0.38,0.698-1.137,0.319-1.691c-0.378-0.557-1.133-0.695-1.69-0.32
				c-1.21,0.826-2.628,1.262-4.103,1.262c-4.025,0-7.299-3.273-7.299-7.299s3.273-7.299,7.299-7.299s7.299,3.273,7.299,7.299v0.608
				c0,0.671-0.545,1.217-1.216,1.217s-1.217-0.546-1.217-1.217v-3.649c0-0.673-0.544-1.217-1.217-1.217
				c-0.536,0-0.979,0.353-1.14,0.838c-0.706-0.521-1.568-0.838-2.51-0.838c-2.348,0-4.258,1.91-4.258,4.258s1.91,4.258,4.258,4.258
				c1.271,0,2.402-0.571,3.183-1.459c0.667,0.881,1.714,1.459,2.9,1.459c2.013,0,3.649-1.637,3.649-3.649v-0.608
				C1732.054,722.248,1727.688,717.882,1722.321,717.882z M1722.321,729.439c-1.006,0-1.824-0.819-1.824-1.825
				s0.818-1.825,1.824-1.825s1.825,0.819,1.825,1.825S1723.327,729.439,1722.321,729.439z"/>
		</g>
	</g>
	<path display="inline" fill="none" stroke="#E67E22" stroke-width="3" stroke-miterlimit="10" d="M2166.331,269.907
		c0,20.556,0,20-17.024,20h-8.946c-16.9,0-16.9,0.556-17.025-20l0,0c0.125-20.556,0.125-20,17.025-20h8.946
		C2166.331,249.907,2166.331,249.352,2166.331,269.907L2166.331,269.907z"/>
</g>
<g id="Layer_2" display="none">
	<g display="inline">
		<path fill="#F39C12" d="M-96.125,41.72c-4.416,0-8.001,3.586-8.001,8v12v8v8.001v8v12c0,4.422,3.585,8,8.001,8h36h36
			c4.422,0,8.001-3.578,8.001-8V69.72v-8v-12c0-4.414-3.579-8-8.001-8h-36H-96.125z"/>
		<path fill="#E67E22" d="M-96.125,105.721c-2.407,0-4.532-1.2-6.001-2.801c1.227-4,6.961-10.399,15.876-20
			c24.642-27.199,24.632-27.199,50.755-0.8c10.359,10.801,16.523,17.207,17.121,20.801c-1.46,1.601-3.477,2.801-5.75,2.801h-36
			H-96.125L-96.125,105.721z"/>
		<path fill="#F1C40F" d="M-96.125,41.72c-2.407,0-4.532,0.801-6.001,2.398c1.227,4,6.961,10.402,15.876,20
			c24.642,27.204,24.632,27.602,50.755,0.801c10.359-10.399,16.523-16.801,17.121-20.801c-1.46-1.598-3.477-2.398-5.75-2.398h-36
			H-96.125L-96.125,41.72z"/>
	</g>
</g>
<g id="Layer_3">
	<path fill="#F39C12" d="M8.001,43.053c-4.416,0-8.001,3.586-8.001,8v12v8v8.001v8v12c0,4.422,3.585,8,8.001,8h36h36
		c4.422,0,8.001-3.578,8.001-8V71.053v-8v-12c0-4.414-3.579-8-8.001-8h-36H8.001z"/>
	<path fill="#E67E22" d="M8.001,107.054c-2.407,0-4.532-1.2-6.001-2.801c1.227-4,6.961-10.399,15.876-20
		c24.642-27.199,24.632-27.199,50.755-0.8c10.359,10.801,16.523,17.207,17.121,20.801c-1.46,1.601-3.477,2.801-5.75,2.801h-36H8.001
		L8.001,107.054z"/>
	<path fill="#F1C40F" d="M68.63,19.854C42.508-6.947,42.517-6.549,17.875,20.655C8.961,30.252,3.226,41.452,2,45.452
		c1.227,4,6.961,10.402,15.876,20c24.642,27.204,24.632,27.602,50.755,0.801C78.99,55.854,85.154,49.452,85.751,45.452
		C85.154,41.452,78.99,30.252,68.63,19.854z"/>
</g>
</svg>
