<?xml version="1.0" encoding="utf-8"?>
<!-- Generator: Adobe Illustrator 16.0.0, SVG Export Plug-In . SVG Version: 6.00 Build 0)  -->
<!DOCTYPE svg PUBLIC "-//W3C//DTD SVG 1.1//EN" "http://www.w3.org/Graphics/SVG/1.1/DTD/svg11.dtd">
<svg version="1.1" id="Layer_1" class="envelope-svg" xmlns="http://www.w3.org/2000/svg" xmlns:xlink="http://www.w3.org/1999/xlink" x="0px" y="0px"
	 width="50px" height="35px" viewBox="-14.959 -97.688 88.002 64.002"
	 enable-background="new -14.959 -97.688 88.002 64.002" xml:space="preserve">
<g id="Layer_1_1_" display="none">
	<rect x="1750" y="85" display="inline" fill="#878686" width="526" height="676"/>
	<g display="inline">
		<path fill="#E6E6E6" d="M0,1c0,0,16.241,63,85.918,107s122.457,40,122.457,40s845.781,13,925.281,13S1325,201,1365,301.4V765H0V1z
			"/>
	</g>
	<g display="inline">
		<path fill="#FDC000" d="M1367,1538c0,0-16.211,63-85.889,107s-122.441,40-122.441,40s-845.806,13-925.305,13
			C153.865,1698,42,1738,2,1838.4V2302h1365V1538z"/>
	</g>
	<g display="inline">
		<rect x="-350.5" y="-0.5" fill="none" stroke="#000000" width="217" height="217"/>
		<line fill="none" stroke="#000000" x1="-349.274" y1="215.331" x2="-133.97" y2="0.027"/>
		<line fill="none" stroke="#000000" x1="-349.274" y1="0.027" x2="-133.97" y2="215.331"/>
	</g>
	<rect x="-303.5" y="401.5" display="inline" fill="none" stroke="#000000" width="140" height="140"/>
	<rect x="-303" y="234" display="inline" fill="#E0E0E0" width="140" height="140"/>
	<rect x="698.5" y="345.058" display="inline" fill="none" width="556.995" height="77.884"/>
	<text transform="matrix(1 0 0 1 698.4993 400.5566)" display="inline" font-family="'Quicksand-Regular'" font-size="75">NICOLAS HOOG</text>
	<g display="inline">
		<path fill="#FDC000" d="M138.029,1228.712l-14.987-27.614c-1.671,1.952-3.354,3.894-5.033,5.838l0.018-0.021
			c-1.106,1.324-2.214,2.65-3.319,3.977l0.017-0.021c-0.896,1.022-1.792,2.048-2.687,3.073l-1.316,1.524
			c-3.269,4.184-6.951,8.003-10.518,11.927c0,0.001,0.016-0.021,0.016-0.021c-1.767,2.059-3.532,4.116-5.297,6.175l0.017-0.021
			c-1.105,1.326-2.213,2.65-3.318,3.978l0.017-0.021c-0.373,0.445-0.746,0.894-1.121,1.34l0.019-0.021l-2.213,2.663l0.018-0.021
			c-0.37,0.448-0.743,0.896-1.114,1.343l0.017-0.021c-1.397,1.619-2.797,3.239-4.194,4.858l0.017-0.021
			c-0.237,0.272-0.475,0.544-0.712,0.815c-0.313,0.399-0.654,0.781-0.938,1.201c-4.64,6.854-9.052,13.847-13.127,21.052
			c-0.225,0.492-0.43,0.995-0.675,1.478c-2.643,5.215-6.312,10.029-7.934,15.614c-3.906,13.436-6.927,27.105-7.697,41.167
			l-0.005,1.312c0,1.694,0,3.389-0.001,5.081c0.001,0.587,0.004,1.169,0.007,1.753c0.206,5.417,0.479,10.822,1.367,16.188
			c3.714,22.449,11.219,43.196,27.341,59.927c4.258,4.418,8.206,9.234,13.754,12.327c9.638,5.37,20.069,8.778,30.521,11.866
			c6.332,1.87,9.854,5.376,12.357,11.156c4.045,9.33,4.644,19.104,4.341,28.953c-0.276,8.951-1.284,17.877-2.005,26.812
			c-0.058,0.716,0.229,1.021,0.751,1.396c3.464,2.485,7.157,2.084,10.942,0.995c0.783-0.226,1.087-0.609,1.241-1.408
			c1.601-8.271,1.556-16.672,2.049-25.032c0.729-12.38-1.271-24.211-6.806-35.373c-0.096-0.191-0.146-0.406-0.215-0.61
			c0.244,0.013,0.497-0.01,0.733,0.041c2.145,0.464,4.271,1.037,6.433,1.398c10.449,1.74,21.047,1.919,31.574,2.828
			c9.807,0.849,19.633,1.818,29.462,0.393c15.55-2.26,30.67-6.286,45.554-11.254c0.396-0.132,0.821-0.167,1.236-0.246
			c-0.041,0.389-0.044,0.784-0.127,1.164c-0.716,3.284-1.429,6.567-2.176,9.845c-1.742,7.616-3.104,15.274-2.856,23.134
			c0.191,6.202-0.261,12.428-1.337,18.465c-2.422,13.562-3.699,27.317-6.97,40.731c-0.15,0.621-0.066,1.097,0.497,1.534
			c3.406,2.634,7.7,3.48,11.208,1.883c0.314-0.145,0.513-0.479,0.608-0.812c3.495-12.192,6.976-24.328,8.044-37.123
			c0.821-9.812,2.91-19.515,3.076-29.428c0.192-11.356,2.623-22.425,4.645-33.539c0.132-0.722,0.459-1.024,1.135-1.25
			c2.777-0.93,5.628-1.722,8.276-2.938c19.488-8.972,39.393-16.982,59.296-24.922c16.816-6.709,31.817-16.046,46.496-26.396
			c10.21-7.194,18.419-15.955,25.926-25.776c9.258-12.115,10.479-26.563,12.92-40.68c1.021-5.919,2.204-11.55,5.991-16.456
			c2.515-3.26,5.245-6.297,7.94-9.385c4.954-5.67,10.214-11.113,13.026-18.342c4.356-11.195,5.695-22.854,5.67-34.749
			c-0.074-0.54-0.169-1.081-0.218-1.623c-0.362-4.069-1.558-7.786-4.413-10.854c-4.174-4.483-21.523-13.823-23.006-17.812
			c-1.369-3.687-2.527-7.511-4.911-10.728c-4.791-6.466-10.302-12.258-16.398-17.522c-7.176-6.201-13.226-13.721-21.791-18.301
			c-2.644-1.412-5.194-3.066-8.073-3.849c-1.133-0.309-2.272-0.579-3.417-0.837c-0.021,0.017-0.031,0.036-0.053,0.054
			c-4.32,3.683-6.64,8.888-9.122,13.876c-2.445,4.911-4.094,10.594-4.687,16.1c-0.082,0.765,0.653,1.113,1.087,1.365
			c9.779,5.714,13.146,15.033,14.491,25.531c1.792,13.957-1.485,27.166-6.072,40.13c-3.928,11.104-9.516,21.359-16.739,30.694
			c-0.002,0.005-0.006,0.01-0.006,0.01l0.001-0.001c-6.062,7.94-12.374,15.657-19.816,22.377c-3.558,3.211-6.969,6.581-10.767,9.518
			c0,0.001,0.023-0.018,0.023-0.018c-4.549,4.296-9.058,8.64-14.312,12.103c-1.544,1.245-3.086,2.491-4.631,3.737l0.021-0.016
			c-0.666,0.52-1.331,1.042-1.998,1.562c0,0.001,0.022-0.018,0.022-0.018c-0.301,0.226-0.601,0.452-0.899,0.68l0.021-0.019
			c-8.558,6.05-16.375,13.041-24.712,19.377c-14.274,10.851-27.926,22.466-40.338,35.412c-6.763,7.052-12.578,14.963-18.073,23.069
			c-0.111,0.166-0.307,0.277-0.464,0.414c-1.701,3.522-3.851,6.755-6.076,9.977c-1.53,2.213-2.397,4.903-3.416,7.438
			c-0.341,0.845-0.696,1.165-1.593,1.245c-13.432,1.192-26.802,0.874-40.145-1.217c-9.437-1.479-18.773-3.421-28.094-5.462
			c-0.883-0.193-1.776-0.497-2.564-0.937c-6.81-3.794-13.85-7.245-20.337-11.533c-15.072-9.966-26.935-22.798-33.756-39.857
			c-4.614-11.546-6.581-23.538-6.796-35.917c-0.232-13.521,1.37-26.738,5.76-39.567c0.117-0.341,0.378-0.981,0.378-0.981
			c0.375-1.12,0.749-2.241,1.126-3.362c0.057-0.2,0.113-0.401,0.169-0.604c0.163-0.371,0.325-0.741,0.489-1.112
			c0-0.002-0.017,0.021-0.017,0.021c0.153-0.373,0.308-0.745,0.461-1.119l-0.015,0.021c0.227-0.528,0.451-1.056,0.676-1.585
			c0.047-0.135,0.092-0.271,0.136-0.406c0.905-1.775,1.812-3.551,2.717-5.326c1.349-1.661,2.696-3.324,4.044-4.985
			c0.193-0.238,0.386-0.477,0.58-0.713l3.237-3.928c0.241-0.299,0.483-0.599,0.727-0.897c0.113-0.141,0.228-0.282,0.341-0.425
			c0.251-0.303,0.501-0.605,0.752-0.907c0.045-0.062,0.09-0.129,0.134-0.188c0.248-0.303,0.498-0.604,0.746-0.907
			c0.274-0.354,0.548-0.713,0.821-1.068c0.237-0.312,0.475-0.624,0.71-0.937c0.208-0.272,0.415-0.548,0.623-0.819
			c0.234-0.307,0.469-0.611,0.703-0.917c0.783-1.089,1.569-2.179,2.353-3.267c0.32-0.438,0.638-0.879,0.957-1.316
			c1.218-1.688,2.435-3.376,3.65-5.062l0.716-0.903l-0.018,0.021c3.025-3.646,6.809-6.499,10.251-9.705
			c2.375-2.214,4.913-4.253,7.378-6.369l-0.021,0.018C134.278,1231.775,138.029,1228.712,138.029,1228.712z M135.45,1423.704
			c-0.475,1.207-1.755,1.127-2.638,1.354c-0.587-0.063-0.98,0.027-1.316-0.444c-2.259-3.197-6.133-4.058-9.594-2.175
			c-0.908,0.493-0.775,1.351-0.631,2.134c0.089,0.482,0.451,0.911,0.604,1.392c0.283,0.897,1.977,1.328,1.093,2.521
			c-0.886,1.196-2.152,0.279-3.136-0.02c-2.18-0.66-3.956-2.016-4.156-4.438c-0.181-2.224,0.769-4.112,2.69-5.426
			c3.5-2.388,12.396-2.753,16.117,1.814C135.281,1421.396,135.942,1422.452,135.45,1423.704z M301.666,1387.007
			c-1.572,0.907-3.357,1.09-5.021,0.13c-1.346-0.776-1.518-2.144-1.46-3.553c0.031-0.771,0.416-1.334,1.102-1.642
			c4.852-2.185,4.349-8.837,1.628-11.869c-2.083-2.319-3.812-0.505-5.447,0.755c-1.036,0.799-2.031,1.512-3.2,0.494
			c-1.229-1.069-1.521-2.588-0.911-4.021c1.48-3.468,4.46-4.776,7.987-5.31c2.833-0.429,4.319,1.366,5.783,3.222
			c2.157,2.735,4.302,9.029,4.349,13.248C306.244,1381.521,305.214,1384.961,301.666,1387.007z"/>
		<path fill="none" d="M306.473,1378.462c-0.229,3.06-1.259,6.499-4.807,8.545c-1.572,0.907-3.357,1.09-5.021,0.13
			c-1.346-0.776-1.518-2.144-1.46-3.553c0.031-0.771,0.416-1.334,1.102-1.642c4.852-2.185,4.349-8.837,1.628-11.869
			c-2.083-2.319-3.812-0.505-5.447,0.755c-1.036,0.799-2.031,1.512-3.2,0.494c-1.229-1.069-1.521-2.588-0.911-4.021
			c1.48-3.468,4.46-4.776,7.987-5.31c2.833-0.428,4.319,1.367,5.783,3.222C304.281,1367.949,306.426,1374.24,306.473,1378.462z"/>
		<path fill="none" d="M132.813,1425.059c-0.587-0.063-0.98,0.026-1.316-0.445c-2.259-3.197-6.133-4.058-9.594-2.176
			c-0.908,0.495-0.775,1.352-0.631,2.135c0.089,0.481,0.451,0.91,0.604,1.392c0.283,0.897,1.977,1.328,1.093,2.521
			c-0.886,1.197-2.152,0.28-3.136-0.019c-2.18-0.66-3.956-2.016-4.157-4.438c-0.181-2.223,0.769-4.11,2.69-5.425
			c3.5-2.388,12.396-2.753,16.117,1.814c0.797,0.978,1.458,2.034,0.968,3.286C134.977,1424.911,133.697,1424.829,132.813,1425.059z"
			/>
		<path fill="#FFCD50" d="M436.263,1201.931c4.276,2.47,27.723,20.354,30.024,22.235c4.388,4.508,6.739,12.652,6.874,19.289
			c0.285,14.211-37.71,56.394-39.817,58.771c0.772-2.232-0.768-2.265,0.369-4.655C452.36,1258.33,444.18,1213.542,436.263,1201.931z
			"/>
		<path fill="#FFCD50" d="M364.905,1192.153l3.273-9.522c9.8,0,8.467,7.548,13.691,11.002c2.974,12.665,4.213,30.217,1.053,42.141
			c-1.852,6.977-7.006,32.718-13.744,39.625c-5.58,5.717-57.918,55.55-62.708,59.916c54.118-75.484,72.189-93.064,54.118-133.068
			L364.905,1192.153z"/>
		<g id="Layer_3_xA0_Image_2_">
			<path fill="#FDC000" d="M112.242,1175.318c-3.714-11.643-6.709-23.437-7.971-35.635c-0.505-4.876-1.588-9.694-2.012-14.574
				c-1.174-13.485-3.171-26.896-3.256-40.482c-0.059-9.396-0.407-18.814-2.402-28.061c-1.592-7.375-3.101-14.769-4.29-22.22
				c-0.463-2.912-0.58-5.841,0.783-8.616c1.053-2.148,2.363-2.812,4.634-2.1c1.179,0.371,2.276,0.992,3.414,1.498
				c0.258,0.115,0.582,0.376,0.771,0.302c0.375-0.146,0.188-0.581,0.16-0.879c-0.513-5.134-1.041-10.271-1.567-15.403
				c-0.862-8.415-1.716-16.83-2.59-25.242c-0.72-6.904-0.439-13.926-2.038-20.717c-1.2-5.092-3.179-10.006-4.252-15.115
				c-1.91-9.094-3.623-18.235-4.326-27.537c-0.705-9.312-0.331-18.495,3.161-27.265c1.614-4.056,7.8-13.189,11.205-16.595
				c0.973-0.973-3.254,1.471-3.254,1.471c1.528-2.017,3.27-3.896,5.294-5.586c1.682-1.403,3.428-2.831,5.364-3.809
				c3.356-1.689,5.809-4.627,9.155-6.284c0.759-0.375,0.279-0.846,0.034-1.265c-2.544-4.357-4.59-8.847-4.114-14.1
				c0.311-3.413,0.979-6.742,2.046-9.989c2.411-7.335,5.135-14.575,10.022-20.654c0,0-1.896,10.826-0.286,6.683
				c4.328-11.127,9.621-17.181,18.334-20.714c3.588-1.454,7.216-2.945,11.091-3.96c7.005-1.833,13.84-4.35,21.097-5.209
				c6.912-0.816,13.815-1.731,20.796-0.981c2.38,0.256,10.745,2.592,13.132,2.336c5.698-0.609,11.992-3.341,17.204-6.253
				c4.035-2.254,8.815-2.626,13.219-4.001c12.922-4.038,24.798-1.263,36.017,5.655c0.285,0.175,1.642,1.27,1.898,0.72
				c0.366-0.776,0.859-1.183,0.859-1.183s-0.275,2.059,1.571,2.418c3.417,0.667,4.152,0.716,7.811-0.012
				c0.38-0.076,3.76-1.183,4.127-1.174c-1.366,3.265-5.26,2.577-1.673,3.907c9.752,3.612,19.063,8.132,28.343,12.769
				c12.369,6.184,24.384,12.983,36.012,20.464c6.679,4.297,11.387,10.537,16.413,16.531c7.02,8.374,10.538,18.46,14.669,28.247
				c1.432,3.395,2.59,6.87,3.523,10.404c0.466,1.764-3.126-4.027-2.768-2.237c0.764,3.806,6.809,18.937,6.077,33.606
				c-0.372,7.427,0.555,14.867,0.093,22.305c-0.498,7.974-1.507,15.853-3.329,23.663c-0.764,3.283-0.23,6.854-0.434,10.288
				c-0.364,6.233-1.705,12.311-2.999,18.406c-2.291,10.788-4.335,21.624-4.906,32.682c-0.083,1.601,0.241,2.115,1.746,1.219
				c0.342-0.203,0.718-0.347,1.079-0.519c0.898-0.396,1.787-0.827,2.703-1.181c3.003-1.146,5.529,0.182,6.279,3.312
				c0.409,1.719,0.639,3.497,0.411,5.234c-1.001,7.612-2.067,15.215-3.174,22.812c-0.725,4.97-2.167,9.789-3.245,14.686
				c-1.534,6.973-2.196,13.965-1.922,21.134c0.412,10.833-0.541,21.657-0.834,32.487c-0.346,12.67-0.852,25.32-3.356,37.785
				c-1.225,6.092-1.622,12.31-4.212,18.188c-2.32,5.269-4.219,10.763-6.303,16.157c-0.218,0.438-0.993,2.271-1.211,2.711
				c-0.266,0.424-0.766,2.506-1.568,4.006c-0.433,0.812-1.888,4.058-2.187,5.065c0.148-0.134-4.172,8.18-5.132,11.109
				c-1.83,3.59-3.661,7.18-5.491,10.771c-2.311,3.146-4.028,6.625-5.727,10.117c-5.263,11.76-12.656,22.183-20.293,32.458
				c-3.92,5.278-8.342,10.074-13.058,14.667c-4.746,4.625-9.669,9.059-15.294,12.462c-7.393,4.474-15.686,6.179-24.32,6.7
				c-15.597,0.944-31.231,1.501-46.706,3.969c-3.762,0.6-7.573,0.515-11.387-0.043c-4.741-0.692-9.408-1.282-13.86-3.438
				c-5.057-2.445-9.739-5.316-14.076-8.865c-13.906-11.379-37.286-41.325-37.769-41.885c-5.847-6.793-13.042-17.385-17.681-25.534
				c-7.53-13.237-14.222-26.851-19.124-41.296C115.305,1182.399,113.79,1178.854,112.242,1175.318z M285.581,1171.27
				c-8.308-3.354-16.908-4.913-25.881-4.316c-8.646,0.574-17.237,1.915-25.973,0.918c-6.967-0.795-13.733,0.322-20.314,3.023
				c-7.719,3.172-14.592,7.783-21.723,11.967c-5.588,3.274-9.35,7.882-10.403,14.467c-0.403,2.521-0.316,5.035-0.298,7.561
				c0.045,5.865,0.938,11.493,4.006,16.665c4.399,7.423,10.12,13.535,17.067,18.657c5.314,3.917,10.969,5.346,17.375,3.928
				c1.041-0.229,2.236-0.438,2.538-1.634c0.315-1.257-0.074-2.474-1.016-3.423c-0.436-0.438-0.913-0.861-1.441-1.173
				c-1.324-0.781-2.666-1.539-4.043-2.219c-2.553-1.263-4.702-2.953-6.208-5.408c-1.208-1.968-1.165-6.423,0.109-7.888
				c2.319-2.672,4.879-2.842,7.779-0.457c0.707,0.583,1.395,0.934,2.356,0.939c7.768,0.078,15.534,0.014,23.299-0.216
				c8.854-0.262,17.612,1.011,26.416,1.547c4.906,0.3,9.882,0.761,14.519-1.716c3.071-1.642,5.883-0.171,6.325,3.246
				c0.209,1.614-0.021,3.187-0.714,4.714c-1.288,2.85-3.688,4.379-6.383,5.567c-1.941,0.857-3.532,2.074-4.514,3.991
				c-1.421,2.778-0.726,4.786,2.098,6.097c1.926,0.896,4.018,1.049,6.071,1.415c4.13,0.74,7.233-0.693,9.78-3.964
				c2.44-3.137,4.396-6.562,6.576-9.854c4.753-7.168,8.644-14.719,11.204-22.918c1.383-4.424,2.432-8.96,0.513-13.524
				c-0.835-1.988-1.714-3.992-2.848-5.818c-3.954-6.366-9.471-11.205-15.562-15.439
				C293.553,1174.237,285.853,1171.379,285.581,1171.27z M120.609,1137.714c0.16,0.328,0.326,0.652,0.479,0.984
				c1.71,3.801,3.093,7.771,5.304,11.319c5.981,9.599,13.21,18.256,20.468,26.89c4.408,5.241,8.777,10.523,11.562,16.884
				c0.543,1.944,1.499,3.711,2.431,5.48c0.249,0.476,0.447,1.319,1.084,1.19c0.516-0.104,0.229-0.901,0.271-1.382
				c0.103-1.201,0.18-2.406,0.163-3.609c-0.058-3.896,0.473-7.72,1.414-11.486c0.743-2.971,1.543-5.927,2.315-8.888
				c2.481-7.39,6.632-13.5,13.041-18.152c3.623-2.63,7.262-5.206,11.131-7.438c7.336-4.229,14.962-7.526,23.718-7.122
				c4.812,0.223,9.532,0.58,14.026,2.657c9.022,4.175,18.357,6.508,28.427,4.576c3.682-0.705,7.282-1.567,10.84-2.723
				c12.088-3.926,24.226-5.771,36.479-0.633c0.814,0.343,1.645,0.636,2.326,1.212c6.958,5.891,13.837,11.809,19.243,19.311
				c5.521,7.664,9.028,16.128,11.358,25.173c0.737,2.863,0.623,5.812,0.78,8.734c0.02,0.377,0.208,0.743,0.316,1.116
				c0.472-0.155,0.454-0.628,0.578-0.973c1.011-2.789,2.072-5.562,2.964-8.391c3.431-10.862,7.718-21.323,13.518-31.173
				c3.577-6.073,8.066-11.521,11.576-17.621c0.17-0.179,0.396-0.33,0.5-0.541c1.755-3.544,3.576-7.059,5.213-10.655
				c1.368-3.005,2.354-6.194,2.618-9.479c0.604-7.464,2.36-14.762,3.025-22.21c0.293-3.308,0.859-6.609,0.861-9.915
				c0-3.858-0.616-7.714-0.722-11.577c-0.184-6.67-1.781-13.185-2.043-19.84c-0.045-1.154-0.43-2.293-0.619-3.444
				c-1.457-8.89-2.902-17.781-4.356-26.672c-1.475-9.034-3.108-18.046-4.395-27.106c-1.145-8.056-2.391-16.091-3.751-24.109
				c-0.923-5.435-2.059-10.834-2.845-16.286c-1.561-10.842-3.153-21.675-6.272-32.206c-0.317-1.072-3.318-6.776-4.628-8.584
				c-6.125-8.453-13.535-15.233-23.612-18.761c-14.001-4.899-28.429-6.806-43.193-6.366c-7.372,0.219-14.704,0.854-21.722,3.422
				c-3.957,1.448-8.019,2.552-12.084,3.663c-7.921,2.168-15.749,2.502-23.685-0.088c-4.322-1.411-13.202-5.146-13.746-5.322
				c-6.056-2.434-12.179-4.735-18.559-6.123c-7.253-1.577-14.411-1.321-21.153,2.36c-2.925,1.598-5.925,3.062-8.907,4.554
				c-12.18,6.091-22.772,14.192-32.048,24.212c-4.776,5.161-7.249,11.037-7.923,17.771c-0.441,4.397-0.263,8.856-0.418,13.285
				c-0.359,10.246-1.103,20.426-2.803,30.585c-1.973,11.799-5.134,23.304-7.567,34.98c-0.067,0.083-0.181,0.159-0.197,0.252
				c-0.928,5.477-1.528,10.989-1.81,16.539c-0.21,4.122-0.207,8.275-0.752,12.354c-1.082,8.082-1.608,16.189-1.906,24.325
				c-0.124,3.361-0.14,6.735-0.481,10.074c-1,9.772,0.766,19.134,3.87,28.333c1.404,4.159,2.779,8.328,4.124,12.505
				C116.026,1128.501,118.101,1133.2,120.609,1137.714z"/>
			<path fill="#FEE697" d="M111.168,1173.229c1.547,3.534,3.062,7.082,4.154,10.791
				C113.745,1180.499,112.29,1176.929,111.168,1173.229z"/>
			<path fill="none" d="M200.482,946.289c-0.203-0.088-0.333-0.197-0.418-0.168c-0.102,0.034-0.166,0.186-0.246,0.286
				c0.097,0.076,0.205,0.223,0.286,0.209C200.214,946.601,200.301,946.457,200.482,946.289z"/>
			<path fill="#FEEEBA" d="M200.482,946.289c-0.182,0.168-0.269,0.312-0.377,0.328c-0.082,0.014-0.188-0.133-0.286-0.208
				c0.08-0.103,0.144-0.254,0.246-0.287C200.149,946.092,200.28,946.201,200.482,946.289z"/>
			<path fill="#FEC203" d="M274.1,1128.479c-0.934,0.521-1.979,0.803-3.022,0.991c-0.249,0.045-0.577,0.02-0.633-0.284
				c-0.072-0.375,1.616-0.708,2.2-0.936c0.875-0.341,3.648-1.594,2.978-3.643c-0.479-1.452-1.891-1.986-3.2-2.271
				c-2.612-0.569-4.988,0.537-7.353,1.443c-3.757,1.43-6.895,3.869-10.273,6.028c-5.12,3.272-11.334,3.362-17.327,0.294
				c-4.305-2.209-7.32-5.059-11.609-7.268c-1.987-1.035-4.142-1.703-6.46-1.099c-2.482,0.659-3.225,2.062-2.042,4.353
				c0.432,0.834,0.853,1.43,1.467,2.135c1.034,1.184,2.803,1.585,2.721,2.107c-0.063,0.431-0.688,0.247-1.045,0.165
				c-0.56-0.128-0.943-0.357-1.513-0.771c-1.851-1.228-2.903-3.006-3.27-5.121c-0.432-2.465,1.42-4.188,4.59-4.345
				c3.748-0.191,6.827,1.567,9.859,3.482c4.443,2.812,7.889,5.8,13.094,7.119c3.647,0.926,7.75-0.257,10.821-2.181
				c4.832-3.024,9.383-6.388,15.138-7.412c1.355-0.239,2.686-0.165,4.023,0.201c1.812,0.494,3.22,1.455,3.361,3.444
				C276.748,1126.918,275.529,1127.682,274.1,1128.479z"/>
			<path fill="#FFCD50" d="M194.017,834.792c-0.604,59.905,39.993,68.902,40.18,69.869c-10.151,0-18.453-6.597-26.475-7.726
				c-13.305-1.87-24.301,1.25-31.208,3.244c-12.199-0.838-24.297-8.231-33.079-15.9c-11.416-9.969-24.077-20.46-20.825-37.575
				c-2.609,13.078,15.161,37.163,42.214,37.447c-19.2-8.532-34.287-40.288-31.281-55.416c-2.119,10.876,27.931,46.842,38.239,52.843
				c-8.299-9.303-15.929-31.237-14.976-43.938c0.082,6.213,3.895,15.926,8.741,24.1l0.787,1.117
				c-1.869-3.619-2.805-7.312-2.64-11.556c0.901,3.781,3.036,8.157,4.344,11.775c2.555,7.077,11.358,19.568,13.009,21.444
				c-9.671-18.736-10.836-35.821-6.969-48.998c-0.553,23.404,15.604,53.796,24.919,55.321
				C194.111,885.349,185.958,843.964,194.017,834.792z"/>
		</g>
		<g id="From_selection_xA0_Image_1_">
			<path fill="#FEC202" d="M325.011,1006.982c-16.384,0.539-32.106,3.726-46.968,10.67c-3.208,1.499-6.076,3.801-9.364,5.025
				c-1.932,0.719-4.897,0.803-6.442-0.24c-1.277-0.861-1.966-4.007-1.513-5.78c1.901-7.438,4.317-14.748,6.596-22.087
				c0.142-0.457,0.744-0.771,1.132-1.152c-2.706,6.175-4.326,14.441-4.292,14.591c0.057,0.25,4.515-13.644,4.603-13.405
				c0.032,0.086-2.936,13.096-2.885,13.033c0.358-0.434,3.676-12.141,3.676-12.141s-0.771,6.799-0.654,7.702
				c1.762-5.184,1.793-6.968,1.724-8.085c0.407,0.896,0.706,3.646,0.802,4.162c0.213-0.716,0.038-5.212,0.038-5.212
				s0.83,2.282,1.031,1.89c1.065-2.104,0.781-1.508,2.656-2.899c2.97-2.2,10.849-3.016,14.402-3.512
				c14.712-2.057,29.719-1.955,44.558-2.088c13.352-0.118,22.958,6.875,29.405,18.598c3.605,6.558,4.658,11.091,4.843,18.562
				c0.032,1.289,0.438,4.824-0.095,6.127c-1.125-0.81-2.681-1.371-3.306-2.464c-6.21-10.852-15.541-17.326-27.647-19.812
				C333.279,1007.637,329.114,1007.458,325.011,1006.982z"/>
			<path fill="#FEECB2" d="M115.793,1027.413c-0.009,0-0.009,0.011-0.009,0.02c0-0.01,0-0.01,0-0.01L115.793,1027.413z"/>
			<path fill="#FEC202" d="M116.036,1025.904c-3.572,8.924,10.284-2.578,11.821-4.301c4.066-4.556,7.691-9.806,13.378-12.49
				c10.493-4.959,22.983-2.803,33.933-0.832c8.368,1.505,16.306,4.554,24.267,7.438c4.991,1.811,17.165,7.892,22.286,3.979
				c1.546-1.182,1.21-2.596,1.25-4.408c0.041-1.896,0-3.777,0-5.671c-0.047-0.742-0.093-1.484-0.137-2.228
				c-0.02-0.356-0.046-0.715-0.064-1.07c-0.055-0.376-0.109-0.752-0.156-1.128c-0.019-0.138-0.036-0.274-0.046-0.411
				c-0.063-0.303-0.119-0.605-0.173-0.907c-0.02-0.139-0.047-0.276-0.063-0.413c-0.057-0.229-0.102-0.458-0.156-0.688
				c-0.02-0.139-0.045-0.274-0.064-0.412c-0.853-3.5-1.21-5.342-2.07-8.843c-0.037-0.138-0.614-0.778-0.78-0.89
				c0.678,2.842,0.78,3.611,1.127,5.489c0.138,0.715,1.329,7.468,1.219,7.963c0,0-1.127-4.398-1.237-4.802
				c-0.137-0.485-1.136-6.186-1.868-6.973c-0.339-0.366,1.988,9.877,1.648,10.638c-0.249-0.56-2.729-11.17-3.646-11.756
				c0.156,0.741,1.889,6.357,1.852,9.181c-0.174-0.128-1.017-2.639-1.108-2.979c-0.276-0.962-0.433-2.94-0.396-3.654
				c0,0-0.586,2.254-0.834,2.767c-0.375-0.513-0.255-5.003-0.255-5.003l-0.522,3.225c-0.604-1.468-0.604-3.091-2.219-3.771
				c-1.35-0.57-2.893-0.449-4.316-0.639c-2.336-0.312-4.688-0.498-7.034-0.718c-13.738-1.273-27.156-4.714-41.056-4.59
				c-8.766,0.078-19.871-1.581-26.308,5.963c-4.698,5.507-9.564,12.146-12.428,18.845L116.036,1025.904z"/>
		</g>
		<g id="Lunettes_xA0_Image_1_">
			<g>
				<path fill="#424242" d="M170.13,1005.126c12.273,0.096,22.141,1.232,31.917,3.149c8.211,1.608,16.426,3.229,24.585,5.089
					c11.898,2.711,23.674,2.241,35.498-0.528c8.635-2.021,17.333-3.796,26.049-5.428c8.902-1.664,17.913-2.478,26.962-2.884
					c10.435-0.472,20.794,0.426,31.137,1.584c11.94,1.337,23.867,2.806,35.796,4.225c2.035,0.242,2.459,0.678,2.5,2.752
					c0.098,4.74,0.157,9.482,0.199,14.224c0.016,1.657-0.44,2.172-2.025,2.321c-1.87,0.178-3.303,1.07-4.42,2.558
					c-1.348,1.797-2.146,3.849-2.6,6.025c-1.317,6.334-2.534,12.688-3.898,19.012c-0.861,3.994-1.683,8.027-2.961,11.893
					c-1.646,4.968-3.634,9.852-6.809,14.074c-4.322,5.743-9.828,9.913-16.551,12.423c-6.378,2.38-13.004,3.368-19.747,3.698
					c-7.807,0.386-15.589,0.203-23.296-1.265c-6.809-1.295-13.319-3.443-18.989-7.607c-2.443-1.795-4.672-3.896-6.958-5.903
					c-2.676-2.351-4.484-5.408-6.543-8.271c-2.714-3.773-4.544-8.013-6.615-12.136c-2.749-5.474-4.685-11.254-6.685-17.022
					c-0.768-2.211-1.663-4.383-2.629-6.513c-1.906-4.207-5.369-6.001-9.777-6.242c-4.458-0.245-7.892,1.625-10.452,5.232
					c-0.748,1.053-1.465,2.165-1.979,3.348c-1.601,3.665-3.097,7.376-4.63,11.071c-1.137,2.736-2.116,5.554-3.434,8.197
					c-2.024,4.062-4.105,8.118-6.495,11.968c-1.812,2.922-3.953,5.692-6.273,8.229c-7.481,8.181-16.75,13.247-27.464,15.717
					c-7.585,1.75-15.264,2.394-23.009,2.024c-7.783-0.368-15.284-2.058-22.393-5.401c-4.983-2.346-9.381-5.421-13.137-9.538
					c-3.326-3.646-5.23-7.939-6.717-12.562c-3.245-10.088-4.966-20.507-6.832-30.899c-0.292-1.629-0.663-3.258-1.166-4.831
					c-0.992-3.096-3.032-5.186-6.154-6.134c-1.62-0.492-2.159-1.105-2.143-2.675c0.049-4.343,0.16-8.685,0.246-13.026
					c0.002-0.073,0.011-0.146,0.017-0.217c0.286-3.398,1.027-4.064,4.347-4.387c7.579-0.73,15.147-1.587,22.729-2.307
					c9.36-0.888,18.724-1.771,28.099-2.493C162.416,1005.282,167.427,1005.233,170.13,1005.126z M222.917,1031.264
					c-0.675-3.968-3.438-6.882-6.583-9.392c-5.652-4.508-12.214-6.878-19.043-8.597c-9.458-2.379-19.096-3.219-28.827-2.775
					c-3.037,0-6.076-0.083-9.11,0.018c-5.579,0.185-11.132,0.692-16.592,1.936c-4.402,1.003-8.543,2.65-12.184,5.4
					c-3.084,2.327-5.146,5.529-6.761,8.966c-0.973,2.068-1.574,4.353-2.092,6.598c-1.392,6.034-1.658,12.195-1.454,18.354
					c0.259,7.918,1.323,15.662,4.771,22.966c2.668,5.655,6.319,10.37,11.266,14.093c0.286,0.215,0.578,0.426,0.879,0.62
					c5.605,3.6,11.769,5.535,18.332,6.215c6.287,0.651,12.568,0.406,18.834-0.312c8.25-0.947,16.002-3.444,23.008-8.015
					c5.305-3.459,9.873-7.824,13.52-12.999c2.469-3.508,4.522-7.373,6.331-11.281c1.566-3.39,2.688-7.021,3.709-10.633
					c0.922-3.261,1.72-6.593,2.138-9.965C223.401,1039.681,223.385,1034.023,222.917,1031.264z M318.863,1009.817
					c-7.232-0.039-14.443,0.261-21.614,1.274c-6.538,0.925-12.939,2.346-19.022,5.059c-3.782,1.688-7.19,3.931-9.951,7.015
					c-3.897,4.356-4.996,9.675-4.451,15.383c0.817,8.609,2.445,17.024,5.914,25.009c1.86,4.285,3.95,8.385,6.809,12.118
					c3.011,3.934,6.451,7.345,10.434,10.219c0.867,0.626,1.819,1.134,2.734,1.692c6.141,3.756,12.873,5.742,19.932,6.601
					c10.812,1.312,21.555,1.23,32.08-2.083c6.25-1.969,11.454-5.504,15.405-10.826c2.213-2.979,3.653-6.395,4.921-9.842
					c1.702-4.638,2.432-9.527,2.915-14.438c0.756-7.719,1.183-15.456,0.545-23.205c-0.593-7.163-3.479-13.11-9.535-17.142
					c-3.719-2.474-7.921-3.825-12.252-4.742C335.522,1010.17,327.2,1009.883,318.863,1009.817z"/>
			</g>
		</g>
	</g>
	<text transform="matrix(1 0 0 1 904.3782 459.2881)" display="inline" font-family="'Quicksand-Light'" font-size="45">Web Developper</text>
	<g display="inline">
		<g>
			<g>
				<path fill="#FEBC12" d="M439.984,267.301v23.218h-311.27c-6.751,0-12.213-5.152-12.213-11.521v-0.177
					c0-6.368,5.462-11.521,12.213-11.521L439.984,267.301L439.984,267.301z"/>
				<path fill="#C1BAAA" d="M552.5,278.822v0.177c0,6.368-5.463,11.521-12.213,11.521H439.984v-23.218h100.303
					C547.037,267.301,552.5,272.454,552.5,278.822z"/>
			</g>
			<g>
				<path fill="#C1BAAA" d="M552.5,317.519v0.177c0,6.368-5.463,11.521-12.213,11.521H439.984v-23.218h100.303
					C547.037,305.998,552.5,311.15,552.5,317.519z"/>
				<path fill="#FEBC12" d="M439.984,305.998H139.727h-11.011c-6.751,0-12.213,5.152-12.213,11.521v0.177
					c0,6.368,5.462,11.521,12.213,11.521h11.011h300.257h62.118v-23.218L439.984,305.998L439.984,305.998z"/>
			</g>
			<g>
				<path fill="#FEBC12" d="M552.5,356.396c0,6.36-5.467,11.517-12.211,11.517H128.71c-6.743,0-12.209-5.157-12.209-11.517v-0.185
					c0-6.361,5.466-11.518,12.209-11.518h411.579c6.744,0,12.211,5.157,12.211,11.518V356.396z"/>
				<line fill="none" x1="400.135" y1="367.913" x2="400.135" y2="344.695"/>
				<path fill="#C1BAAA" d="M400.135,344.695h140.154c6.744,0,12.211,5.156,12.211,11.517v0.185c0,6.361-5.467,11.517-12.211,11.517
					H400.135"/>
			</g>
			<g>
				<path fill="#FEBC12" d="M552.5,395.093c0,6.36-5.467,11.519-12.211,11.519H128.71c-6.743,0-12.209-5.157-12.209-11.519v-0.185
					c0-6.36,5.466-11.518,12.209-11.518h411.579c6.744,0,12.211,5.157,12.211,11.518V395.093z"/>
				<path fill="#C1BAAA" d="M432.951,383.392h109.968c5.291,0,9.581,5.157,9.581,11.517v0.185c0,6.36-4.29,11.519-9.581,11.519
					H432.951"/>
			</g>
			<g>
				<path fill="#FEBC12" d="M552.5,433.79c0,6.36-5.467,11.517-12.211,11.517H128.71c-6.743,0-12.209-5.155-12.209-11.517v-0.187
					c0-6.359,5.466-11.517,12.209-11.517h411.579c6.744,0,12.211,5.156,12.211,11.517V433.79z"/>
				<path fill="#C1BAAA" d="M409.512,422.089h131.561c6.312,0,11.428,5.156,11.428,11.519v0.185c0,6.36-5.116,11.517-11.428,11.517
					H409.512"/>
			</g>
			<g>
				<path fill="#C1BAAA" d="M409.512,460.786h131.561c6.312,0,11.428,5.156,11.428,11.517v0.186c0,6.359-5.116,11.518-11.428,11.518
					H409.512"/>
				<path fill="#FEBC12" d="M132.778,460.786c-8.997,0-16.275,5.152-16.275,11.521v0.178c0,6.367,7.278,11.521,16.275,11.521
					h336.507v-23.218L132.778,460.786L132.778,460.786z"/>
			</g>
			<g>
				<line fill="none" x1="400.135" y1="522.7" x2="400.135" y2="499.482"/>
				<path fill="#C1BAAA" d="M552.5,511.002v0.177c0,6.368-5.463,11.521-12.213,11.521H400.135v-23.218h140.151
					C547.037,499.482,552.5,504.635,552.5,511.002z"/>
				<path fill="#FEBC12" d="M457.565,499.482V522.7H131.171c-8.108,0-14.669-5.152-14.669-11.521v-0.177
					c0-6.368,6.56-11.521,14.669-11.521L457.565,499.482L457.565,499.482z"/>
			</g>
		</g>
	</g>
	
		<image display="inline" overflow="visible" enable-background="new    " width="771" height="714" xlink:href="../../Screenshots/Screen Shot 2019-02-22 at 7.58.44 PM.png"  transform="matrix(0.7238 0 0 0.7238 2320.4485 78.6187)">
	</image>
	<rect x="1795.5" y="208.5" display="inline" fill="none" stroke="#F1C40F" stroke-miterlimit="10" width="210" height="38"/>
	<rect x="1795.5" y="259.5" display="inline" fill="none" stroke="#F1C40F" stroke-miterlimit="10" width="435" height="38"/>
	<rect x="1795.5" y="309.5" display="inline" fill="none" stroke="#F1C40F" stroke-miterlimit="10" width="435" height="123"/>
	<rect x="2019.5" y="208.5" display="inline" fill="none" stroke="#F1C40F" stroke-miterlimit="10" width="211" height="38"/>
	<rect x="2163.5" y="448.5" display="inline" fill="none" stroke="#F1C40F" stroke-miterlimit="10" width="67" height="20"/>
	<text transform="matrix(0.9983 0 0 1 1795.0002 159)" display="inline" font-family="'Quicksand-Regular'" font-size="22">Contactez</text>
	<text transform="matrix(0.9983 0 0 1 1897.2336 159)" display="inline" font-family="'Quicksand-Light'" font-size="22">-moi !</text>
	<g display="inline">
		<path fill="#F1C40F" d="M2244.643,141.282c0,0.414-0.154,0.785-0.465,1.112s-0.672,0.491-1.086,0.491
			c-0.482,0-0.914-0.241-1.291-0.724l-7.911-10.236l-7.909,10.288c-0.31,0.414-0.724,0.62-1.24,0.62
			c-0.381,0-0.725-0.129-1.033-0.388c-0.312-0.259-0.467-0.595-0.467-1.008c0-0.378,0.121-0.706,0.361-0.982l8.479-10.856
			l-8.636-11.116c-0.205-0.276-0.31-0.586-0.31-0.931c0-0.414,0.162-0.775,0.49-1.085c0.327-0.311,0.698-0.466,1.112-0.466
			c0.518,0,0.932,0.225,1.24,0.673l8.065,10.391l7.755-10.391c0.343-0.448,0.773-0.673,1.291-0.673c0.447,0,0.802,0.13,1.061,0.388
			c0.258,0.258,0.389,0.577,0.389,0.957c0,0.38-0.121,0.707-0.362,0.982l-8.375,11.012l8.479,11.012
			C2244.522,140.627,2244.643,140.938,2244.643,141.282z"/>
	</g>
	<line display="inline" fill="none" stroke="#F1C40F" stroke-miterlimit="10" x1="1795" y1="177.5" x2="1870" y2="177.5"/>
	<g display="inline">
		<g>
			<path fill="#E67E22" d="M1810,501.731c-3.865,0-7,3.1-7,7c0,1.3,0.401,2.6,1.094,3.699c0.033,0.101,0.059,0.101,0.094,0.2
				l4.344,8c0.203,0.6,0.781,1.1,1.438,1.1s1.202-0.5,1.405-1.1l4.845-8.7c0.499-1,0.78-2.101,0.78-3.2
				C1817,504.831,1813.865,501.731,1810,501.731z M1809.969,505.632c1.934,0,3.5,1.601,3.5,3.5c0,2-1.566,3.5-3.5,3.5
				c-1.935,0-3.5-1.5-3.5-3.5C1806.469,507.231,1808.034,505.632,1809.969,505.632z"/>
			<path fill="#F1C40F" d="M1810,500.763c-3.865,0-7,3.135-7,7c0,1.384,0.401,2.665,1.094,3.75c0.033,0.054,0.059,0.104,0.094,0.157
				l4.344,8.062c0.203,0.586,0.781,1.03,1.438,1.03s1.202-0.444,1.405-1.03l4.845-8.75c0.499-0.964,0.78-2.061,0.78-3.22
				C1817,503.896,1813.865,500.763,1810,500.763z M1809.969,504.731c1.934,0,3.5,1.566,3.5,3.5c0,1.933-1.566,3.5-3.5,3.5
				c-1.935,0-3.5-1.567-3.5-3.5C1806.469,506.298,1808.034,504.731,1809.969,504.731z"/>
		</g>
	</g>
	<g display="inline">
		<g>
			<g id="_x31_-Call">
			</g>
			<g id="_x32_-24_Hours_Call">
			</g>
			<g id="_x33_-Sending_Call">
			</g>
			<g id="_x34_-Incoming_Call">
			</g>
			<g id="_x35_-Talk_On_Phone">
			</g>
			<g id="_x36_-Block_Call">
			</g>
			<g id="_x37_-Hold_Call">
			</g>
			<g id="_x38_-Mute_Call">
			</g>
			<g id="_x39_-Phone_Book">
			</g>
			<g id="_x31_0-Add_Contact">
			</g>
			<g id="_x31_1-Delete_Contact">
			</g>
			<g id="_x31_2-Mail">
			</g>
			<g id="_x31_3-Message_Read">
			</g>
			<g id="_x31_4-Email">
			</g>
			<g id="_x31_5-Send_Mail">
			</g>
			<g id="_x31_6-Important_Mail">
			</g>
			<g id="_x31_7-Mail_Chain">
			</g>
			<g id="_x31_8-Messaging">
			</g>
			<g id="_x31_9-Sending">
			</g>
			<g id="_x32_0-Chat">
			</g>
			<g id="_x32_1-Mail_Attachment">
			</g>
			<g id="_x32_2-Mobile_Link">
			</g>
			<g id="_x32_3-Smartphone">
			</g>
			<g id="_x32_4-Social_Media">
			</g>
			<g id="_x32_5-Support">
			</g>
			<g id="_x32_6-Links">
			</g>
			<g id="_x32_7-Phone">
				<path fill="#E67E22" d="M1820.579,554.591l-3.157-2.207c-0.413-0.288-0.896-0.439-1.396-0.439c-0.797,0-1.543,0.391-1.999,1.045
					l-0.733,1.05c-1.229-0.824-2.601-1.975-3.907-3.281c-1.307-1.308-2.457-2.68-3.281-3.908l1.05-0.731
					c0.536-0.374,0.896-0.933,1.007-1.572c0.114-0.641-0.028-1.288-0.401-1.824l-2.207-3.157c-0.46-0.66-1.205-1.055-1.991-1.055
					c-0.272,0-0.54,0.048-0.794,0.142c-0.288,0.106-0.558,0.237-0.82,0.402l-0.437,0.309c-0.109,0.085-0.211,0.178-0.308,0.273
					c-0.533,0.532-0.911,1.206-1.125,2.002c-0.907,3.408,1.345,8.562,5.604,12.824c3.58,3.578,7.879,5.801,11.222,5.802l0,0
					c0.572,0,1.112-0.065,1.604-0.197c0.797-0.214,1.47-0.591,2.002-1.123c0.098-0.098,0.188-0.197,0.289-0.326l0.308-0.438
					c0.148-0.24,0.281-0.51,0.388-0.801C1821.864,556.371,1821.489,555.226,1820.579,554.591z"/>
			</g>
			<g id="_x32_8-Phone-2">
			</g>
			<g id="_x32_9-Map">
			</g>
			<g id="_x33_0-Location">
			</g>
			<g id="_x33_1-Write">
			</g>
			<g id="_x33_2-World">
			</g>
			<g id="_x33_3-Home">
			</g>
			<g id="_x33_4-Calendar">
			</g>
			<g id="_x33_5-Website">
			</g>
			<g id="_x33_6-Info">
			</g>
			<g id="_x33_7-Bull_Horn">
			</g>
			<g id="_x33_8-Profile">
			</g>
			<g id="_x33_9-Quote__x26__Answer">
			</g>
			<g id="_x34_0-Notification">
			</g>
			<g id="_x34_1-Share">
			</g>
			<g id="_x34_2-Time">
			</g>
		</g>
		<g>
			<g id="_x31_-Call_1_">
			</g>
			<g id="_x32_-24_Hours_Call_1_">
			</g>
			<g id="_x33_-Sending_Call_1_">
			</g>
			<g id="_x34_-Incoming_Call_1_">
			</g>
			<g id="_x35_-Talk_On_Phone_1_">
			</g>
			<g id="_x36_-Block_Call_1_">
			</g>
			<g id="_x37_-Hold_Call_1_">
			</g>
			<g id="_x38_-Mute_Call_1_">
			</g>
			<g id="_x39_-Phone_Book_1_">
			</g>
			<g id="_x31_0-Add_Contact_1_">
			</g>
			<g id="_x31_1-Delete_Contact_1_">
			</g>
			<g id="_x31_2-Mail_1_">
			</g>
			<g id="_x31_3-Message_Read_1_">
			</g>
			<g id="_x31_4-Email_1_">
			</g>
			<g id="_x31_5-Send_Mail_1_">
			</g>
			<g id="_x31_6-Important_Mail_1_">
			</g>
			<g id="_x31_7-Mail_Chain_1_">
			</g>
			<g id="_x31_8-Messaging_1_">
			</g>
			<g id="_x31_9-Sending_1_">
			</g>
			<g id="_x32_0-Chat_1_">
			</g>
			<g id="_x32_1-Mail_Attachment_1_">
			</g>
			<g id="_x32_2-Mobile_Link_1_">
			</g>
			<g id="_x32_3-Smartphone_1_">
			</g>
			<g id="_x32_4-Social_Media_1_">
			</g>
			<g id="_x32_5-Support_1_">
			</g>
			<g id="_x32_6-Links_1_">
			</g>
			<g id="_x32_7-Phone_1_">
				<path fill="#F1C40F" d="M1821.068,554.104l-3.159-2.206c-0.413-0.289-0.896-0.44-1.396-0.44c-0.795,0-1.542,0.391-1.997,1.044
					l-0.734,1.051c-1.229-0.823-2.6-1.976-3.907-3.281c-1.307-1.309-2.457-2.679-3.281-3.907l1.05-0.733
					c0.536-0.372,0.896-0.932,1.008-1.571c0.113-0.641-0.028-1.288-0.402-1.823l-2.206-3.158c-0.461-0.66-1.207-1.055-1.992-1.055
					c-0.271,0-0.54,0.048-0.794,0.143c-0.288,0.105-0.558,0.237-0.821,0.402l-0.436,0.308c-0.109,0.085-0.21,0.177-0.309,0.274
					c-0.531,0.531-0.91,1.205-1.123,2.001c-0.909,3.407,1.344,8.562,5.604,12.823c3.578,3.579,7.879,5.803,11.221,5.803l0,0
					c0.572,0,1.111-0.066,1.604-0.197c0.796-0.213,1.47-0.591,2-1.123c0.099-0.097,0.189-0.198,0.291-0.325l0.307-0.438
					c0.148-0.239,0.281-0.51,0.388-0.801C1822.352,555.884,1821.977,554.738,1821.068,554.104z"/>
			</g>
			<g id="_x32_8-Phone-2_1_">
			</g>
			<g id="_x32_9-Map_1_">
			</g>
			<g id="_x33_0-Location_1_">
			</g>
			<g id="_x33_1-Write_1_">
			</g>
			<g id="_x33_2-World_1_">
			</g>
			<g id="_x33_3-Home_1_">
			</g>
			<g id="_x33_4-Calendar_1_">
			</g>
			<g id="_x33_5-Website_1_">
			</g>
			<g id="_x33_6-Info_1_">
			</g>
			<g id="_x33_7-Bull_Horn_1_">
			</g>
			<g id="_x33_8-Profile_1_">
			</g>
			<g id="_x33_9-Quote__x26__Answer_1_">
			</g>
			<g id="_x34_0-Notification_1_">
			</g>
			<g id="_x34_1-Share_1_">
			</g>
			<g id="_x34_2-Time_1_">
			</g>
		</g>
	</g>
	<g display="inline">
		<g>
			<path fill="#E67E22" d="M1811,578.963c-5.366,0-9.732,4.366-9.732,9.732c0,5.365,4.366,9.731,9.732,9.731
				c1.967,0,3.858-0.582,5.474-1.684c0.555-0.38,0.698-1.138,0.319-1.691c-0.379-0.557-1.134-0.694-1.69-0.319
				c-1.21,0.825-2.628,1.262-4.103,1.262c-4.025,0-7.3-3.273-7.3-7.299c0-4.026,3.273-7.299,7.3-7.299
				c4.025,0,7.299,3.272,7.299,7.299v0.607c0,0.671-0.545,1.217-1.217,1.217c-0.67,0-1.217-0.546-1.217-1.217v-3.648
				c0-0.673-0.544-1.217-1.217-1.217c-0.536,0-0.979,0.353-1.14,0.838c-0.706-0.521-1.568-0.838-2.511-0.838
				c-2.348,0-4.258,1.909-4.258,4.258c0,2.348,1.91,4.258,4.258,4.258c1.271,0,2.402-0.571,3.184-1.459
				c0.667,0.881,1.714,1.459,2.899,1.459c2.014,0,3.649-1.637,3.649-3.649v-0.607C1820.732,583.329,1816.365,578.963,1811,578.963z
				 M1811,590.521c-1.007,0-1.824-0.819-1.824-1.825c0-1.007,0.817-1.825,1.824-1.825c1.006,0,1.824,0.818,1.824,1.825
				C1812.824,589.702,1812.006,590.521,1811,590.521z"/>
		</g>
		<g>
			<path fill="#F1C40F" d="M1811.488,578.475c-5.366,0-9.731,4.366-9.731,9.732s4.365,9.732,9.731,9.732
				c1.968,0,3.859-0.582,5.475-1.685c0.555-0.38,0.697-1.137,0.318-1.69c-0.378-0.558-1.133-0.695-1.689-0.32
				c-1.21,0.826-2.628,1.262-4.104,1.262c-4.024,0-7.299-3.272-7.299-7.299s3.273-7.299,7.299-7.299
				c4.026,0,7.299,3.272,7.299,7.299v0.607c0,0.672-0.545,1.218-1.216,1.218s-1.217-0.546-1.217-1.218v-3.648
				c0-0.673-0.544-1.217-1.217-1.217c-0.536,0-0.979,0.353-1.141,0.838c-0.706-0.521-1.567-0.838-2.51-0.838
				c-2.348,0-4.258,1.91-4.258,4.258s1.91,4.258,4.258,4.258c1.271,0,2.402-0.571,3.184-1.459c0.666,0.881,1.714,1.459,2.899,1.459
				c2.013,0,3.649-1.637,3.649-3.648v-0.608C1821.221,582.841,1816.854,578.475,1811.488,578.475z M1811.488,590.032
				c-1.006,0-1.823-0.819-1.823-1.825s0.817-1.825,1.823-1.825s1.825,0.819,1.825,1.825S1812.493,590.032,1811.488,590.032z"/>
		</g>
	</g>
	<path display="inline" fill="none" stroke="#E67E22" stroke-width="3" stroke-miterlimit="10" d="M2255.498,130.5
		c0,20.556,0,20-17.024,20h-8.946c-16.899,0-16.899,0.556-17.024-20l0,0c0.125-20.556,0.125-20,17.024-20h8.946
		C2255.498,110.5,2255.498,109.944,2255.498,130.5L2255.498,130.5z"/>
</g>
<g id="Layer_2">
	<g>
		<path fill="#F39C12" d="M-6.958-97.688c-4.416,0-8.001,3.586-8.001,8v12v8v8.001v8v12c0,4.422,3.585,8,8.001,8h36h36
			c4.422,0,8.001-3.578,8.001-8v-28.001v-8v-12c0-4.414-3.579-8-8.001-8h-36H-6.958z"/>
		<path fill="#E67E22" d="M-6.958-33.687c-2.407,0-4.532-1.2-6.001-2.801c1.227-4,6.961-10.399,15.876-20
			c24.642-27.199,24.632-27.199,50.755-0.8c10.358,10.801,16.522,17.207,17.121,20.801c-1.46,1.601-3.478,2.801-5.75,2.801h-36
			L-6.958-33.687L-6.958-33.687z"/>
		<path fill="#F1C40F" d="M-6.958-97.688c-2.407,0-4.532,0.801-6.001,2.398c1.227,4,6.961,10.402,15.876,20
			c24.642,27.204,24.632,27.602,50.755,0.801C64.031-84.888,70.195-91.29,70.793-95.29c-1.46-1.598-3.478-2.398-5.75-2.398h-36
			H-6.958L-6.958-97.688z"/>
	</g>
</g>
<g id="Layer_3" display="none">
	<path display="inline" fill="#F39C12" d="M97.168-96.354c-4.416,0-8.001,3.586-8.001,8v12v8v8.001v8v12c0,4.422,3.585,8,8.001,8h36
		h36c4.422,0,8.001-3.578,8.001-8v-28.001v-8v-12c0-4.414-3.579-8-8.001-8h-36H97.168z"/>
	<path display="inline" fill="#E67E22" d="M97.168-32.353c-2.407,0-4.532-1.2-6.001-2.801c1.227-4,6.961-10.399,15.876-20
		c24.642-27.199,24.632-27.199,50.755-0.8c10.358,10.801,16.522,17.207,17.121,20.801c-1.46,1.601-3.478,2.801-5.75,2.801h-36
		L97.168-32.353L97.168-32.353z"/>
	<path display="inline" fill="#F1C40F" d="M157.797-119.554c-26.123-26.801-26.113-26.403-50.755,0.801
		c-8.915,9.598-14.649,20.797-15.876,24.797c1.227,4,6.961,10.402,15.876,20c24.642,27.204,24.632,27.602,50.755,0.801
		c10.358-10.399,16.522-16.801,17.121-20.801C174.321-97.956,168.156-109.155,157.797-119.554z"/>
</g>
</svg>
