<?xml version="1.0" encoding="utf-8"?>
<!-- Generator: Adobe Illustrator 16.0.0, SVG Export Plug-In . SVG Version: 6.00 Build 0)  -->
<!DOCTYPE svg PUBLIC "-//W3C//DTD SVG 1.1//EN" "http://www.w3.org/Graphics/SVG/1.1/DTD/svg11.dtd">
<svg version="1.1" id="Layer_1" xmlns="http://www.w3.org/2000/svg" xmlns:xlink="http://www.w3.org/1999/xlink" x="0px" y="0px"
	 width="50px" height="107.055px" viewBox="0 0 88.002 107.055" enable-background="new 0 0 88.002 107.055"
	 xml:space="preserve">
<g id="Layer_1_1_" display="none">
	<rect x="1660.833" y="224.407" display="inline" fill="#878686" width="526" height="676"/>
	<g display="inline">
		<path fill="#E6E6E6" d="M-89.167,140.407c0,0,16.241,63,85.918,107c69.678,44,122.457,40,122.457,40s845.781,13,925.281,13
			s191.344,40,231.344,140.398v463.602h-1365V140.407z"/>
	</g>
	<g display="inline">
		<path fill="#FDC000" d="M1277.833,1677.407c0,0-16.209,63-85.889,107c-69.679,44-122.441,40-122.441,40s-845.805,13-925.305,13
			s-191.365,40-231.365,140.398v463.602h1365V1677.407L1277.833,1677.407z"/>
	</g>
	<g display="inline">
		<rect x="-439.667" y="138.907" fill="none" stroke="#000000" width="217" height="217"/>
		<line fill="none" stroke="#000000" x1="-438.441" y1="354.739" x2="-223.137" y2="139.434"/>
		<line fill="none" stroke="#000000" x1="-438.441" y1="139.434" x2="-223.137" y2="354.739"/>
	</g>
	<rect x="-392.667" y="540.907" display="inline" fill="none" stroke="#000000" width="140" height="140"/>
	<rect x="-392.167" y="373.407" display="inline" fill="#E0E0E0" width="140" height="140"/>
	<rect x="609.333" y="484.465" display="inline" fill="none" width="556.996" height="77.884"/>
	<text transform="matrix(1 0 0 1 609.333 539.9641)" display="inline" font-family="'Quicksand-Regular'" font-size="75">NICOLAS HOOG</text>
	<g display="inline">
		<path fill="#FDC000" d="M48.862,1368.119l-14.988-27.614c-1.671,1.952-3.354,3.895-5.033,5.837l0.018-0.021
			c-1.107,1.323-2.214,2.648-3.32,3.977l0.017-0.021c-0.896,1.021-1.792,2.048-2.687,3.072l-1.316,1.524
			c-3.269,4.185-6.951,8.003-10.518,11.926c0,0.001,0.016-0.021,0.016-0.021c-1.767,2.058-3.532,4.116-5.297,6.175l0.017-0.021
			c-1.106,1.324-2.213,2.649-3.319,3.978l0.017-0.021c-0.373,0.443-0.746,0.894-1.121,1.34l0.018-0.021l-2.212,2.663l0.017-0.021
			c-0.37,0.446-0.743,0.896-1.114,1.343l0.016-0.021c-1.397,1.62-2.796,3.24-4.194,4.859l0.017-0.021
			c-0.238,0.272-0.475,0.545-0.712,0.815c-0.314,0.399-0.654,0.781-0.938,1.201c-4.639,6.854-9.051,13.846-13.127,21.051
			c-0.224,0.493-0.429,0.996-0.674,1.479c-2.643,5.215-6.312,10.029-7.934,15.613c-3.906,13.437-6.927,27.105-7.697,41.168
			l-0.005,1.312c0,1.694,0,3.388-0.001,5.081c0.001,0.587,0.004,1.169,0.007,1.753c0.206,5.417,0.478,10.822,1.367,16.188
			c3.714,22.447,11.219,43.194,27.341,59.927c4.258,4.418,8.206,9.233,13.754,12.327c9.637,5.37,20.069,8.776,30.521,11.865
			c6.332,1.869,9.855,5.377,12.357,11.156c4.045,9.33,4.644,19.104,4.341,28.953c-0.276,8.951-1.284,17.877-2.005,26.812
			c-0.057,0.716,0.229,1.021,0.751,1.396c3.464,2.485,7.157,2.084,10.942,0.995c0.782-0.226,1.088-0.61,1.24-1.408
			c1.602-8.271,1.557-16.672,2.051-25.031c0.729-12.382-1.271-24.213-6.808-35.373c-0.095-0.191-0.146-0.406-0.215-0.61
			c0.245,0.013,0.497-0.01,0.733,0.041c2.145,0.464,4.271,1.037,6.433,1.396c10.448,1.741,21.047,1.919,31.573,2.829
			c9.808,0.85,19.634,1.818,29.464,0.394c15.549-2.262,30.669-6.286,45.553-11.255c0.396-0.133,0.822-0.166,1.235-0.245
			c-0.041,0.389-0.043,0.784-0.127,1.163c-0.715,3.283-1.428,6.567-2.176,9.846c-1.742,7.615-3.104,15.272-2.855,23.134
			c0.191,6.202-0.262,12.427-1.337,18.465c-2.423,13.562-3.699,27.317-6.97,40.731c-0.15,0.621-0.066,1.097,0.496,1.532
			c3.406,2.636,7.701,3.481,11.209,1.885c0.313-0.146,0.514-0.479,0.607-0.812c3.495-12.192,6.977-24.329,8.044-37.123
			c0.821-9.812,2.91-19.515,3.076-29.428c0.192-11.357,2.623-22.425,4.646-33.539c0.131-0.722,0.459-1.025,1.135-1.25
			c2.777-0.93,5.627-1.722,8.275-2.938c19.488-8.972,39.393-16.981,59.297-24.923c16.816-6.709,31.817-16.046,46.496-26.396
			c10.209-7.195,18.418-15.955,25.926-25.776c9.258-12.116,10.48-26.562,12.92-40.68c1.021-5.919,2.203-11.55,5.99-16.456
			c2.516-3.26,5.246-6.297,7.941-9.385c4.953-5.67,10.213-11.113,13.025-18.344c4.356-11.193,5.694-22.853,5.67-34.749
			c-0.074-0.54-0.168-1.081-0.217-1.623c-0.363-4.067-1.56-7.784-4.414-10.854c-4.175-4.483-21.521-13.823-23.006-17.812
			c-1.369-3.686-2.527-7.51-4.91-10.727c-4.791-6.466-10.304-12.258-16.398-17.523c-7.176-6.2-13.227-13.72-21.791-18.3
			c-2.645-1.413-5.195-3.066-8.074-3.849c-1.132-0.311-2.271-0.579-3.417-0.837c-0.021,0.017-0.03,0.035-0.052,0.054
			c-4.32,3.683-6.641,8.888-9.122,13.876c-2.446,4.911-4.095,10.594-4.687,16.1c-0.082,0.766,0.651,1.113,1.086,1.365
			c9.778,5.714,13.146,15.033,14.492,25.531c1.79,13.957-1.486,27.166-6.072,40.13c-3.928,11.104-9.517,21.358-16.739,30.692
			c-0.002,0.007-0.007,0.012-0.007,0.012l0.002-0.001c-6.062,7.938-12.375,15.655-19.817,22.377
			c-3.558,3.211-6.968,6.581-10.767,9.518c0,0.001,0.022-0.018,0.022-0.018c-4.549,4.296-9.057,8.64-14.312,12.102
			c-1.545,1.246-3.086,2.492-4.633,3.738l0.021-0.016c-0.666,0.52-1.33,1.042-1.998,1.562c0,0.001,0.023-0.018,0.023-0.018
			c-0.301,0.226-0.603,0.452-0.9,0.68l0.021-0.019c-8.56,6.05-16.375,13.041-24.713,19.377
			c-14.274,10.851-27.927,22.466-40.338,35.411c-6.764,7.053-12.578,14.964-18.072,23.069c-0.112,0.166-0.308,0.277-0.465,0.414
			c-1.701,3.522-3.852,6.755-6.076,9.976c-1.53,2.213-2.396,4.904-3.416,7.438c-0.34,0.845-0.696,1.165-1.592,1.245
			c-13.434,1.19-26.804,0.874-40.146-1.217c-9.438-1.479-18.771-3.423-28.094-5.464c-0.883-0.191-1.776-0.495-2.563-0.936
			c-6.812-3.794-13.851-7.245-20.338-11.533c-15.072-9.966-26.935-22.798-33.756-39.856c-4.614-11.548-6.581-23.538-6.796-35.918
			c-0.232-13.521,1.37-26.737,5.76-39.566c0.117-0.341,0.378-0.982,0.378-0.982c0.375-1.12,0.749-2.24,1.126-3.36
			c0.057-0.2,0.113-0.401,0.169-0.604c0.163-0.371,0.325-0.742,0.489-1.113c0-0.001-0.016,0.022-0.016,0.022
			c0.153-0.373,0.307-0.745,0.46-1.119l-0.014,0.021c0.226-0.527,0.451-1.056,0.676-1.586c0.046-0.134,0.091-0.271,0.135-0.404
			c0.906-1.775,1.812-3.553,2.717-5.326c1.349-1.661,2.696-3.324,4.044-4.985c0.193-0.239,0.386-0.477,0.58-0.713l3.237-3.928
			c0.242-0.299,0.484-0.601,0.727-0.898c0.113-0.14,0.228-0.28,0.341-0.424c0.251-0.303,0.501-0.604,0.752-0.907
			c0.045-0.062,0.09-0.129,0.134-0.188c0.248-0.303,0.498-0.604,0.746-0.907c0.274-0.354,0.548-0.713,0.821-1.068
			c0.237-0.312,0.475-0.623,0.71-0.937c0.208-0.272,0.415-0.548,0.623-0.819c0.234-0.307,0.469-0.61,0.703-0.918
			c0.783-1.089,1.569-2.178,2.353-3.266c0.32-0.438,0.637-0.879,0.957-1.316c1.217-1.688,2.434-3.377,3.65-5.062l0.716-0.903
			l-0.018,0.021c3.026-3.646,6.809-6.499,10.251-9.705c2.375-2.214,4.913-4.253,7.378-6.369l-0.021,0.018
			C45.11,1371.182,48.862,1368.119,48.862,1368.119z M46.283,1563.112c-0.474,1.207-1.755,1.127-2.637,1.354
			c-0.587-0.062-0.981,0.027-1.317-0.443c-2.258-3.197-6.132-4.059-9.593-2.177c-0.909,0.494-0.776,1.353-0.631,2.136
			c0.089,0.481,0.451,0.909,0.604,1.392c0.283,0.896,1.977,1.328,1.093,2.521c-0.886,1.197-2.152,0.28-3.136-0.019
			c-2.179-0.66-3.956-2.017-4.156-4.438c-0.181-2.223,0.769-4.11,2.69-5.425c3.5-2.388,12.396-2.753,16.117,1.814
			C46.114,1560.803,46.774,1561.86,46.283,1563.112z M212.499,1526.414c-1.572,0.907-3.357,1.09-5.021,0.13
			c-1.346-0.777-1.518-2.144-1.459-3.553c0.03-0.771,0.416-1.334,1.102-1.644c4.854-2.184,4.349-8.837,1.628-11.867
			c-2.083-2.319-3.812-0.507-5.447,0.755c-1.034,0.799-2.03,1.512-3.198,0.493c-1.229-1.068-1.521-2.589-0.912-4.021
			c1.479-3.468,4.461-4.777,7.986-5.311c2.833-0.429,4.319,1.366,5.783,3.223c2.157,2.734,4.303,9.029,4.35,13.248
			C217.077,1520.927,216.047,1524.368,212.499,1526.414z"/>
		<path fill="none" d="M217.306,1517.869c-0.229,3.059-1.259,6.499-4.807,8.545c-1.572,0.907-3.357,1.09-5.021,0.13
			c-1.346-0.776-1.518-2.144-1.459-3.553c0.03-0.771,0.416-1.334,1.102-1.642c4.854-2.186,4.349-8.839,1.628-11.869
			c-2.083-2.319-3.812-0.506-5.447,0.755c-1.034,0.799-2.03,1.512-3.198,0.494c-1.229-1.069-1.521-2.589-0.912-4.021
			c1.479-3.468,4.461-4.776,7.986-5.31c2.833-0.43,4.319,1.365,5.783,3.222C215.114,1507.356,217.259,1513.647,217.306,1517.869z"/>
		<path fill="none" d="M43.646,1564.466c-0.587-0.062-0.981,0.026-1.317-0.446c-2.258-3.195-6.132-4.057-9.593-2.175
			c-0.909,0.495-0.776,1.351-0.631,2.134c0.089,0.482,0.451,0.911,0.603,1.394c0.283,0.896,1.977,1.328,1.093,2.521
			c-0.886,1.197-2.152,0.28-3.136-0.019c-2.179-0.66-3.956-2.018-4.157-4.438c-0.181-2.223,0.769-4.109,2.69-5.425
			c3.5-2.388,12.396-2.753,16.117,1.813c0.797,0.979,1.459,2.033,0.968,3.285C45.81,1564.319,44.53,1564.237,43.646,1564.466z"/>
		<path fill="#FFCD50" d="M347.097,1341.338c4.275,2.469,27.723,20.354,30.023,22.235c4.389,4.508,6.74,12.65,6.875,19.289
			c0.285,14.211-37.711,56.394-39.818,58.771c0.773-2.232-0.768-2.265,0.369-4.656
			C363.192,1397.738,355.013,1352.949,347.097,1341.338z"/>
		<path fill="#FFCD50" d="M275.737,1331.561l3.272-9.521c9.802,0,8.468,7.548,13.692,11.002c2.973,12.665,4.213,30.217,1.052,42.14
			c-1.853,6.979-7.005,32.72-13.744,39.625c-5.579,5.719-57.918,55.552-62.706,59.916c54.116-75.482,72.188-93.062,54.116-133.066
			L275.737,1331.561z"/>
		<g id="Layer_3_xA0_Image_2_">
			<path fill="#FDC000" d="M23.075,1314.725c-3.713-11.642-6.709-23.436-7.97-35.634c-0.505-4.876-1.588-9.694-2.012-14.575
				c-1.174-13.483-3.171-26.896-3.256-40.48c-0.058-9.396-0.407-18.814-2.402-28.062c-1.592-7.376-3.101-14.769-4.29-22.22
				c-0.463-2.912-0.58-5.841,0.783-8.617c1.053-2.146,2.363-2.812,4.634-2.099c1.178,0.371,2.276,0.992,3.414,1.498
				c0.258,0.115,0.582,0.376,0.771,0.302c0.375-0.146,0.189-0.581,0.16-0.879c-0.512-5.134-1.041-10.271-1.567-15.404
				c-0.862-8.415-1.716-16.83-2.59-25.24c-0.719-6.904-0.439-13.928-2.038-20.719c-1.2-5.091-3.179-10.005-4.252-15.113
				c-1.91-9.096-3.623-18.235-4.326-27.537c-0.705-9.312-0.331-18.495,3.161-27.267c1.614-4.055,7.8-13.188,11.205-16.594
				c0.973-0.973-3.254,1.47-3.254,1.47c1.529-2.016,3.27-3.895,5.294-5.586c1.682-1.402,3.428-2.831,5.365-3.808
				c3.356-1.69,5.808-4.627,9.155-6.284c0.759-0.375,0.279-0.846,0.034-1.265c-2.544-4.357-4.59-8.849-4.114-14.102
				c0.31-3.413,0.979-6.741,2.046-9.988c2.411-7.335,5.134-14.574,10.022-20.653c0,0-1.896,10.826-0.286,6.683
				c4.328-11.127,9.621-17.181,18.334-20.714c3.588-1.454,7.215-2.946,11.09-3.96c7.006-1.833,13.84-4.35,21.097-5.209
				c6.913-0.817,13.815-1.731,20.796-0.981c2.38,0.257,10.745,2.593,13.132,2.336c5.698-0.608,11.992-3.342,17.204-6.254
				c4.035-2.254,8.816-2.625,13.219-4c12.922-4.037,24.799-1.263,36.018,5.654c0.285,0.175,1.642,1.271,1.897,0.721
				c0.366-0.775,0.859-1.183,0.859-1.183s-0.275,2.058,1.571,2.418c3.418,0.667,4.151,0.715,7.811-0.012
				c0.38-0.076,3.76-1.185,4.127-1.174c-1.366,3.265-5.26,2.575-1.673,3.905c9.752,3.613,19.063,8.134,28.343,12.771
				c12.37,6.183,24.385,12.981,36.012,20.464c6.68,4.297,11.387,10.537,16.414,16.531c7.021,8.374,10.537,18.46,14.668,28.247
				c1.432,3.395,2.59,6.869,3.524,10.402c0.465,1.766-3.126-4.025-2.769-2.235c0.765,3.806,6.81,18.937,6.078,33.605
				c-0.373,7.426,0.555,14.867,0.092,22.306c-0.498,7.974-1.506,15.853-3.328,23.661c-0.764,3.283-0.231,6.855-0.436,10.288
				c-0.363,6.234-1.703,12.312-2.999,18.407c-2.29,10.788-4.335,21.624-4.905,32.682c-0.082,1.602,0.242,2.114,1.746,1.22
				c0.342-0.203,0.719-0.349,1.08-0.521c0.897-0.396,1.785-0.827,2.701-1.18c3.003-1.147,5.53,0.181,6.28,3.312
				c0.407,1.721,0.638,3.497,0.409,5.235c-1,7.612-2.066,15.214-3.174,22.812c-0.725,4.971-2.166,9.788-3.244,14.687
				c-1.533,6.972-2.195,13.965-1.922,21.133c0.412,10.833-0.541,21.658-0.834,32.488c-0.347,12.67-0.853,25.32-3.356,37.785
				c-1.226,6.092-1.622,12.309-4.211,18.188c-2.321,5.271-4.22,10.765-6.304,16.157c-0.219,0.438-0.992,2.271-1.211,2.711
				c-0.267,0.424-0.767,2.506-1.567,4.006c-0.435,0.812-1.89,4.06-2.188,5.066c0.148-0.134-4.172,8.179-5.131,11.108
				c-1.83,3.591-3.662,7.181-5.492,10.771c-2.311,3.146-4.026,6.624-5.727,10.117c-5.262,11.759-12.656,22.182-20.293,32.458
				c-3.919,5.276-8.341,10.073-13.057,14.667c-4.746,4.625-9.67,9.058-15.295,12.462c-7.394,4.473-15.687,6.178-24.32,6.7
				c-15.596,0.942-31.23,1.501-46.706,3.969c-3.761,0.599-7.573,0.514-11.386-0.043c-4.742-0.693-9.409-1.283-13.861-3.438
				c-5.057-2.444-9.738-5.315-14.076-8.864c-13.906-11.379-37.285-41.325-37.77-41.886c-5.846-6.793-13.041-17.386-17.68-25.534
				c-7.531-13.236-14.223-26.852-19.125-41.296C26.138,1321.806,24.623,1318.26,23.075,1314.725z M196.414,1310.677
				c-8.308-3.354-16.908-4.914-25.881-4.315c-8.646,0.572-17.237,1.915-25.972,0.918c-6.967-0.797-13.734,0.32-20.315,3.022
				c-7.718,3.171-14.591,7.783-21.722,11.966c-5.588,3.275-9.352,7.883-10.404,14.469c-0.403,2.521-0.316,5.033-0.297,7.561
				c0.044,5.865,0.938,11.493,4.005,16.665c4.399,7.423,10.121,13.535,17.067,18.657c5.313,3.917,10.97,5.346,17.375,3.928
				c1.041-0.229,2.235-0.438,2.539-1.634c0.313-1.257-0.074-2.476-1.018-3.423c-0.436-0.438-0.913-0.861-1.439-1.174
				c-1.324-0.78-2.666-1.538-4.043-2.22c-2.555-1.262-4.703-2.952-6.209-5.407c-1.207-1.969-1.164-6.424,0.108-7.889
				c2.319-2.672,4.879-2.841,7.778-0.457c0.707,0.583,1.396,0.936,2.357,0.94c7.768,0.077,15.533,0.014,23.299-0.216
				c8.854-0.263,17.611,1.011,26.416,1.547c4.905,0.3,9.881,0.761,14.519-1.717c3.071-1.643,5.883-0.171,6.325,3.246
				c0.209,1.613-0.021,3.188-0.715,4.715c-1.287,2.85-3.688,4.379-6.383,5.565c-1.94,0.858-3.531,2.075-4.514,3.992
				c-1.421,2.778-0.725,4.786,2.098,6.096c1.926,0.897,4.019,1.049,6.071,1.415c4.13,0.741,7.233-0.691,9.78-3.963
				c2.441-3.137,4.396-6.562,6.576-9.854c4.754-7.168,8.644-14.72,11.205-22.918c1.383-4.425,2.432-8.961,0.513-13.524
				c-0.835-1.989-1.714-3.993-2.849-5.819c-3.953-6.365-9.472-11.204-15.562-15.438
				C204.386,1313.645,196.687,1310.786,196.414,1310.677z M31.442,1277.121c0.16,0.328,0.326,0.652,0.478,0.984
				c1.71,3.801,3.093,7.771,5.304,11.318c5.981,9.6,13.21,18.255,20.468,26.891c4.408,5.24,8.776,10.522,11.562,16.884
				c0.543,1.942,1.499,3.711,2.431,5.479c0.25,0.478,0.447,1.32,1.084,1.191c0.517-0.105,0.229-0.902,0.271-1.382
				c0.104-1.201,0.182-2.406,0.163-3.609c-0.058-3.896,0.473-7.72,1.414-11.487c0.743-2.97,1.543-5.926,2.315-8.887
				c2.48-7.39,6.631-13.5,13.041-18.151c3.623-2.632,7.262-5.207,11.131-7.438c7.336-4.229,14.961-7.527,23.717-7.122
				c4.812,0.223,9.533,0.58,14.027,2.657c9.021,4.175,18.356,6.508,28.426,4.576c3.683-0.705,7.283-1.567,10.841-2.725
				c12.088-3.925,24.226-5.771,36.479-0.632c0.813,0.344,1.646,0.637,2.325,1.211c6.958,5.893,13.837,11.811,19.244,19.312
				c5.521,7.664,9.028,16.128,11.358,25.173c0.735,2.863,0.623,5.812,0.778,8.734c0.021,0.377,0.208,0.743,0.317,1.114
				c0.471-0.153,0.453-0.628,0.576-0.972c1.013-2.789,2.072-5.562,2.966-8.391c3.43-10.862,7.717-21.323,13.518-31.175
				c3.576-6.071,8.066-11.521,11.575-17.619c0.17-0.181,0.396-0.33,0.5-0.541c1.755-3.544,3.577-7.06,5.213-10.655
				c1.368-3.005,2.354-6.194,2.618-9.479c0.604-7.464,2.36-14.761,3.024-22.21c0.293-3.307,0.859-6.607,0.861-9.915
				c0-3.856-0.615-7.714-0.721-11.576c-0.184-6.671-1.781-13.185-2.043-19.841c-0.045-1.152-0.43-2.293-0.62-3.442
				c-1.457-8.892-2.901-17.781-4.356-26.672c-1.475-9.034-3.106-18.047-4.395-27.106c-1.145-8.056-2.391-16.091-3.751-24.11
				c-0.922-5.434-2.058-10.834-2.844-16.284c-1.562-10.844-3.154-21.677-6.272-32.206c-0.318-1.072-3.318-6.776-4.629-8.584
				c-6.125-8.453-13.535-15.233-23.611-18.763c-14.002-4.897-28.43-6.805-43.193-6.364c-7.372,0.219-14.704,0.854-21.723,3.422
				c-3.957,1.447-8.019,2.552-12.084,3.663c-7.92,2.168-15.748,2.502-23.685-0.089c-4.321-1.41-13.202-5.146-13.746-5.321
				c-6.056-2.436-12.179-4.735-18.558-6.123c-7.254-1.577-14.412-1.321-21.154,2.358c-2.925,1.6-5.925,3.062-8.906,4.556
				c-12.181,6.091-22.771,14.19-32.049,24.212c-4.776,5.161-7.249,11.037-7.923,17.77c-0.441,4.398-0.262,8.857-0.418,13.286
				c-0.359,10.246-1.102,20.425-2.802,30.585c-1.973,11.798-5.134,23.303-7.568,34.98c-0.067,0.083-0.18,0.159-0.197,0.252
				c-0.928,5.477-1.528,10.988-1.81,16.538c-0.21,4.122-0.207,8.274-0.752,12.354c-1.082,8.082-1.608,16.189-1.906,24.326
				c-0.124,3.361-0.14,6.734-0.481,10.074c-1,9.771,0.765,19.134,3.87,28.333c1.404,4.159,2.779,8.327,4.124,12.505
				C26.859,1267.908,28.934,1272.608,31.442,1277.121z"/>
			<path fill="#FEE697" d="M22.001,1312.636c1.547,3.534,3.062,7.082,4.155,10.791C24.578,1319.906,23.123,1316.336,22.001,1312.636
				z"/>
			<path fill="none" d="M111.315,1085.697c-0.203-0.088-0.334-0.197-0.418-0.168c-0.104,0.034-0.166,0.186-0.246,0.286
				c0.096,0.076,0.205,0.223,0.285,0.209C111.047,1086.008,111.134,1085.865,111.315,1085.697z"/>
			<path fill="#FEEEBA" d="M111.315,1085.697c-0.184,0.168-0.271,0.312-0.377,0.328c-0.082,0.014-0.189-0.135-0.287-0.208
				c0.08-0.104,0.144-0.254,0.246-0.287C110.981,1085.499,111.112,1085.609,111.315,1085.697z"/>
			<path fill="#FEC203" d="M184.933,1267.885c-0.934,0.521-1.979,0.803-3.021,0.991c-0.249,0.045-0.577,0.021-0.633-0.284
				c-0.072-0.375,1.615-0.708,2.199-0.936c0.875-0.342,3.648-1.596,2.979-3.645c-0.479-1.452-1.891-1.984-3.2-2.271
				c-2.61-0.569-4.987,0.536-7.353,1.441c-3.758,1.432-6.896,3.87-10.273,6.029c-5.12,3.272-11.334,3.362-17.326,0.294
				c-4.306-2.209-7.32-5.059-11.609-7.268c-1.987-1.035-4.143-1.703-6.459-1.101c-2.483,0.66-3.227,2.062-2.043,4.354
				c0.432,0.834,0.853,1.43,1.467,2.135c1.035,1.183,2.803,1.585,2.721,2.107c-0.062,0.431-0.688,0.246-1.045,0.165
				c-0.559-0.128-0.943-0.357-1.512-0.771c-1.852-1.228-2.904-3.006-3.271-5.122c-0.432-2.465,1.422-4.188,4.592-4.344
				c3.748-0.191,6.826,1.567,9.857,3.482c4.443,2.812,7.891,5.8,13.096,7.119c3.646,0.926,7.75-0.259,10.819-2.182
				c4.832-3.023,9.383-6.388,15.14-7.413c1.354-0.237,2.686-0.165,4.021,0.201c1.812,0.495,3.22,1.456,3.361,3.445
				C187.581,1266.325,186.362,1267.089,184.933,1267.885z"/>
			<path fill="#FFCD50" d="M104.851,974.199c-0.604,59.904,39.992,68.9,40.181,69.869c-10.152,0-18.454-6.599-26.476-7.727
				c-13.306-1.871-24.302,1.25-31.209,3.244c-12.199-0.838-24.297-8.23-33.078-15.9c-11.417-9.969-24.078-20.461-20.826-37.574
				c-2.61,13.078,15.162,37.163,42.214,37.445c-19.201-8.53-34.288-40.287-31.282-55.416c-2.119,10.876,27.931,46.844,38.24,52.845
				c-8.3-9.305-15.929-31.237-14.976-43.938c0.082,6.212,3.894,15.925,8.739,24.101l0.787,1.115
				c-1.869-3.618-2.806-7.312-2.64-11.555c0.9,3.781,3.035,8.157,4.344,11.775c2.555,7.077,11.357,19.566,13.009,21.442
				c-9.671-18.734-10.836-35.819-6.969-48.998c-0.554,23.405,15.604,53.797,24.919,55.322
				C104.944,1024.756,96.791,983.371,104.851,974.199z"/>
		</g>
		<g id="From_selection_xA0_Image_1_">
			<path fill="#FEC202" d="M235.845,1146.389c-16.385,0.54-32.107,3.728-46.969,10.672c-3.208,1.498-6.076,3.801-9.363,5.024
				c-1.933,0.719-4.897,0.803-6.443-0.24c-1.276-0.86-1.965-4.007-1.512-5.779c1.9-7.438,4.316-14.748,6.596-22.087
				c0.142-0.457,0.744-0.771,1.132-1.152c-2.706,6.175-4.326,14.441-4.292,14.591c0.057,0.25,4.515-13.644,4.604-13.405
				c0.031,0.085-2.937,13.096-2.886,13.033c0.358-0.434,3.677-12.141,3.677-12.141s-0.771,6.799-0.654,7.701
				c1.762-5.184,1.793-6.969,1.724-8.084c0.407,0.896,0.706,3.646,0.802,4.16c0.213-0.715,0.038-5.212,0.038-5.212
				s0.83,2.283,1.031,1.892c1.065-2.104,0.782-1.51,2.657-2.899c2.969-2.201,10.848-3.016,14.4-3.512
				c14.713-2.059,29.721-1.955,44.559-2.088c13.352-0.118,22.959,6.875,29.406,18.598c3.604,6.557,4.656,11.09,4.842,18.562
				c0.033,1.288,0.438,4.823-0.094,6.127c-1.125-0.81-2.683-1.37-3.308-2.465c-6.209-10.851-15.541-17.326-27.646-19.812
				C244.112,1147.044,239.946,1146.865,235.845,1146.389z"/>
			<path fill="#FEECB2" d="M26.626,1166.821c-0.009,0-0.009,0.011-0.009,0.02c0-0.01,0-0.01,0-0.01L26.626,1166.821z"/>
			<path fill="#FEC202" d="M26.869,1165.313c-3.572,8.924,10.285-2.578,11.822-4.303c4.066-4.555,7.691-9.805,13.378-12.488
				c10.492-4.959,22.981-2.804,33.932-0.832c8.368,1.505,16.307,4.554,24.268,7.438c4.99,1.811,17.164,7.891,22.285,3.979
				c1.547-1.182,1.211-2.597,1.25-4.407c0.041-1.896,0-3.777,0-5.671c-0.047-0.742-0.093-1.484-0.137-2.229
				c-0.02-0.357-0.046-0.715-0.064-1.071c-0.055-0.376-0.108-0.752-0.156-1.128c-0.018-0.137-0.035-0.272-0.045-0.411
				c-0.063-0.303-0.118-0.604-0.174-0.905c-0.02-0.141-0.047-0.276-0.062-0.413c-0.057-0.229-0.102-0.458-0.156-0.688
				c-0.019-0.138-0.045-0.272-0.062-0.412c-0.854-3.5-1.211-5.342-2.071-8.843c-0.037-0.137-0.614-0.776-0.78-0.889
				c0.678,2.842,0.78,3.609,1.127,5.487c0.139,0.717,1.329,7.47,1.219,7.965c0,0-1.127-4.399-1.236-4.804
				c-0.137-0.483-1.137-6.185-1.868-6.973c-0.339-0.366,1.988,9.877,1.647,10.638c-0.248-0.559-2.729-11.17-3.646-11.756
				c0.156,0.742,1.89,6.358,1.853,9.182c-0.174-0.129-1.018-2.64-1.108-2.979c-0.276-0.962-0.433-2.941-0.396-3.655
				c0,0-0.586,2.254-0.834,2.769c-0.375-0.515-0.254-5.004-0.254-5.004l-0.523,3.226c-0.604-1.468-0.604-3.091-2.219-3.771
				c-1.351-0.568-2.894-0.447-4.316-0.639c-2.336-0.312-4.688-0.498-7.034-0.717c-13.737-1.274-27.155-4.714-41.056-4.59
				c-8.766,0.077-19.871-1.581-26.307,5.963c-4.7,5.506-9.565,12.146-12.43,18.844L26.869,1165.313z"/>
		</g>
		<g id="Lunettes_xA0_Image_1_">
			<g>
				<path fill="#424242" d="M80.963,1144.533c12.274,0.096,22.142,1.23,31.917,3.147c8.211,1.609,16.426,3.229,24.585,5.09
					c11.899,2.712,23.675,2.24,35.498-0.527c8.636-2.021,17.333-3.796,26.05-5.429c8.901-1.663,17.912-2.478,26.961-2.885
					c10.437-0.471,20.795,0.428,31.137,1.584c11.94,1.337,23.867,2.808,35.798,4.227c2.034,0.241,2.459,0.678,2.5,2.752
					c0.097,4.739,0.155,9.48,0.198,14.224c0.017,1.657-0.439,2.172-2.024,2.321c-1.871,0.178-3.304,1.069-4.42,2.558
					c-1.349,1.796-2.146,3.849-2.601,6.025c-1.316,6.334-2.535,12.688-3.897,19.012c-0.862,3.994-1.685,8.027-2.961,11.892
					c-1.646,4.97-3.636,9.854-6.81,14.074c-4.322,5.744-9.828,9.914-16.552,12.423c-6.378,2.38-13.004,3.368-19.747,3.699
					c-7.806,0.385-15.589,0.203-23.296-1.265c-6.81-1.295-13.319-3.443-18.989-7.607c-2.442-1.795-4.672-3.896-6.957-5.904
					c-2.677-2.35-4.484-5.406-6.543-8.271c-2.715-3.774-4.545-8.013-6.615-12.136c-2.75-5.476-4.686-11.255-6.686-17.022
					c-0.768-2.211-1.662-4.383-2.629-6.513c-1.906-4.207-5.369-6.001-9.777-6.242c-4.457-0.245-7.892,1.625-10.451,5.232
					c-0.748,1.053-1.465,2.165-1.979,3.348c-1.602,3.665-3.097,7.376-4.63,11.071c-1.138,2.734-2.116,5.554-3.435,8.196
					c-2.023,4.062-4.104,8.118-6.494,11.969c-1.812,2.922-3.953,5.69-6.273,8.228c-7.48,8.183-16.75,13.247-27.464,15.718
					c-7.585,1.75-15.265,2.395-23.009,2.024c-7.783-0.369-15.284-2.058-22.393-5.401c-4.984-2.347-9.382-5.422-13.138-9.537
					c-3.326-3.647-5.23-7.939-6.717-12.562c-3.245-10.088-4.965-20.507-6.832-30.898c-0.292-1.63-0.663-3.26-1.166-4.832
					c-0.992-3.097-3.032-5.186-6.154-6.135c-1.62-0.49-2.159-1.104-2.143-2.674c0.049-4.343,0.161-8.685,0.247-13.025
					c0.001-0.073,0.01-0.146,0.016-0.219c0.286-3.396,1.027-4.062,4.347-4.386c7.579-0.729,15.147-1.587,22.729-2.307
					c9.361-0.89,18.725-1.771,28.1-2.493C73.249,1144.69,78.26,1144.64,80.963,1144.533z M133.75,1170.671
					c-0.675-3.968-3.437-6.882-6.583-9.392c-5.652-4.508-12.214-6.878-19.043-8.599c-9.458-2.379-19.096-3.218-28.827-2.773
					c-3.037,0-6.075-0.083-9.11,0.018c-5.578,0.186-11.131,0.692-16.592,1.937c-4.402,1.003-8.543,2.649-12.184,5.398
					c-3.084,2.328-5.146,5.53-6.76,8.966c-0.973,2.069-1.575,4.354-2.092,6.6c-1.392,6.034-1.658,12.193-1.454,18.354
					c0.259,7.919,1.323,15.663,4.771,22.966c2.668,5.656,6.32,10.37,11.266,14.095c0.287,0.215,0.578,0.426,0.879,0.62
					c5.605,3.6,11.77,5.533,18.332,6.215c6.287,0.65,12.568,0.404,18.834-0.312c8.25-0.948,16.002-3.445,23.008-8.015
					c5.306-3.459,9.873-7.824,13.521-12.999c2.47-3.508,4.522-7.373,6.331-11.281c1.566-3.39,2.688-7.021,3.709-10.633
					c0.922-3.262,1.721-6.594,2.139-9.965C134.233,1179.088,134.218,1173.43,133.75,1170.671z M229.696,1149.224
					c-7.233-0.038-14.444,0.263-21.615,1.275c-6.538,0.925-12.939,2.345-19.021,5.058c-3.783,1.688-7.19,3.933-9.951,7.017
					c-3.897,4.354-4.996,9.675-4.452,15.383c0.817,8.609,2.446,17.024,5.915,25.008c1.859,4.286,3.949,8.386,6.809,12.119
					c3.012,3.933,6.451,7.344,10.436,10.218c0.867,0.626,1.817,1.136,2.732,1.693c6.143,3.756,12.873,5.742,19.934,6.6
					c10.811,1.313,21.555,1.231,32.08-2.083c6.25-1.968,11.453-5.504,15.403-10.824c2.214-2.979,3.654-6.396,4.921-9.844
					c1.702-4.637,2.434-9.525,2.915-14.438c0.757-7.72,1.185-15.456,0.546-23.205c-0.594-7.163-3.479-13.11-9.535-17.142
					c-3.72-2.475-7.92-3.825-12.252-4.742C246.354,1149.577,238.034,1149.29,229.696,1149.224z"/>
			</g>
		</g>
	</g>
	<text transform="matrix(1 0 0 1 815.2109 598.6956)" display="inline" font-family="'Quicksand-Light'" font-size="45">Web Developper</text>
	<g display="inline">
		<g>
			<g>
				<path fill="#FEBC12" d="M350.817,406.708v23.218H39.547c-6.751,0-12.213-5.15-12.213-11.521v-0.179
					c0-6.366,5.462-11.521,12.213-11.521L350.817,406.708L350.817,406.708z"/>
				<path fill="#C1BAAA" d="M463.333,418.228v0.179c0,6.368-5.463,11.521-12.213,11.521H350.817v-23.218H451.12
					C457.87,406.708,463.333,411.862,463.333,418.228z"/>
			</g>
			<g>
				<path fill="#C1BAAA" d="M463.333,456.926v0.177c0,6.368-5.463,11.521-12.213,11.521H350.817v-23.218H451.12
					C457.87,445.406,463.333,450.557,463.333,456.926z"/>
				<path fill="#FEBC12" d="M350.817,445.406H50.56H39.549c-6.751,0-12.213,5.15-12.213,11.521v0.177
					c0,6.368,5.462,11.521,12.213,11.521H50.56h300.258h62.117v-23.218L350.817,445.406L350.817,445.406z"/>
			</g>
			<g>
				<path fill="#FEBC12" d="M463.333,495.802c0,6.36-5.467,11.519-12.211,11.519H39.542c-6.743,0-12.209-5.157-12.209-11.519v-0.185
					c0-6.361,5.466-11.52,12.209-11.52h411.58c6.744,0,12.209,5.157,12.209,11.52v0.185H463.333z"/>
				<line fill="none" x1="310.968" y1="507.321" x2="310.968" y2="484.102"/>
				<path fill="#C1BAAA" d="M310.968,484.102h140.154c6.744,0,12.209,5.156,12.209,11.519v0.185c0,6.361-5.465,11.519-12.209,11.519
					H310.968"/>
			</g>
			<g>
				<path fill="#FEBC12" d="M463.333,534.5c0,6.36-5.467,11.518-12.211,11.518H39.542c-6.743,0-12.209-5.155-12.209-11.518v-0.185
					c0-6.36,5.466-11.52,12.209-11.52h411.58c6.744,0,12.209,5.157,12.209,11.52v0.185H463.333z"/>
				<path fill="#C1BAAA" d="M343.784,522.799h109.969c5.291,0,9.58,5.157,9.58,11.519v0.185c0,6.36-4.289,11.52-9.58,11.52H343.784"
					/>
			</g>
			<g>
				<path fill="#FEBC12" d="M463.333,573.198c0,6.358-5.467,11.517-12.211,11.517H39.542c-6.743,0-12.209-5.156-12.209-11.517
					v-0.188c0-6.358,5.466-11.517,12.209-11.517h411.58c6.744,0,12.209,5.156,12.209,11.517v0.188H463.333z"/>
				<path fill="#C1BAAA" d="M320.345,561.496h131.562c6.312,0,11.43,5.156,11.43,11.518v0.187c0,6.358-5.117,11.517-11.43,11.517
					H320.345"/>
			</g>
			<g>
				<path fill="#C1BAAA" d="M320.345,600.194h131.562c6.312,0,11.43,5.154,11.43,11.517v0.185c0,6.36-5.117,11.52-11.43,11.52
					H320.345"/>
				<path fill="#FEBC12" d="M43.611,600.194c-8.997,0-16.276,5.15-16.276,11.521v0.177c0,6.368,7.279,11.521,16.276,11.521h336.507
					v-23.218L43.611,600.194L43.611,600.194z"/>
			</g>
			<g>
				<line fill="none" x1="310.968" y1="662.108" x2="310.968" y2="638.889"/>
				<path fill="#C1BAAA" d="M463.333,650.409v0.177c0,6.368-5.463,11.521-12.213,11.521H310.968v-23.22H451.12
					C457.87,638.889,463.333,644.042,463.333,650.409z"/>
				<path fill="#FEBC12" d="M368.397,638.889v23.22H42.004c-8.108,0-14.669-5.152-14.669-11.521v-0.177
					c0-6.368,6.56-11.521,14.669-11.521H368.397L368.397,638.889z"/>
			</g>
		</g>
	</g>
	
		<image display="inline" overflow="visible" enable-background="new    " width="771" height="714" xlink:href="../../Screenshots/Screen Shot 2019-02-22 at 7.58.44 PM.png"  transform="matrix(0.7238 0 0 0.7238 2231.2822 218.0256)">
	</image>
	<rect x="1706.333" y="347.907" display="inline" fill="none" stroke="#F1C40F" stroke-miterlimit="10" width="210" height="38"/>
	<rect x="1706.333" y="398.907" display="inline" fill="none" stroke="#F1C40F" stroke-miterlimit="10" width="435" height="38"/>
	<rect x="1706.333" y="448.907" display="inline" fill="none" stroke="#F1C40F" stroke-miterlimit="10" width="435" height="123"/>
	<rect x="1930.333" y="347.907" display="inline" fill="none" stroke="#F1C40F" stroke-miterlimit="10" width="211" height="38"/>
	<rect x="2074.333" y="587.907" display="inline" fill="none" stroke="#F1C40F" stroke-miterlimit="10" width="67" height="20"/>
	<text transform="matrix(0.9983 0 0 1 1705.833 298.4075)" display="inline" font-family="'Quicksand-Regular'" font-size="22">Contactez</text>
	<text transform="matrix(0.9983 0 0 1 1808.0674 298.4075)" display="inline" font-family="'Quicksand-Light'" font-size="22">-moi !</text>
	<g display="inline">
		<path fill="#F1C40F" d="M2155.477,280.689c0,0.414-0.154,0.785-0.466,1.111c-0.311,0.327-0.672,0.491-1.086,0.491
			c-0.481,0-0.914-0.241-1.291-0.725l-7.909-10.235l-7.91,10.288c-0.31,0.414-0.723,0.619-1.24,0.619
			c-0.379,0-0.725-0.129-1.033-0.388c-0.312-0.26-0.465-0.596-0.465-1.009c0-0.378,0.119-0.705,0.359-0.981l8.479-10.855
			l-8.635-11.115c-0.207-0.275-0.312-0.586-0.312-0.932c0-0.414,0.162-0.774,0.49-1.085c0.328-0.312,0.699-0.466,1.111-0.466
			c0.518,0,0.932,0.225,1.24,0.673l8.065,10.392l7.754-10.392c0.344-0.448,0.772-0.673,1.291-0.673c0.447,0,0.803,0.13,1.062,0.388
			c0.26,0.258,0.389,0.577,0.389,0.957s-0.119,0.707-0.361,0.981l-8.375,11.013l8.479,11.012
			C2155.354,280.035,2155.477,280.344,2155.477,280.689z"/>
	</g>
	
		<line display="inline" fill="none" stroke="#F1C40F" stroke-miterlimit="10" x1="1705.833" y1="316.907" x2="1780.833" y2="316.907"/>
	<g display="inline">
		<g>
			<path fill="#E67E22" d="M1720.833,641.138c-3.865,0-7,3.102-7,7c0,1.302,0.402,2.602,1.094,3.7c0.033,0.102,0.06,0.102,0.095,0.2
				l4.344,8c0.203,0.6,0.781,1.1,1.438,1.1c0.656,0,1.201-0.5,1.406-1.1l4.844-8.7c0.498-1,0.781-2.101,0.781-3.2
				C1727.833,644.239,1724.698,641.138,1720.833,641.138z M1720.802,645.039c1.935,0,3.5,1.6,3.5,3.5c0,2-1.565,3.5-3.5,3.5
				c-1.934,0-3.5-1.5-3.5-3.5C1717.302,646.638,1718.868,645.039,1720.802,645.039z"/>
			<path fill="#F1C40F" d="M1720.833,640.17c-3.865,0-7,3.134-7,7c0,1.383,0.402,2.665,1.094,3.75
				c0.033,0.053,0.06,0.104,0.095,0.157l4.344,8.062c0.203,0.586,0.781,1.031,1.438,1.031c0.656,0,1.201-0.445,1.406-1.031
				l4.844-8.75c0.498-0.963,0.781-2.06,0.781-3.219C1727.833,643.303,1724.698,640.17,1720.833,640.17z M1720.802,644.138
				c1.935,0,3.5,1.567,3.5,3.5c0,1.935-1.565,3.5-3.5,3.5c-1.934,0-3.5-1.565-3.5-3.5
				C1717.302,645.706,1718.868,644.138,1720.802,644.138z"/>
		</g>
	</g>
	<g display="inline">
		<g>
			<g id="_x31_-Call">
			</g>
			<g id="_x32_-24_Hours_Call">
			</g>
			<g id="_x33_-Sending_Call">
			</g>
			<g id="_x34_-Incoming_Call">
			</g>
			<g id="_x35_-Talk_On_Phone">
			</g>
			<g id="_x36_-Block_Call">
			</g>
			<g id="_x37_-Hold_Call">
			</g>
			<g id="_x38_-Mute_Call">
			</g>
			<g id="_x39_-Phone_Book">
			</g>
			<g id="_x31_0-Add_Contact">
			</g>
			<g id="_x31_1-Delete_Contact">
			</g>
			<g id="_x31_2-Mail">
			</g>
			<g id="_x31_3-Message_Read">
			</g>
			<g id="_x31_4-Email">
			</g>
			<g id="_x31_5-Send_Mail">
			</g>
			<g id="_x31_6-Important_Mail">
			</g>
			<g id="_x31_7-Mail_Chain">
			</g>
			<g id="_x31_8-Messaging">
			</g>
			<g id="_x31_9-Sending">
			</g>
			<g id="_x32_0-Chat">
			</g>
			<g id="_x32_1-Mail_Attachment">
			</g>
			<g id="_x32_2-Mobile_Link">
			</g>
			<g id="_x32_3-Smartphone">
			</g>
			<g id="_x32_4-Social_Media">
			</g>
			<g id="_x32_5-Support">
			</g>
			<g id="_x32_6-Links">
			</g>
			<g id="_x32_7-Phone">
				<path fill="#E67E22" d="M1731.413,693.998l-3.158-2.207c-0.412-0.288-0.896-0.44-1.396-0.44c-0.797,0-1.543,0.393-1.998,1.047
					l-0.732,1.05c-1.23-0.824-2.602-1.977-3.908-3.281c-1.307-1.308-2.457-2.68-3.281-3.908l1.05-0.73
					c0.536-0.374,0.896-0.934,1.008-1.572c0.113-0.643-0.029-1.288-0.402-1.824l-2.207-3.158c-0.459-0.66-1.205-1.054-1.989-1.054
					c-0.271,0-0.541,0.048-0.796,0.141c-0.286,0.107-0.557,0.238-0.819,0.403l-0.437,0.308c-0.108,0.085-0.211,0.18-0.309,0.274
					c-0.533,0.532-0.91,1.206-1.123,2.002c-0.908,3.408,1.344,8.562,5.604,12.824c3.58,3.578,7.88,5.801,11.222,5.802l0,0
					c0.571,0,1.112-0.065,1.604-0.197c0.797-0.214,1.471-0.591,2.002-1.124c0.098-0.097,0.189-0.196,0.289-0.326l0.309-0.438
					c0.148-0.24,0.281-0.51,0.388-0.801C1732.696,695.779,1732.321,694.633,1731.413,693.998z"/>
			</g>
			<g id="_x32_8-Phone-2">
			</g>
			<g id="_x32_9-Map">
			</g>
			<g id="_x33_0-Location">
			</g>
			<g id="_x33_1-Write">
			</g>
			<g id="_x33_2-World">
			</g>
			<g id="_x33_3-Home">
			</g>
			<g id="_x33_4-Calendar">
			</g>
			<g id="_x33_5-Website">
			</g>
			<g id="_x33_6-Info">
			</g>
			<g id="_x33_7-Bull_Horn">
			</g>
			<g id="_x33_8-Profile">
			</g>
			<g id="_x33_9-Quote__x26__Answer">
			</g>
			<g id="_x34_0-Notification">
			</g>
			<g id="_x34_1-Share">
			</g>
			<g id="_x34_2-Time">
			</g>
		</g>
		<g>
			<g id="_x31_-Call_1_">
			</g>
			<g id="_x32_-24_Hours_Call_1_">
			</g>
			<g id="_x33_-Sending_Call_1_">
			</g>
			<g id="_x34_-Incoming_Call_1_">
			</g>
			<g id="_x35_-Talk_On_Phone_1_">
			</g>
			<g id="_x36_-Block_Call_1_">
			</g>
			<g id="_x37_-Hold_Call_1_">
			</g>
			<g id="_x38_-Mute_Call_1_">
			</g>
			<g id="_x39_-Phone_Book_1_">
			</g>
			<g id="_x31_0-Add_Contact_1_">
			</g>
			<g id="_x31_1-Delete_Contact_1_">
			</g>
			<g id="_x31_2-Mail_1_">
			</g>
			<g id="_x31_3-Message_Read_1_">
			</g>
			<g id="_x31_4-Email_1_">
			</g>
			<g id="_x31_5-Send_Mail_1_">
			</g>
			<g id="_x31_6-Important_Mail_1_">
			</g>
			<g id="_x31_7-Mail_Chain_1_">
			</g>
			<g id="_x31_8-Messaging_1_">
			</g>
			<g id="_x31_9-Sending_1_">
			</g>
			<g id="_x32_0-Chat_1_">
			</g>
			<g id="_x32_1-Mail_Attachment_1_">
			</g>
			<g id="_x32_2-Mobile_Link_1_">
			</g>
			<g id="_x32_3-Smartphone_1_">
			</g>
			<g id="_x32_4-Social_Media_1_">
			</g>
			<g id="_x32_5-Support_1_">
			</g>
			<g id="_x32_6-Links_1_">
			</g>
			<g id="_x32_7-Phone_1_">
				<path fill="#F1C40F" d="M1731.901,693.51l-3.16-2.206c-0.412-0.289-0.896-0.438-1.396-0.438c-0.795,0-1.541,0.391-1.996,1.044
					l-0.733,1.051c-1.229-0.824-2.601-1.976-3.908-3.282c-1.307-1.308-2.457-2.678-3.281-3.905l1.051-0.733
					c0.535-0.372,0.896-0.932,1.009-1.572c0.112-0.64-0.029-1.288-0.402-1.822l-2.207-3.157c-0.461-0.66-1.207-1.057-1.992-1.057
					c-0.271,0-0.538,0.048-0.793,0.145c-0.288,0.104-0.557,0.235-0.821,0.4l-0.437,0.31c-0.108,0.085-0.209,0.177-0.309,0.272
					c-0.531,0.532-0.91,1.205-1.123,2.001c-0.908,3.408,1.344,8.562,5.604,12.824c3.578,3.579,7.879,5.802,11.221,5.802l0,0
					c0.572,0,1.111-0.064,1.604-0.195c0.797-0.213,1.471-0.593,2.002-1.123c0.098-0.099,0.188-0.198,0.289-0.325l0.307-0.439
					c0.15-0.237,0.281-0.509,0.39-0.8C1733.186,695.291,1732.811,694.147,1731.901,693.51z"/>
			</g>
			<g id="_x32_8-Phone-2_1_">
			</g>
			<g id="_x32_9-Map_1_">
			</g>
			<g id="_x33_0-Location_1_">
			</g>
			<g id="_x33_1-Write_1_">
			</g>
			<g id="_x33_2-World_1_">
			</g>
			<g id="_x33_3-Home_1_">
			</g>
			<g id="_x33_4-Calendar_1_">
			</g>
			<g id="_x33_5-Website_1_">
			</g>
			<g id="_x33_6-Info_1_">
			</g>
			<g id="_x33_7-Bull_Horn_1_">
			</g>
			<g id="_x33_8-Profile_1_">
			</g>
			<g id="_x33_9-Quote__x26__Answer_1_">
			</g>
			<g id="_x34_0-Notification_1_">
			</g>
			<g id="_x34_1-Share_1_">
			</g>
			<g id="_x34_2-Time_1_">
			</g>
		</g>
	</g>
	<g display="inline">
		<g>
			<path fill="#E67E22" d="M1721.833,718.37c-5.365,0-9.732,4.366-9.732,9.73c0,5.366,4.367,9.732,9.732,9.732
				c1.967,0,3.859-0.582,5.475-1.684c0.556-0.382,0.697-1.139,0.318-1.691c-0.379-0.557-1.133-0.695-1.688-0.32
				c-1.212,0.826-2.63,1.264-4.104,1.264c-4.025,0-7.299-3.273-7.299-7.301c0-4.024,3.272-7.299,7.299-7.299
				s7.299,3.273,7.299,7.299v0.608c0,0.671-0.545,1.217-1.215,1.217c-0.672,0-1.219-0.546-1.219-1.217v-3.649
				c0-0.673-0.543-1.217-1.218-1.217c-0.534,0-0.979,0.354-1.139,0.838c-0.707-0.521-1.568-0.838-2.512-0.838
				c-2.348,0-4.258,1.91-4.258,4.258c0,2.35,1.91,4.26,4.258,4.26c1.271,0,2.402-0.571,3.184-1.459
				c0.668,0.881,1.715,1.459,2.9,1.459c2.014,0,3.647-1.639,3.647-3.649v-0.607C1731.564,722.737,1727.198,718.37,1721.833,718.37z
				 M1721.833,729.927c-1.006,0-1.824-0.817-1.824-1.825c0-1.006,0.818-1.823,1.824-1.823s1.824,0.817,1.824,1.823
				C1723.657,729.11,1722.839,729.927,1721.833,729.927z"/>
		</g>
		<g>
			<path fill="#F1C40F" d="M1722.321,717.882c-5.365,0-9.732,4.366-9.732,9.732s4.365,9.73,9.732,9.73
				c1.967,0,3.858-0.582,5.475-1.684c0.556-0.38,0.697-1.137,0.318-1.691c-0.379-0.557-1.134-0.693-1.689-0.318
				c-1.211,0.825-2.629,1.262-4.104,1.262c-4.025,0-7.299-3.273-7.299-7.299c0-4.026,3.272-7.299,7.299-7.299
				c4.025,0,7.299,3.271,7.299,7.299v0.606c0,0.672-0.545,1.219-1.217,1.219c-0.671,0-1.218-0.547-1.218-1.219v-3.647
				c0-0.673-0.543-1.217-1.217-1.217c-0.535,0-0.979,0.353-1.141,0.838c-0.705-0.521-1.566-0.838-2.51-0.838
				c-2.349,0-4.259,1.908-4.259,4.258c0,2.348,1.91,4.258,4.259,4.258c1.271,0,2.401-0.571,3.184-1.459
				c0.668,0.881,1.715,1.459,2.9,1.459c2.012,0,3.647-1.637,3.647-3.649v-0.606C1732.054,722.248,1727.688,717.882,1722.321,717.882
				z M1722.321,729.44c-1.006,0-1.824-0.819-1.824-1.825s0.818-1.825,1.824-1.825s1.823,0.819,1.823,1.825
				S1723.327,729.44,1722.321,729.44z"/>
		</g>
	</g>
	<path display="inline" fill="none" stroke="#E67E22" stroke-width="3" stroke-miterlimit="10" d="M2166.331,269.907
		c0,20.556,0,20-17.022,20h-8.947c-16.898,0-16.898,0.556-17.023-20l0,0c0.125-20.557,0.125-20,17.023-20h8.947
		C2166.331,249.907,2166.331,249.352,2166.331,269.907L2166.331,269.907z"/>
</g>
<g id="Layer_2" display="none">
	<g display="inline">
		<path fill="#F39C12" d="M-96.125,41.719c-4.416,0-8.001,3.587-8.001,8v12v8v8.002v8v12c0,4.422,3.585,8,8.001,8h36h36
			c4.422,0,8.001-3.578,8.001-8V69.719v-8v-12c0-4.413-3.579-8-8.001-8h-36H-96.125z"/>
		<path fill="#E67E22" d="M-96.125,105.721c-2.407,0-4.532-1.2-6.001-2.802c1.227-4,6.961-10.398,15.876-20
			c24.642-27.198,24.632-27.198,50.755-0.8c10.359,10.801,16.523,17.207,17.121,20.801c-1.46,1.602-3.477,2.802-5.75,2.802h-36
			L-96.125,105.721L-96.125,105.721z"/>
		<path fill="#F1C40F" d="M-96.125,41.719c-2.407,0-4.532,0.802-6.001,2.398c1.227,4,6.961,10.401,15.876,20
			c24.642,27.203,24.632,27.602,50.755,0.801c10.359-10.398,16.523-16.801,17.121-20.801c-1.46-1.599-3.477-2.398-5.75-2.398h-36
			H-96.125L-96.125,41.719z"/>
	</g>
</g>
<path fill="#F39C12" d="M8.001,43.052c-4.416,0-8.001,3.587-8.001,8v12v8v8.002v8v12c0,4.422,3.585,8,8.001,8h36h36
	c4.422,0,8.001-3.578,8.001-8V71.052v-8v-12c0-4.413-3.579-8-8.001-8h-36H8.001z"/>
<path fill="#E67E22" d="M8.001,107.054c-2.407,0-4.532-1.2-6.001-2.802c1.227-4,6.961-10.398,15.876-20
	c24.642-27.198,24.632-27.198,50.755-0.8c10.359,10.801,16.522,17.207,17.121,20.801c-1.46,1.602-3.478,2.802-5.75,2.802h-36
	L8.001,107.054L8.001,107.054z"/>
<path fill="#F8C045" d="M68.63,23.835C42.751,3.278,42.751,3.278,17.875,24.499C8.961,32.448,3.437,42.22,2.211,45.535
	c1.227,3.312,6.75,8.123,15.665,16.072c24.642,22.535,24.632,22.865,50.755,0.664c10.359-8.613,16.437-13.554,17.034-16.867
	C85.067,42.09,78.99,32.448,68.63,23.835z"/>
</svg>
