<?xml version="1.0" encoding="utf-8"?>
<!-- Generator: Adobe Illustrator 16.0.0, SVG Export Plug-In . SVG Version: 6.00 Build 0)  -->
<!DOCTYPE svg PUBLIC "-//W3C//DTD SVG 1.1//EN" "http://www.w3.org/Graphics/SVG/1.1/DTD/svg11.dtd">
<svg version="1.1" id="Layer_1" xmlns="http://www.w3.org/2000/svg" xmlns:xlink="http://www.w3.org/1999/xlink" x="0px" y="0px"
	 width="50px" height="64.002px" viewBox="0 0 88.002 64.002" enable-background="new 0 0 88.002 64.002" xml:space="preserve">
<g id="Layer_1_1_" display="none">
	<rect x="1750" y="85" display="inline" fill="#878686" width="526" height="676"/>
	<g display="inline">
		<path fill="#E6E6E6" d="M0,1c0,0,16.241,63,85.918,107s122.457,40,122.457,40s845.781,13,925.281,13S1325,201,1365,301.399V765H0
			V1z"/>
	</g>
	<g display="inline">
		<path fill="#FDC000" d="M1367,1538c0,0-16.211,63-85.889,107c-69.679,44-122.441,40-122.441,40s-845.806,13-925.306,13
			C153.865,1698,42,1738,2,1838.4V2302h1365V1538z"/>
	</g>
	<g display="inline">
		<rect x="-350.5" y="-0.5" fill="none" stroke="#000000" width="217" height="217"/>
		<line fill="none" stroke="#000000" x1="-349.274" y1="215.331" x2="-133.97" y2="0.027"/>
		<line fill="none" stroke="#000000" x1="-349.274" y1="0.027" x2="-133.97" y2="215.331"/>
	</g>
	<rect x="-303.5" y="401.5" display="inline" fill="none" stroke="#000000" width="140" height="140"/>
	<rect x="-303" y="234" display="inline" fill="#E0E0E0" width="140" height="140"/>
	<rect x="698.5" y="345.058" display="inline" fill="none" width="556.995" height="77.885"/>
	<text transform="matrix(1 0 0 1 698.499 400.5566)" display="inline" font-family="'Quicksand-Regular'" font-size="75">NICOLAS HOOG</text>
	<g display="inline">
		<path fill="#FDC000" d="M138.028,1228.712l-14.986-27.614c-1.671,1.952-3.354,3.895-5.033,5.838l0.018-0.021
			c-1.105,1.324-2.213,2.65-3.318,3.978l0.018-0.021c-0.896,1.021-1.793,2.048-2.688,3.073l-1.316,1.523
			c-3.269,4.185-6.951,8.003-10.518,11.928c0,0.001,0.016-0.021,0.016-0.021c-1.767,2.06-3.531,4.116-5.297,6.175l0.018-0.021
			c-1.105,1.326-2.213,2.649-3.318,3.978l0.018-0.021c-0.373,0.444-0.746,0.894-1.121,1.34l0.019-0.021l-2.213,2.662l0.018-0.021
			c-0.37,0.448-0.743,0.896-1.114,1.343l0.018-0.021c-1.396,1.618-2.797,3.238-4.194,4.857l0.017-0.021
			c-0.236,0.271-0.475,0.544-0.711,0.814c-0.313,0.399-0.654,0.781-0.938,1.201c-4.64,6.854-9.052,13.848-13.127,21.052
			c-0.226,0.492-0.431,0.995-0.675,1.479c-2.643,5.215-6.312,10.029-7.934,15.614c-3.906,13.436-6.928,27.104-7.697,41.167
			l-0.006,1.312c0,1.694,0,3.389,0,5.081c0,0.587,0.004,1.169,0.006,1.753c0.207,5.417,0.479,10.822,1.367,16.188
			c3.715,22.448,11.219,43.196,27.342,59.927c4.258,4.418,8.205,9.234,13.754,12.327c9.638,5.37,20.068,8.778,30.521,11.866
			c6.332,1.869,9.854,5.376,12.357,11.155c4.045,9.33,4.644,19.104,4.341,28.953c-0.275,8.951-1.284,17.877-2.005,26.812
			c-0.058,0.716,0.229,1.021,0.751,1.396c3.464,2.485,7.156,2.084,10.941,0.995c0.783-0.226,1.088-0.608,1.242-1.408
			c1.6-8.271,1.555-16.672,2.049-25.031c0.729-12.38-1.271-24.212-6.807-35.373c-0.096-0.191-0.146-0.406-0.215-0.61
			c0.244,0.013,0.497-0.01,0.732,0.041c2.146,0.464,4.271,1.037,6.434,1.398c10.449,1.739,21.047,1.918,31.574,2.827
			c9.807,0.85,19.633,1.818,29.462,0.394c15.55-2.26,30.67-6.286,45.554-11.254c0.396-0.133,0.821-0.167,1.236-0.246
			c-0.041,0.389-0.045,0.784-0.127,1.164c-0.717,3.283-1.43,6.566-2.176,9.845c-1.742,7.616-3.104,15.274-2.856,23.134
			c0.19,6.202-0.261,12.428-1.337,18.465c-2.422,13.562-3.699,27.317-6.971,40.731c-0.149,0.621-0.065,1.097,0.498,1.534
			c3.405,2.634,7.699,3.479,11.207,1.883c0.314-0.146,0.514-0.479,0.608-0.812c3.495-12.191,6.976-24.328,8.044-37.123
			c0.821-9.812,2.91-19.515,3.076-29.428c0.191-11.355,2.623-22.425,4.645-33.539c0.133-0.722,0.459-1.023,1.135-1.25
			c2.777-0.93,5.629-1.722,8.277-2.938c19.487-8.973,39.393-16.982,59.295-24.922c16.816-6.709,31.817-16.047,46.496-26.396
			c10.21-7.193,18.419-15.955,25.927-25.775c9.258-12.115,10.479-26.563,12.92-40.681c1.021-5.919,2.203-11.55,5.99-16.456
			c2.516-3.26,5.245-6.297,7.94-9.385c4.954-5.67,10.214-11.113,13.026-18.342c4.355-11.195,5.694-22.854,5.67-34.749
			c-0.074-0.54-0.169-1.081-0.219-1.623c-0.361-4.069-1.558-7.786-4.412-10.854c-4.175-4.482-21.523-13.823-23.007-17.812
			c-1.368-3.688-2.526-7.512-4.911-10.729c-4.79-6.466-10.302-12.258-16.397-17.521c-7.176-6.201-13.226-13.722-21.791-18.302
			c-2.645-1.412-5.193-3.065-8.073-3.849c-1.133-0.309-2.272-0.579-3.417-0.837c-0.021,0.017-0.031,0.036-0.053,0.054
			c-4.32,3.683-6.641,8.888-9.122,13.876c-2.444,4.911-4.094,10.594-4.687,16.1c-0.082,0.766,0.652,1.113,1.086,1.365
			c9.779,5.714,13.146,15.033,14.492,25.531c1.791,13.957-1.485,27.166-6.072,40.13c-3.928,11.104-9.516,21.359-16.739,30.694
			c-0.002,0.005-0.006,0.01-0.006,0.01l0.001-0.001c-6.062,7.94-12.374,15.657-19.816,22.377c-3.558,3.211-6.969,6.581-10.767,9.518
			c0,0.001,0.022-0.018,0.022-0.018c-4.549,4.296-9.058,8.64-14.312,12.103c-1.544,1.245-3.086,2.491-4.632,3.737l0.021-0.016
			c-0.666,0.52-1.33,1.042-1.998,1.562c0,0.001,0.022-0.018,0.022-0.018c-0.302,0.226-0.601,0.452-0.899,0.68l0.021-0.019
			c-8.559,6.05-16.375,13.041-24.713,19.377c-14.273,10.851-27.926,22.466-40.338,35.412c-6.763,7.052-12.578,14.963-18.072,23.068
			c-0.111,0.166-0.307,0.277-0.465,0.414c-1.7,3.522-3.851,6.755-6.075,9.978c-1.53,2.213-2.397,4.902-3.416,7.438
			c-0.341,0.846-0.696,1.165-1.593,1.245c-13.433,1.192-26.803,0.874-40.146-1.217c-9.437-1.479-18.772-3.421-28.094-5.462
			c-0.884-0.193-1.776-0.497-2.563-0.938c-6.811-3.794-13.851-7.245-20.338-11.533c-15.072-9.966-26.935-22.798-33.756-39.856
			c-4.613-11.546-6.581-23.538-6.796-35.917c-0.231-13.521,1.37-26.738,5.76-39.567c0.117-0.341,0.378-0.98,0.378-0.98
			c0.375-1.12,0.75-2.241,1.127-3.362c0.057-0.2,0.112-0.401,0.168-0.604c0.164-0.371,0.325-0.741,0.489-1.112
			c0-0.002-0.017,0.021-0.017,0.021c0.152-0.373,0.308-0.745,0.461-1.119l-0.016,0.021c0.228-0.528,0.451-1.057,0.676-1.585
			c0.048-0.135,0.093-0.271,0.137-0.406c0.904-1.774,1.812-3.551,2.717-5.326c1.35-1.661,2.696-3.323,4.044-4.984
			c0.193-0.238,0.386-0.478,0.58-0.714l3.237-3.928c0.24-0.299,0.482-0.599,0.727-0.896c0.113-0.142,0.229-0.282,0.342-0.426
			c0.25-0.303,0.5-0.604,0.752-0.906c0.045-0.062,0.09-0.129,0.133-0.188c0.248-0.303,0.498-0.604,0.746-0.907
			c0.274-0.354,0.549-0.713,0.822-1.067c0.236-0.312,0.475-0.624,0.709-0.938c0.209-0.271,0.416-0.548,0.623-0.818
			c0.234-0.308,0.469-0.611,0.703-0.917c0.783-1.089,1.569-2.18,2.354-3.268c0.32-0.438,0.638-0.879,0.957-1.315
			c1.218-1.688,2.435-3.376,3.649-5.062l0.716-0.902l-0.018,0.021c3.025-3.646,6.809-6.499,10.251-9.705
			c2.375-2.214,4.913-4.253,7.378-6.369l-0.021,0.019C134.278,1231.775,138.028,1228.712,138.028,1228.712z M135.45,1423.704
			c-0.475,1.207-1.756,1.127-2.639,1.354c-0.586-0.062-0.979,0.027-1.315-0.443c-2.259-3.197-6.134-4.059-9.595-2.175
			c-0.907,0.492-0.774,1.351-0.631,2.134c0.09,0.481,0.451,0.911,0.604,1.392c0.283,0.897,1.978,1.328,1.093,2.521
			c-0.886,1.195-2.152,0.278-3.136-0.021c-2.181-0.66-3.956-2.016-4.156-4.438c-0.181-2.225,0.769-4.112,2.69-5.427
			c3.5-2.388,12.396-2.753,16.117,1.814C135.281,1421.396,135.942,1422.452,135.45,1423.704z M301.666,1387.007
			c-1.572,0.907-3.356,1.09-5.021,0.13c-1.347-0.775-1.519-2.144-1.461-3.553c0.031-0.771,0.416-1.334,1.103-1.642
			c4.853-2.186,4.349-8.837,1.628-11.869c-2.083-2.319-3.812-0.505-5.447,0.755c-1.035,0.799-2.031,1.512-3.199,0.494
			c-1.229-1.069-1.521-2.588-0.912-4.021c1.48-3.468,4.461-4.775,7.987-5.31c2.833-0.429,4.319,1.366,5.783,3.222
			c2.157,2.735,4.302,9.029,4.349,13.248C306.244,1381.521,305.214,1384.961,301.666,1387.007z"/>
		<path fill="none" d="M306.474,1378.462c-0.229,3.061-1.26,6.499-4.808,8.545c-1.572,0.907-3.356,1.09-5.021,0.13
			c-1.347-0.775-1.519-2.144-1.461-3.553c0.031-0.771,0.416-1.334,1.103-1.642c4.853-2.186,4.349-8.837,1.628-11.869
			c-2.083-2.319-3.812-0.505-5.447,0.755c-1.035,0.799-2.031,1.512-3.199,0.494c-1.229-1.069-1.521-2.588-0.912-4.021
			c1.48-3.468,4.461-4.775,7.987-5.31c2.833-0.428,4.319,1.367,5.783,3.222C304.281,1367.949,306.426,1374.24,306.474,1378.462z"/>
		<path fill="none" d="M132.813,1425.059c-0.588-0.062-0.98,0.026-1.316-0.444c-2.26-3.197-6.133-4.059-9.594-2.177
			c-0.908,0.495-0.775,1.353-0.631,2.136c0.088,0.48,0.451,0.91,0.604,1.392c0.283,0.897,1.977,1.328,1.094,2.521
			c-0.887,1.196-2.152,0.279-3.137-0.02c-2.18-0.66-3.956-2.016-4.157-4.438c-0.181-2.224,0.769-4.11,2.69-5.426
			c3.5-2.388,12.396-2.753,16.117,1.814c0.797,0.978,1.457,2.034,0.968,3.286C134.978,1424.911,133.696,1424.829,132.813,1425.059z"
			/>
		<path fill="#FFCD50" d="M436.263,1201.931c4.276,2.471,27.724,20.354,30.024,22.235c4.388,4.508,6.739,12.652,6.874,19.289
			c0.285,14.211-37.71,56.394-39.817,58.771c0.772-2.231-0.768-2.265,0.369-4.654C452.36,1258.33,444.18,1213.542,436.263,1201.931z
			"/>
		<path fill="#FFCD50" d="M364.905,1192.153l3.273-9.522c9.799,0,8.467,7.548,13.69,11.002c2.974,12.665,4.213,30.217,1.053,42.141
			c-1.853,6.978-7.006,32.719-13.743,39.625c-5.58,5.718-57.918,55.551-62.709,59.916c54.118-75.483,72.189-93.063,54.118-133.067
			L364.905,1192.153z"/>
		<g id="Layer_3_xA0_Image_2_">
			<path fill="#FDC000" d="M112.242,1175.318c-3.714-11.644-6.709-23.438-7.972-35.636c-0.504-4.876-1.588-9.693-2.012-14.573
				c-1.174-13.485-3.171-26.896-3.256-40.482c-0.059-9.396-0.406-18.814-2.402-28.061c-1.592-7.375-3.101-14.77-4.289-22.221
				c-0.463-2.912-0.58-5.841,0.782-8.615c1.054-2.148,2.363-2.812,4.634-2.101c1.18,0.371,2.276,0.992,3.414,1.498
				c0.258,0.115,0.582,0.376,0.771,0.302c0.375-0.146,0.188-0.581,0.16-0.879c-0.514-5.134-1.041-10.271-1.567-15.402
				c-0.862-8.415-1.716-16.83-2.59-25.242c-0.72-6.904-0.438-13.926-2.038-20.717c-1.199-5.093-3.179-10.007-4.252-15.115
				c-1.91-9.094-3.623-18.235-4.326-27.537c-0.705-9.312-0.331-18.495,3.161-27.265c1.614-4.057,7.8-13.189,11.205-16.596
				c0.974-0.973-3.254,1.472-3.254,1.472c1.528-2.018,3.271-3.896,5.294-5.586c1.682-1.403,3.428-2.831,5.363-3.81
				c3.356-1.688,5.81-4.627,9.156-6.284c0.758-0.375,0.278-0.846,0.033-1.265c-2.544-4.357-4.59-8.847-4.113-14.1
				c0.311-3.413,0.979-6.742,2.045-9.989c2.412-7.335,5.136-14.575,10.022-20.654c0,0-1.896,10.826-0.286,6.684
				c4.328-11.128,9.621-17.182,18.334-20.715c3.588-1.453,7.217-2.944,11.092-3.96c7.004-1.833,13.84-4.35,21.097-5.209
				c6.911-0.815,13.815-1.73,20.796-0.98c2.38,0.256,10.745,2.592,13.132,2.336c5.698-0.609,11.992-3.341,17.204-6.253
				c4.035-2.254,8.814-2.626,13.219-4.001c12.922-4.038,24.799-1.264,36.018,5.655c0.285,0.175,1.642,1.27,1.897,0.72
				c0.366-0.776,0.859-1.184,0.859-1.184s-0.275,2.06,1.571,2.418c3.416,0.667,4.151,0.717,7.811-0.012
				c0.38-0.076,3.76-1.183,4.127-1.174c-1.365,3.265-5.26,2.577-1.673,3.907c9.752,3.611,19.063,8.132,28.343,12.769
				c12.369,6.185,24.385,12.983,36.012,20.464c6.68,4.297,11.387,10.537,16.414,16.531c7.02,8.374,10.537,18.46,14.668,28.247
				c1.433,3.395,2.59,6.87,3.523,10.404c0.466,1.764-3.126-4.027-2.768-2.237c0.764,3.806,6.809,18.937,6.076,33.605
				c-0.371,7.428,0.555,14.867,0.094,22.306c-0.498,7.974-1.508,15.853-3.33,23.663c-0.764,3.283-0.229,6.854-0.434,10.288
				c-0.363,6.232-1.705,12.311-2.998,18.405c-2.291,10.788-4.336,21.624-4.906,32.683c-0.084,1.601,0.24,2.115,1.746,1.219
				c0.342-0.203,0.717-0.347,1.078-0.519c0.898-0.396,1.787-0.827,2.703-1.182c3.004-1.146,5.529,0.183,6.279,3.312
				c0.408,1.719,0.639,3.497,0.411,5.233c-1.001,7.612-2.067,15.216-3.175,22.812c-0.725,4.97-2.166,9.789-3.244,14.686
				c-1.534,6.974-2.196,13.966-1.922,21.135c0.412,10.833-0.541,21.656-0.834,32.486c-0.347,12.67-0.853,25.32-3.356,37.785
				c-1.226,6.092-1.622,12.311-4.212,18.188c-2.32,5.269-4.219,10.763-6.303,16.156c-0.219,0.438-0.993,2.271-1.211,2.711
				c-0.267,0.425-0.767,2.507-1.568,4.007c-0.434,0.812-1.889,4.058-2.188,5.064c0.148-0.134-4.172,8.181-5.131,11.109
				c-1.83,3.59-3.662,7.18-5.492,10.771c-2.311,3.146-4.027,6.625-5.727,10.117c-5.263,11.76-12.656,22.183-20.293,32.458
				c-3.92,5.278-8.342,10.074-13.059,14.667c-4.745,4.625-9.668,9.059-15.293,12.462c-7.394,4.474-15.687,6.179-24.32,6.7
				c-15.598,0.943-31.23,1.501-46.706,3.969c-3.763,0.6-7.573,0.516-11.388-0.043c-4.74-0.691-9.407-1.282-13.859-3.438
				c-5.057-2.445-9.738-5.316-14.076-8.865c-13.906-11.379-37.285-41.325-37.769-41.885c-5.847-6.793-13.042-17.386-17.681-25.534
				c-7.531-13.237-14.223-26.852-19.125-41.296C115.306,1182.399,113.79,1178.854,112.242,1175.318z M285.581,1171.27
				c-8.309-3.354-16.908-4.912-25.881-4.315c-8.646,0.574-17.237,1.915-25.973,0.918c-6.968-0.795-13.733,0.322-20.314,3.022
				c-7.719,3.172-14.592,7.783-21.723,11.968c-5.588,3.273-9.351,7.882-10.403,14.467c-0.403,2.521-0.315,5.035-0.298,7.561
				c0.045,5.865,0.938,11.493,4.006,16.665c4.398,7.424,10.12,13.535,17.066,18.657c5.314,3.917,10.97,5.346,17.375,3.928
				c1.041-0.229,2.236-0.438,2.539-1.634c0.314-1.257-0.074-2.474-1.017-3.423c-0.437-0.438-0.913-0.861-1.44-1.173
				c-1.324-0.781-2.666-1.539-4.043-2.219c-2.554-1.264-4.703-2.953-6.209-5.408c-1.207-1.968-1.164-6.423,0.109-7.888
				c2.318-2.673,4.879-2.843,7.779-0.457c0.707,0.583,1.395,0.934,2.355,0.938c7.768,0.078,15.534,0.014,23.299-0.216
				c8.854-0.262,17.612,1.011,26.416,1.547c4.906,0.3,9.883,0.761,14.52-1.716c3.07-1.642,5.883-0.171,6.324,3.246
				c0.21,1.614-0.021,3.187-0.713,4.714c-1.289,2.85-3.688,4.379-6.383,5.567c-1.941,0.856-3.533,2.073-4.515,3.99
				c-1.421,2.778-0.726,4.786,2.099,6.098c1.926,0.896,4.018,1.049,6.07,1.415c4.13,0.739,7.232-0.693,9.78-3.964
				c2.44-3.138,4.396-6.562,6.575-9.854c4.754-7.168,8.645-14.719,11.205-22.918c1.383-4.424,2.432-8.96,0.513-13.524
				c-0.835-1.987-1.714-3.991-2.849-5.817c-3.953-6.366-9.471-11.205-15.562-15.439
				C293.554,1174.237,285.853,1171.379,285.581,1171.27z M120.608,1137.714c0.16,0.328,0.326,0.652,0.479,0.984
				c1.71,3.801,3.093,7.771,5.304,11.318c5.981,9.6,13.211,18.257,20.469,26.891c4.408,5.241,8.777,10.522,11.562,16.884
				c0.543,1.944,1.499,3.711,2.431,5.48c0.25,0.476,0.447,1.318,1.084,1.189c0.517-0.104,0.229-0.901,0.271-1.382
				c0.104-1.201,0.18-2.406,0.163-3.609c-0.058-3.896,0.473-7.72,1.414-11.485c0.743-2.972,1.543-5.928,2.315-8.889
				c2.48-7.39,6.631-13.5,13.041-18.151c3.623-2.63,7.262-5.206,11.131-7.438c7.336-4.229,14.961-7.525,23.718-7.122
				c4.812,0.224,9.532,0.58,14.026,2.657c9.021,4.175,18.356,6.508,28.426,4.576c3.683-0.705,7.283-1.567,10.841-2.723
				c12.088-3.927,24.226-5.771,36.479-0.634c0.813,0.344,1.645,0.637,2.325,1.212c6.958,5.892,13.837,11.81,19.243,19.312
				c5.521,7.664,9.027,16.128,11.357,25.173c0.737,2.863,0.623,5.812,0.78,8.734c0.021,0.377,0.208,0.743,0.316,1.115
				c0.472-0.154,0.454-0.628,0.577-0.973c1.012-2.789,2.072-5.562,2.965-8.391c3.431-10.862,7.718-21.323,13.518-31.173
				c3.577-6.073,8.066-11.521,11.576-17.621c0.17-0.179,0.396-0.33,0.5-0.541c1.755-3.544,3.576-7.06,5.213-10.655
				c1.368-3.005,2.354-6.194,2.618-9.479c0.604-7.465,2.36-14.763,3.024-22.211c0.293-3.308,0.859-6.608,0.861-9.914
				c0-3.858-0.615-7.715-0.722-11.577c-0.185-6.671-1.781-13.186-2.043-19.841c-0.045-1.153-0.431-2.293-0.619-3.443
				c-1.457-8.891-2.901-17.781-4.356-26.672c-1.475-9.034-3.107-18.046-4.395-27.106c-1.145-8.056-2.391-16.091-3.751-24.108
				c-0.923-5.436-2.06-10.834-2.845-16.286c-1.561-10.843-3.153-21.675-6.271-32.206c-0.318-1.072-3.318-6.776-4.629-8.584
				c-6.125-8.453-13.535-15.233-23.611-18.762c-14.002-4.898-28.43-6.806-43.193-6.365c-7.372,0.219-14.704,0.854-21.723,3.422
				c-3.957,1.448-8.019,2.552-12.084,3.663c-7.92,2.168-15.748,2.502-23.685-0.088c-4.321-1.411-13.202-5.146-13.746-5.322
				c-6.056-2.435-12.179-4.735-18.559-6.123c-7.253-1.577-14.411-1.321-21.153,2.36c-2.925,1.598-5.925,3.062-8.906,4.554
				c-12.181,6.091-22.772,14.192-32.049,24.212c-4.775,5.161-7.249,11.037-7.923,17.771c-0.44,4.397-0.263,8.856-0.418,13.285
				c-0.358,10.246-1.103,20.427-2.804,30.585c-1.973,11.799-5.133,23.305-7.566,34.98c-0.066,0.083-0.181,0.159-0.197,0.252
				c-0.928,5.477-1.527,10.989-1.81,16.539c-0.21,4.122-0.207,8.274-0.752,12.354c-1.082,8.082-1.608,16.189-1.906,24.325
				c-0.124,3.361-0.14,6.735-0.481,10.074c-1,9.771,0.767,19.134,3.871,28.333c1.403,4.159,2.778,8.328,4.123,12.505
				C116.026,1128.501,118.101,1133.2,120.608,1137.714z"/>
			<path fill="#FEE697" d="M111.168,1173.229c1.547,3.534,3.062,7.082,4.153,10.791
				C113.745,1180.499,112.29,1176.929,111.168,1173.229z"/>
			<path fill="none" d="M200.481,946.289c-0.203-0.088-0.332-0.197-0.418-0.168c-0.102,0.034-0.166,0.186-0.246,0.286
				c0.098,0.076,0.205,0.223,0.287,0.209C200.214,946.601,200.301,946.457,200.481,946.289z"/>
			<path fill="#FEEEBA" d="M200.481,946.289c-0.182,0.168-0.269,0.312-0.377,0.328c-0.082,0.014-0.188-0.133-0.285-0.208
				c0.08-0.104,0.144-0.254,0.246-0.287C200.149,946.092,200.28,946.201,200.481,946.289z"/>
			<path fill="#FEC203" d="M274.101,1128.479c-0.935,0.521-1.979,0.804-3.022,0.991c-0.249,0.045-0.577,0.021-0.634-0.284
				c-0.071-0.375,1.617-0.708,2.201-0.936c0.875-0.341,3.647-1.594,2.978-3.643c-0.479-1.452-1.892-1.986-3.2-2.271
				c-2.611-0.569-4.988,0.537-7.354,1.443c-3.756,1.43-6.895,3.869-10.272,6.027c-5.12,3.272-11.334,3.362-17.327,0.294
				c-4.305-2.209-7.32-5.059-11.609-7.268c-1.986-1.035-4.141-1.703-6.459-1.099c-2.482,0.658-3.226,2.062-2.043,4.353
				c0.433,0.834,0.854,1.43,1.468,2.135c1.034,1.185,2.803,1.585,2.721,2.107c-0.063,0.431-0.688,0.247-1.045,0.165
				c-0.56-0.128-0.942-0.357-1.513-0.771c-1.852-1.228-2.903-3.006-3.271-5.121c-0.432-2.465,1.421-4.188,4.591-4.345
				c3.748-0.19,6.826,1.567,9.858,3.482c4.442,2.812,7.89,5.8,13.094,7.119c3.647,0.926,7.75-0.257,10.821-2.182
				c4.832-3.023,9.383-6.388,15.139-7.411c1.354-0.239,2.686-0.166,4.022,0.2c1.812,0.494,3.22,1.455,3.36,3.444
				C276.748,1126.918,275.528,1127.682,274.101,1128.479z"/>
			<path fill="#FFCD50" d="M194.017,834.792c-0.604,59.905,39.993,68.902,40.18,69.869c-10.15,0-18.452-6.597-26.475-7.727
				c-13.305-1.869-24.301,1.25-31.207,3.244c-12.199-0.838-24.298-8.23-33.08-15.899c-11.416-9.97-24.076-20.46-20.824-37.575
				c-2.609,13.078,15.16,37.163,42.214,37.447c-19.2-8.532-34.287-40.288-31.281-55.416c-2.119,10.876,27.931,46.842,38.239,52.843
				c-8.299-9.303-15.93-31.237-14.977-43.938c0.082,6.214,3.896,15.927,8.741,24.101l0.787,1.117
				c-1.869-3.619-2.806-7.312-2.64-11.557c0.9,3.781,3.035,8.157,4.344,11.775c2.555,7.077,11.357,19.568,13.009,21.443
				c-9.671-18.735-10.836-35.82-6.969-48.997c-0.554,23.403,15.604,53.796,24.919,55.32
				C194.11,885.349,185.958,843.964,194.017,834.792z"/>
		</g>
		<g id="From_selection_xA0_Image_1_">
			<path fill="#FEC202" d="M325.011,1006.982c-16.384,0.539-32.105,3.726-46.968,10.67c-3.208,1.499-6.076,3.801-9.364,5.024
				c-1.932,0.72-4.896,0.804-6.441-0.239c-1.277-0.861-1.967-4.008-1.514-5.78c1.901-7.438,4.317-14.748,6.596-22.087
				c0.143-0.457,0.744-0.771,1.133-1.152c-2.706,6.175-4.326,14.441-4.292,14.591c0.057,0.25,4.515-13.644,4.603-13.405
				c0.032,0.087-2.936,13.097-2.885,13.033c0.357-0.434,3.676-12.141,3.676-12.141s-0.771,6.799-0.654,7.702
				c1.763-5.185,1.793-6.968,1.725-8.085c0.407,0.896,0.706,3.646,0.802,4.162c0.214-0.717,0.038-5.212,0.038-5.212
				s0.83,2.281,1.031,1.89c1.064-2.104,0.781-1.508,2.656-2.899c2.97-2.199,10.849-3.016,14.402-3.512
				c14.711-2.057,29.719-1.955,44.557-2.088c13.353-0.118,22.959,6.875,29.406,18.598c3.604,6.559,4.657,11.091,4.842,18.562
				c0.033,1.289,0.438,4.823-0.094,6.127c-1.125-0.811-2.682-1.371-3.307-2.464c-6.21-10.853-15.541-17.326-27.646-19.812
				C333.278,1007.637,329.114,1007.458,325.011,1006.982z"/>
			<path fill="#FEECB2" d="M115.793,1027.413c-0.009,0-0.009,0.011-0.009,0.02c0-0.01,0-0.01,0-0.01L115.793,1027.413z"/>
			<path fill="#FEC202" d="M116.036,1025.904c-3.572,8.924,10.283-2.578,11.82-4.301c4.066-4.557,7.691-9.807,13.379-12.49
				c10.492-4.959,22.982-2.803,33.933-0.832c8.368,1.505,16.306,4.554,24.267,7.438c4.991,1.812,17.166,7.893,22.287,3.979
				c1.545-1.183,1.209-2.597,1.25-4.408c0.041-1.896,0-3.777,0-5.671c-0.048-0.742-0.094-1.484-0.138-2.229
				c-0.021-0.355-0.046-0.715-0.063-1.069c-0.056-0.376-0.109-0.752-0.156-1.128c-0.02-0.139-0.036-0.274-0.047-0.411
				c-0.062-0.304-0.118-0.605-0.172-0.907c-0.021-0.139-0.047-0.276-0.063-0.413c-0.058-0.229-0.103-0.458-0.156-0.688
				c-0.021-0.14-0.045-0.274-0.063-0.412c-0.854-3.5-1.211-5.343-2.07-8.844c-0.037-0.138-0.614-0.777-0.78-0.89
				c0.679,2.842,0.78,3.611,1.128,5.489c0.137,0.715,1.328,7.468,1.219,7.963c0,0-1.127-4.398-1.237-4.802
				c-0.138-0.485-1.136-6.187-1.868-6.974c-0.339-0.366,1.988,9.877,1.648,10.639c-0.25-0.561-2.729-11.17-3.646-11.757
				c0.156,0.741,1.889,6.357,1.852,9.182c-0.174-0.128-1.017-2.639-1.107-2.979c-0.275-0.962-0.434-2.939-0.396-3.653
				c0,0-0.586,2.254-0.834,2.767c-0.375-0.513-0.254-5.003-0.254-5.003l-0.522,3.225c-0.604-1.468-0.604-3.091-2.22-3.771
				c-1.35-0.57-2.893-0.449-4.315-0.639c-2.336-0.312-4.688-0.498-7.034-0.719c-13.738-1.272-27.156-4.714-41.056-4.59
				c-8.767,0.078-19.871-1.581-26.308,5.963c-4.699,5.507-9.564,12.146-12.429,18.846L116.036,1025.904z"/>
		</g>
		<g id="Lunettes_xA0_Image_1_">
			<g>
				<path fill="#424242" d="M170.13,1005.126c12.273,0.096,22.141,1.232,31.917,3.149c8.211,1.607,16.427,3.229,24.585,5.089
					c11.898,2.711,23.674,2.241,35.498-0.528c8.635-2.021,17.333-3.796,26.049-5.428c8.902-1.664,17.913-2.479,26.963-2.884
					c10.435-0.473,20.793,0.426,31.137,1.584c11.939,1.337,23.867,2.806,35.796,4.225c2.034,0.242,2.459,0.678,2.5,2.752
					c0.098,4.74,0.157,9.482,0.198,14.224c0.017,1.657-0.439,2.172-2.024,2.321c-1.87,0.178-3.304,1.07-4.42,2.558
					c-1.349,1.798-2.146,3.85-2.601,6.025c-1.316,6.334-2.533,12.688-3.897,19.012c-0.861,3.994-1.683,8.027-2.961,11.894
					c-1.646,4.968-3.634,9.852-6.81,14.073c-4.322,5.743-9.828,9.913-16.551,12.424c-6.378,2.38-13.004,3.367-19.746,3.697
					c-7.808,0.387-15.59,0.203-23.297-1.265c-6.809-1.295-13.318-3.443-18.988-7.607c-2.443-1.795-4.672-3.896-6.959-5.902
					c-2.676-2.352-4.483-5.408-6.543-8.271c-2.713-3.772-4.543-8.013-6.615-12.136c-2.748-5.474-4.685-11.254-6.685-17.021
					c-0.768-2.212-1.663-4.384-2.629-6.514c-1.905-4.207-5.369-6.001-9.776-6.242c-4.459-0.244-7.893,1.625-10.453,5.232
					c-0.748,1.053-1.465,2.165-1.979,3.348c-1.602,3.666-3.097,7.377-4.63,11.071c-1.138,2.736-2.116,5.554-3.435,8.197
					c-2.023,4.062-4.104,8.118-6.494,11.968c-1.812,2.922-3.953,5.692-6.273,8.229c-7.48,8.181-16.75,13.247-27.464,15.717
					c-7.585,1.75-15.265,2.394-23.009,2.024c-7.783-0.368-15.284-2.059-22.393-5.401c-4.983-2.346-9.382-5.421-13.138-9.538
					c-3.326-3.646-5.229-7.938-6.717-12.562c-3.245-10.089-4.966-20.507-6.832-30.899c-0.292-1.629-0.663-3.258-1.166-4.831
					c-0.992-3.096-3.032-5.187-6.154-6.134c-1.62-0.492-2.159-1.105-2.143-2.676c0.049-4.343,0.159-8.685,0.245-13.025
					c0.002-0.073,0.012-0.146,0.018-0.217c0.286-3.398,1.027-4.064,4.348-4.388c7.578-0.729,15.146-1.587,22.729-2.307
					c9.359-0.888,18.725-1.771,28.1-2.493C162.416,1005.282,167.427,1005.233,170.13,1005.126z M222.917,1031.264
					c-0.675-3.968-3.438-6.882-6.583-9.392c-5.651-4.508-12.214-6.878-19.043-8.597c-9.458-2.379-19.097-3.22-28.827-2.775
					c-3.037,0-6.076-0.083-9.109,0.018c-5.58,0.186-11.133,0.692-16.592,1.937c-4.402,1.003-8.543,2.649-12.185,5.399
					c-3.084,2.327-5.146,5.529-6.761,8.967c-0.973,2.067-1.574,4.353-2.092,6.598c-1.393,6.034-1.658,12.195-1.455,18.354
					c0.26,7.918,1.324,15.662,4.771,22.967c2.668,5.654,6.318,10.369,11.266,14.093c0.287,0.215,0.578,0.426,0.879,0.62
					c5.605,3.6,11.77,5.535,18.332,6.215c6.287,0.65,12.568,0.406,18.834-0.312c8.25-0.946,16.002-3.443,23.008-8.015
					c5.306-3.459,9.873-7.824,13.521-12.999c2.47-3.508,4.522-7.373,6.331-11.281c1.566-3.39,2.688-7.021,3.709-10.633
					c0.922-3.261,1.721-6.593,2.139-9.965C223.401,1039.681,223.385,1034.023,222.917,1031.264z M318.862,1009.817
					c-7.231-0.039-14.442,0.261-21.613,1.273c-6.538,0.925-12.939,2.347-19.021,5.06c-3.783,1.688-7.19,3.931-9.951,7.015
					c-3.897,4.356-4.996,9.675-4.451,15.383c0.816,8.609,2.445,17.024,5.914,25.009c1.859,4.285,3.949,8.386,6.809,12.118
					c3.012,3.935,6.451,7.346,10.434,10.22c0.867,0.626,1.819,1.134,2.734,1.691c6.141,3.756,12.873,5.742,19.932,6.602
					c10.812,1.312,21.556,1.229,32.08-2.083c6.25-1.97,11.455-5.505,15.405-10.826c2.214-2.979,3.653-6.396,4.921-9.843
					c1.702-4.638,2.432-9.526,2.916-14.438c0.756-7.719,1.182-15.456,0.545-23.205c-0.594-7.163-3.479-13.109-9.535-17.142
					c-3.719-2.475-7.922-3.825-12.252-4.742C335.522,1010.17,327.2,1009.883,318.862,1009.817z"/>
			</g>
		</g>
	</g>
	<text transform="matrix(1 0 0 1 904.3779 459.2881)" display="inline" font-family="'Quicksand-Light'" font-size="45">Web Developper</text>
	<g display="inline">
		<g>
			<g>
				<path fill="#FEBC12" d="M439.984,267.301v23.218H128.714c-6.751,0-12.213-5.151-12.213-11.521v-0.177
					c0-6.368,5.462-11.521,12.213-11.521L439.984,267.301L439.984,267.301z"/>
				<path fill="#C1BAAA" d="M552.5,278.821v0.178c0,6.368-5.463,11.521-12.213,11.521H439.984v-23.219h100.303
					C547.037,267.301,552.5,272.454,552.5,278.821z"/>
			</g>
			<g>
				<path fill="#C1BAAA" d="M552.5,317.519v0.178c0,6.368-5.463,11.521-12.213,11.521H439.984v-23.218h100.303
					C547.037,305.998,552.5,311.15,552.5,317.519z"/>
				<path fill="#FEBC12" d="M439.984,305.998H139.728h-11.012c-6.751,0-12.213,5.152-12.213,11.521v0.178
					c0,6.368,5.462,11.521,12.213,11.521h11.012h300.257h62.117v-23.218L439.984,305.998L439.984,305.998z"/>
			</g>
			<g>
				<path fill="#FEBC12" d="M552.5,356.396c0,6.359-5.467,11.517-12.211,11.517H128.71c-6.743,0-12.209-5.157-12.209-11.517v-0.186
					c0-6.361,5.466-11.518,12.209-11.518h411.579c6.744,0,12.211,5.156,12.211,11.518V356.396z"/>
				<line fill="none" x1="400.135" y1="367.913" x2="400.135" y2="344.695"/>
				<path fill="#C1BAAA" d="M400.135,344.695h140.154c6.744,0,12.211,5.155,12.211,11.517v0.186c0,6.36-5.467,11.517-12.211,11.517
					H400.135"/>
			</g>
			<g>
				<path fill="#FEBC12" d="M552.5,395.093c0,6.36-5.467,11.52-12.211,11.52H128.71c-6.743,0-12.209-5.157-12.209-11.52v-0.185
					c0-6.36,5.466-11.519,12.209-11.519h411.579c6.744,0,12.211,5.157,12.211,11.519V395.093z"/>
				<path fill="#C1BAAA" d="M432.951,383.392h109.968c5.291,0,9.581,5.157,9.581,11.518v0.185c0,6.36-4.29,11.52-9.581,11.52
					H432.951"/>
			</g>
			<g>
				<path fill="#FEBC12" d="M552.5,433.79c0,6.36-5.467,11.517-12.211,11.517H128.71c-6.743,0-12.209-5.154-12.209-11.517v-0.188
					c0-6.358,5.466-11.517,12.209-11.517h411.579c6.744,0,12.211,5.156,12.211,11.517V433.79z"/>
				<path fill="#C1BAAA" d="M409.512,422.089h131.562c6.312,0,11.428,5.156,11.428,11.52v0.185c0,6.36-5.116,11.517-11.428,11.517
					H409.512"/>
			</g>
			<g>
				<path fill="#C1BAAA" d="M409.512,460.786h131.562c6.312,0,11.428,5.156,11.428,11.517v0.187c0,6.358-5.116,11.518-11.428,11.518
					H409.512"/>
				<path fill="#FEBC12" d="M132.778,460.786c-8.997,0-16.275,5.152-16.275,11.521v0.179c0,6.366,7.278,11.521,16.275,11.521
					h336.507v-23.218L132.778,460.786L132.778,460.786z"/>
			</g>
			<g>
				<line fill="none" x1="400.135" y1="522.7" x2="400.135" y2="499.482"/>
				<path fill="#C1BAAA" d="M552.5,511.002v0.177c0,6.368-5.463,11.521-12.213,11.521H400.135v-23.218h140.151
					C547.037,499.482,552.5,504.635,552.5,511.002z"/>
				<path fill="#FEBC12" d="M457.565,499.482V522.7H131.171c-8.107,0-14.669-5.152-14.669-11.521v-0.177
					c0-6.368,6.56-11.521,14.669-11.521L457.565,499.482L457.565,499.482z"/>
			</g>
		</g>
	</g>
	
		<image display="inline" overflow="visible" enable-background="new    " width="771" height="714" xlink:href="../../Screenshots/Screen Shot 2019-02-22 at 7.58.44 PM.png"  transform="matrix(0.7238 0 0 0.7238 2320.4482 78.6182)">
	</image>
	<rect x="1795.5" y="208.5" display="inline" fill="none" stroke="#F1C40F" stroke-miterlimit="10" width="210" height="38"/>
	<rect x="1795.5" y="259.5" display="inline" fill="none" stroke="#F1C40F" stroke-miterlimit="10" width="435" height="38"/>
	<rect x="1795.5" y="309.5" display="inline" fill="none" stroke="#F1C40F" stroke-miterlimit="10" width="435" height="123"/>
	<rect x="2019.5" y="208.5" display="inline" fill="none" stroke="#F1C40F" stroke-miterlimit="10" width="211" height="38"/>
	<rect x="2163.5" y="448.5" display="inline" fill="none" stroke="#F1C40F" stroke-miterlimit="10" width="67" height="20"/>
	<text transform="matrix(0.9983 0 0 1 1795 159)" display="inline" font-family="'Quicksand-Regular'" font-size="22">Contactez</text>
	<text transform="matrix(0.9983 0 0 1 1897.2334 159)" display="inline" font-family="'Quicksand-Light'" font-size="22">-moi !</text>
	<g display="inline">
		<path fill="#F1C40F" d="M2244.643,141.282c0,0.414-0.153,0.785-0.465,1.111c-0.311,0.328-0.672,0.491-1.086,0.491
			c-0.481,0-0.914-0.241-1.291-0.724l-7.91-10.236l-7.909,10.288c-0.311,0.414-0.725,0.62-1.24,0.62
			c-0.381,0-0.726-0.129-1.033-0.389c-0.312-0.258-0.467-0.594-0.467-1.008c0-0.377,0.121-0.705,0.361-0.981l8.479-10.856
			l-8.636-11.115c-0.205-0.276-0.311-0.586-0.311-0.932c0-0.414,0.162-0.775,0.49-1.085c0.327-0.311,0.698-0.466,1.112-0.466
			c0.519,0,0.932,0.225,1.24,0.673l8.064,10.392l7.755-10.392c0.344-0.448,0.773-0.673,1.291-0.673c0.447,0,0.803,0.13,1.062,0.389
			c0.258,0.258,0.389,0.576,0.389,0.957c0,0.379-0.121,0.706-0.362,0.981l-8.375,11.012l8.479,11.013
			C2244.521,140.627,2244.643,140.938,2244.643,141.282z"/>
	</g>
	<line display="inline" fill="none" stroke="#F1C40F" stroke-miterlimit="10" x1="1795" y1="177.5" x2="1870" y2="177.5"/>
	<g display="inline">
		<g>
			<path fill="#E67E22" d="M1810,501.731c-3.865,0-7,3.1-7,7c0,1.3,0.401,2.6,1.094,3.698c0.033,0.102,0.06,0.102,0.094,0.2l4.345,8
				c0.203,0.601,0.78,1.101,1.438,1.101s1.202-0.5,1.405-1.101l4.845-8.7c0.499-1,0.78-2.101,0.78-3.199
				C1817,504.831,1813.865,501.731,1810,501.731z M1809.969,505.632c1.935,0,3.5,1.602,3.5,3.5c0,2-1.565,3.5-3.5,3.5
				s-3.5-1.5-3.5-3.5C1806.469,507.231,1808.034,505.632,1809.969,505.632z"/>
			<path fill="#F1C40F" d="M1810,500.763c-3.865,0-7,3.136-7,7c0,1.385,0.401,2.665,1.094,3.75c0.033,0.055,0.06,0.104,0.094,0.157
				l4.345,8.062c0.203,0.586,0.78,1.029,1.438,1.029s1.202-0.443,1.405-1.029l4.845-8.75c0.499-0.965,0.78-2.062,0.78-3.221
				C1817,503.896,1813.865,500.763,1810,500.763z M1809.969,504.731c1.935,0,3.5,1.565,3.5,3.5c0,1.933-1.565,3.5-3.5,3.5
				s-3.5-1.567-3.5-3.5C1806.469,506.298,1808.034,504.731,1809.969,504.731z"/>
		</g>
	</g>
	<g display="inline">
		<g>
			<g id="_x31_-Call">
			</g>
			<g id="_x32_-24_Hours_Call">
			</g>
			<g id="_x33_-Sending_Call">
			</g>
			<g id="_x34_-Incoming_Call">
			</g>
			<g id="_x35_-Talk_On_Phone">
			</g>
			<g id="_x36_-Block_Call">
			</g>
			<g id="_x37_-Hold_Call">
			</g>
			<g id="_x38_-Mute_Call">
			</g>
			<g id="_x39_-Phone_Book">
			</g>
			<g id="_x31_0-Add_Contact">
			</g>
			<g id="_x31_1-Delete_Contact">
			</g>
			<g id="_x31_2-Mail">
			</g>
			<g id="_x31_3-Message_Read">
			</g>
			<g id="_x31_4-Email">
			</g>
			<g id="_x31_5-Send_Mail">
			</g>
			<g id="_x31_6-Important_Mail">
			</g>
			<g id="_x31_7-Mail_Chain">
			</g>
			<g id="_x31_8-Messaging">
			</g>
			<g id="_x31_9-Sending">
			</g>
			<g id="_x32_0-Chat">
			</g>
			<g id="_x32_1-Mail_Attachment">
			</g>
			<g id="_x32_2-Mobile_Link">
			</g>
			<g id="_x32_3-Smartphone">
			</g>
			<g id="_x32_4-Social_Media">
			</g>
			<g id="_x32_5-Support">
			</g>
			<g id="_x32_6-Links">
			</g>
			<g id="_x32_7-Phone">
				<path fill="#E67E22" d="M1820.579,554.591l-3.157-2.207c-0.413-0.288-0.896-0.438-1.396-0.438c-0.798,0-1.543,0.391-1.999,1.045
					l-0.733,1.05c-1.229-0.824-2.601-1.975-3.907-3.281c-1.307-1.308-2.457-2.68-3.281-3.908l1.051-0.73
					c0.536-0.374,0.896-0.934,1.007-1.572c0.114-0.641-0.028-1.288-0.401-1.824l-2.207-3.156c-0.46-0.66-1.205-1.056-1.99-1.056
					c-0.272,0-0.541,0.048-0.795,0.143c-0.287,0.105-0.558,0.236-0.819,0.401l-0.438,0.31c-0.108,0.085-0.211,0.178-0.308,0.272
					c-0.533,0.532-0.911,1.206-1.125,2.002c-0.907,3.408,1.345,8.562,5.604,12.824c3.58,3.578,7.88,5.801,11.223,5.802l0,0
					c0.572,0,1.112-0.064,1.604-0.196c0.797-0.214,1.471-0.592,2.002-1.123c0.099-0.099,0.188-0.197,0.289-0.326l0.309-0.438
					c0.147-0.239,0.28-0.51,0.388-0.801C1821.864,556.371,1821.489,555.226,1820.579,554.591z"/>
			</g>
			<g id="_x32_8-Phone-2">
			</g>
			<g id="_x32_9-Map">
			</g>
			<g id="_x33_0-Location">
			</g>
			<g id="_x33_1-Write">
			</g>
			<g id="_x33_2-World">
			</g>
			<g id="_x33_3-Home">
			</g>
			<g id="_x33_4-Calendar">
			</g>
			<g id="_x33_5-Website">
			</g>
			<g id="_x33_6-Info">
			</g>
			<g id="_x33_7-Bull_Horn">
			</g>
			<g id="_x33_8-Profile">
			</g>
			<g id="_x33_9-Quote__x26__Answer">
			</g>
			<g id="_x34_0-Notification">
			</g>
			<g id="_x34_1-Share">
			</g>
			<g id="_x34_2-Time">
			</g>
		</g>
		<g>
			<g id="_x31_-Call_1_">
			</g>
			<g id="_x32_-24_Hours_Call_1_">
			</g>
			<g id="_x33_-Sending_Call_1_">
			</g>
			<g id="_x34_-Incoming_Call_1_">
			</g>
			<g id="_x35_-Talk_On_Phone_1_">
			</g>
			<g id="_x36_-Block_Call_1_">
			</g>
			<g id="_x37_-Hold_Call_1_">
			</g>
			<g id="_x38_-Mute_Call_1_">
			</g>
			<g id="_x39_-Phone_Book_1_">
			</g>
			<g id="_x31_0-Add_Contact_1_">
			</g>
			<g id="_x31_1-Delete_Contact_1_">
			</g>
			<g id="_x31_2-Mail_1_">
			</g>
			<g id="_x31_3-Message_Read_1_">
			</g>
			<g id="_x31_4-Email_1_">
			</g>
			<g id="_x31_5-Send_Mail_1_">
			</g>
			<g id="_x31_6-Important_Mail_1_">
			</g>
			<g id="_x31_7-Mail_Chain_1_">
			</g>
			<g id="_x31_8-Messaging_1_">
			</g>
			<g id="_x31_9-Sending_1_">
			</g>
			<g id="_x32_0-Chat_1_">
			</g>
			<g id="_x32_1-Mail_Attachment_1_">
			</g>
			<g id="_x32_2-Mobile_Link_1_">
			</g>
			<g id="_x32_3-Smartphone_1_">
			</g>
			<g id="_x32_4-Social_Media_1_">
			</g>
			<g id="_x32_5-Support_1_">
			</g>
			<g id="_x32_6-Links_1_">
			</g>
			<g id="_x32_7-Phone_1_">
				<path fill="#F1C40F" d="M1821.068,554.104l-3.159-2.205c-0.413-0.289-0.896-0.44-1.396-0.44c-0.795,0-1.542,0.391-1.997,1.044
					l-0.733,1.051c-1.229-0.822-2.601-1.976-3.907-3.28c-1.307-1.31-2.457-2.68-3.281-3.907l1.051-0.733
					c0.535-0.372,0.896-0.932,1.008-1.57c0.113-0.642-0.028-1.288-0.402-1.823l-2.206-3.158c-0.461-0.66-1.207-1.055-1.992-1.055
					c-0.271,0-0.54,0.048-0.794,0.143c-0.287,0.105-0.558,0.237-0.82,0.402l-0.437,0.308c-0.108,0.085-0.21,0.177-0.309,0.274
					c-0.531,0.53-0.91,1.205-1.123,2.001c-0.909,3.406,1.344,8.562,5.604,12.822c3.578,3.579,7.879,5.804,11.222,5.804l0,0
					c0.571,0,1.11-0.066,1.604-0.197c0.796-0.213,1.47-0.591,2-1.123c0.099-0.097,0.189-0.198,0.291-0.325l0.307-0.438
					c0.148-0.239,0.281-0.511,0.389-0.802C1822.352,555.884,1821.977,554.738,1821.068,554.104z"/>
			</g>
			<g id="_x32_8-Phone-2_1_">
			</g>
			<g id="_x32_9-Map_1_">
			</g>
			<g id="_x33_0-Location_1_">
			</g>
			<g id="_x33_1-Write_1_">
			</g>
			<g id="_x33_2-World_1_">
			</g>
			<g id="_x33_3-Home_1_">
			</g>
			<g id="_x33_4-Calendar_1_">
			</g>
			<g id="_x33_5-Website_1_">
			</g>
			<g id="_x33_6-Info_1_">
			</g>
			<g id="_x33_7-Bull_Horn_1_">
			</g>
			<g id="_x33_8-Profile_1_">
			</g>
			<g id="_x33_9-Quote__x26__Answer_1_">
			</g>
			<g id="_x34_0-Notification_1_">
			</g>
			<g id="_x34_1-Share_1_">
			</g>
			<g id="_x34_2-Time_1_">
			</g>
		</g>
	</g>
	<g display="inline">
		<g>
			<path fill="#E67E22" d="M1811,578.963c-5.366,0-9.732,4.366-9.732,9.732c0,5.364,4.366,9.73,9.732,9.73
				c1.967,0,3.858-0.582,5.474-1.684c0.556-0.38,0.698-1.139,0.319-1.691c-0.379-0.557-1.134-0.693-1.689-0.318
				c-1.211,0.824-2.629,1.262-4.104,1.262c-4.025,0-7.3-3.273-7.3-7.299c0-4.026,3.272-7.299,7.3-7.299
				c4.025,0,7.299,3.271,7.299,7.299v0.606c0,0.671-0.545,1.218-1.217,1.218c-0.67,0-1.217-0.547-1.217-1.218v-3.647
				c0-0.673-0.544-1.217-1.218-1.217c-0.536,0-0.979,0.353-1.14,0.838c-0.706-0.521-1.568-0.838-2.511-0.838
				c-2.349,0-4.259,1.908-4.259,4.258c0,2.348,1.91,4.258,4.259,4.258c1.271,0,2.401-0.571,3.184-1.459
				c0.667,0.881,1.714,1.459,2.899,1.459c2.014,0,3.648-1.637,3.648-3.649v-0.606C1820.732,583.329,1816.365,578.963,1811,578.963z
				 M1811,590.521c-1.007,0-1.824-0.819-1.824-1.825c0-1.007,0.817-1.825,1.824-1.825c1.006,0,1.824,0.818,1.824,1.825
				C1812.824,589.702,1812.006,590.521,1811,590.521z"/>
		</g>
		<g>
			<path fill="#F1C40F" d="M1811.488,578.475c-5.366,0-9.731,4.366-9.731,9.732s4.365,9.732,9.731,9.732
				c1.968,0,3.858-0.582,5.475-1.686c0.555-0.38,0.697-1.137,0.318-1.689c-0.378-0.559-1.133-0.695-1.689-0.32
				c-1.21,0.826-2.628,1.262-4.104,1.262c-4.024,0-7.299-3.271-7.299-7.299s3.272-7.299,7.299-7.299
				c4.025,0,7.299,3.271,7.299,7.299v0.607c0,0.672-0.545,1.218-1.216,1.218s-1.218-0.546-1.218-1.218v-3.648
				c0-0.673-0.543-1.217-1.217-1.217c-0.536,0-0.979,0.353-1.141,0.838c-0.706-0.521-1.567-0.838-2.51-0.838
				c-2.349,0-4.259,1.91-4.259,4.258s1.91,4.258,4.259,4.258c1.271,0,2.401-0.571,3.184-1.459c0.666,0.881,1.714,1.459,2.899,1.459
				c2.013,0,3.648-1.637,3.648-3.647v-0.608C1821.221,582.841,1816.854,578.475,1811.488,578.475z M1811.488,590.032
				c-1.006,0-1.823-0.819-1.823-1.825s0.817-1.825,1.823-1.825s1.824,0.819,1.824,1.825S1812.493,590.032,1811.488,590.032z"/>
		</g>
	</g>
	<path display="inline" fill="none" stroke="#E67E22" stroke-width="3" stroke-miterlimit="10" d="M2255.498,130.5
		c0,20.556,0,20-17.023,20h-8.946c-16.899,0-16.899,0.556-17.024-20l0,0c0.125-20.556,0.125-20,17.024-20h8.946
		C2255.498,110.5,2255.498,109.944,2255.498,130.5L2255.498,130.5z"/>
</g>
<path fill="#F39C12" d="M8.001,0C3.585,0,0,3.586,0,8v12v8v8v8v12c0,4.422,3.585,8,8.001,8h36h36c4.422,0,8.001-3.578,8.001-8V28v-8
	V8c0-4.414-3.579-8-8.001-8h-36H8.001z"/>
<path fill="#E67E22" d="M8.001,64.001c-2.407,0-4.532-1.199-6.001-2.801c1.227-4,6.961-10.398,15.876-20
	c24.642-27.199,24.632-27.199,50.755-0.8c10.358,10.802,16.522,17.207,17.121,20.802c-1.46,1.601-3.478,2.801-5.75,2.801h-36
	L8.001,64.001L8.001,64.001z"/>
<path fill="#F8C045" d="M8.001,0C5.594,0,3.469,0.801,2,2.398c1.227,4,6.961,10.402,15.876,20
	c24.642,27.204,24.632,27.603,50.755,0.801C78.99,12.8,85.153,6.398,85.752,2.398C84.292,0.8,82.274,0,80.002,0h-36H8.001L8.001,0z"
	/>
<g id="Layer_3" display="none">
	<path display="inline" fill="#F39C12" d="M97.168-96.354c-4.416,0-8.001,3.586-8.001,8v12v8v8.001v8v12c0,4.422,3.585,8,8.001,8h36
		h36c4.422,0,8.001-3.578,8.001-8v-28.001v-8v-12c0-4.414-3.579-8-8.001-8h-36H97.168z"/>
	<path display="inline" fill="#E67E22" d="M97.168-32.353c-2.407,0-4.532-1.2-6.001-2.801c1.227-4,6.961-10.399,15.876-20
		c24.642-27.199,24.632-27.199,50.755-0.8c10.358,10.801,16.521,17.207,17.121,20.801c-1.46,1.601-3.479,2.801-5.75,2.801h-36
		L97.168-32.353L97.168-32.353z"/>
	<path display="inline" fill="#F1C40F" d="M157.797-119.554c-26.123-26.801-26.112-26.403-50.755,0.801
		c-8.915,9.598-14.648,20.797-15.876,24.797c1.228,4,6.961,10.402,15.876,20c24.643,27.204,24.632,27.602,50.755,0.801
		c10.358-10.399,16.522-16.801,17.121-20.801C174.321-97.956,168.156-109.155,157.797-119.554z"/>
</g>
</svg>
